<svg id="Capa_1" data-name="Capa 1" xmlns="http://www.w3.org/2000/svg" viewBox="0 0 490.67 469.33"><defs><style>.cls-1{fill:#e25555;}.cls-2{fill:#fff;}</style></defs><title>beta</title><path class="cls-1" d="M74.67,266.67a10.68,10.68,0,0,1-8.88-16.58l128-192a10.67,10.67,0,0,1,17.75,11.84l-128,192A10.68,10.68,0,0,1,74.67,266.67Z" transform="translate(0 -10.67)"/><path class="cls-1" d="M405.33,256a10.68,10.68,0,0,1-9-4.88L279,69.78A10.67,10.67,0,0,1,297,58.2L414.29,239.53A10.67,10.67,0,0,1,405.35,256Z" transform="translate(0 -10.67)"/><path class="cls-1" d="M10.67,245.33H480A10.67,10.67,0,0,1,490.67,256V469.33A10.67,10.67,0,0,1,480,480H10.67A10.67,10.67,0,0,1,0,469.33V256A10.67,10.67,0,0,1,10.67,245.33Z" transform="translate(0 -10.67)"/><circle class="cls-1" cx="245.33" cy="53.33" r="53.33"/><path class="cls-2" d="M25.06,404.21,3.28,336.94H16.69l9.18,30.59c2.6,8.48,4.84,16.36,6.58,24.5h.22c1.78-7.94,4.22-16.14,6.84-24.32l9.81-30.77H62.4L39.15,404.21Z" transform="translate(0 -10.67)"/><path class="cls-2" d="M107.29,374.37H81.93v19.74h28.35v10.1H69.64V336.94H108.8v10.11H81.93v17.3h25.36Z" transform="translate(0 -10.67)"/><path class="cls-2" d="M121,337.87a111.27,111.27,0,0,1,18.63-1.45c9.64,0,16.22,1.63,20.75,5.42,3.7,3.08,5.8,7.74,5.8,13.51,0,8.67-5.89,14.58-12.24,16.81v.28c4.88,1.85,7.72,6.49,9.38,13,2.14,8.42,4,16.14,5.32,18.75H156.06c-1.05-1.94-2.65-7.5-4.54-15.87-1.92-8.77-5.11-11.61-12.1-11.77h-6.19v27.64H121Zm12.19,29.69h7.28c8.33,0,13.46-4.4,13.46-11.08,0-7.32-5.15-10.76-13.1-10.79a34.3,34.3,0,0,0-7.64.63Z" transform="translate(0 -10.67)"/><path class="cls-2" d="M177.59,390.82a34.12,34.12,0,0,0,16.26,4.28c7.84,0,12.23-3.68,12.23-9.18,0-5.08-3.41-8.08-11.92-11.17-11.11-3.94-18.21-9.9-18.21-19.54,0-11,9.21-19.31,23.81-19.31,7.29,0,12.62,1.55,16.12,3.32l-2.94,9.91a29.16,29.16,0,0,0-13.44-3.19c-7.8,0-11.11,4.15-11.11,8.11,0,5.16,3.89,7.58,12.87,11,11.69,4.46,17.31,10.33,17.31,20,0,10.82-8.15,20.2-25.51,20.2-7.12,0-14.51-2-18.19-4.27Z" transform="translate(0 -10.67)"/><path class="cls-2" d="M241.92,336.94v67.27h-12.3V336.94Z" transform="translate(0 -10.67)"/><path class="cls-2" d="M276.63,337.87a102.63,102.63,0,0,1,17.93-1.45c9,0,14.67,1.17,19.26,4.27a14.37,14.37,0,0,1,6.94,12.66c0,6.18-3.86,11.82-11.2,14.5v.26c7.11,1.8,13.62,7.39,13.62,16.66a17.74,17.74,0,0,1-6.44,13.89c-4.8,4.13-12.67,6.21-25,6.21a114.92,114.92,0,0,1-15.11-.89Zm12.19,26.57h6.3c8.52,0,13.26-4,13.26-9.71,0-6.32-4.79-9.22-12.53-9.22a33.56,33.56,0,0,0-7,.54Zm0,30.84a38,38,0,0,0,6.5.35c7.86,0,14.94-2.95,14.94-11.25,0-7.82-6.89-11-15.33-11h-6.11Z" transform="translate(0 -10.67)"/><path class="cls-2" d="M371.76,374.37H346.41v19.74h28.34v10.1H334.11V336.94h39.16v10.11H346.41v17.3h25.35Z" transform="translate(0 -10.67)"/><path class="cls-2" d="M399.43,347.27H380.22V336.94h50.9v10.33h-19.4v56.94H399.43Z" transform="translate(0 -10.67)"/><path class="cls-2" d="M445.11,385.2l-5.74,19H426.66l21.59-67.27H463.9l21.86,67.27h-13.2l-6.08-19Zm19.34-9.29-5.31-16.57c-1.29-4.17-2.4-8.75-3.41-12.65h-.23c-1,3.95-2,8.6-3.19,12.6l-5.2,16.62Z" transform="translate(0 -10.67)"/></svg>