<svg id="Capa_1" data-name="Capa 1" xmlns="http://www.w3.org/2000/svg" viewBox="0 0 512.06 512"><defs><style>.cls-1{fill:#e30016;}.cls-2{fill:#fff;}</style></defs><title>beta</title><path class="cls-1" d="M416.06,0H40.59A39.91,39.91,0,0,0,3.19,25,39.9,39.9,0,0,0,12,69.17L442.92,500.11A39.92,39.92,0,0,0,471.29,512a41,41,0,0,0,15.76-3.18,39.88,39.88,0,0,0,25-37.35V96A96,96,0,0,0,416.06,0Z" transform="translate(0 -0.03)"/><path class="cls-2" d="M134.13,111.93l91.76-91.76L252,46.28Q263.9,58.19,265.05,71a26.67,26.67,0,0,1-8.19,22.14,31.53,31.53,0,0,1-17.79,9.34A32.22,32.22,0,0,1,219.23,99l-.25.25q8.18,10.36,7.83,21.85t-9.82,21q-11.78,11.77-27.51,10.62t-28.61-14Zm53.49-32-33,33,14.59,14.58q9.48,9.48,19.17,10.21t17.5-7.07q16.24-16.25-5.89-38.39Zm39.29-39.29L197.28,70.28l11,11q8.84,8.84,18.14,9.63t17-6.94q13.38-13.38-4.22-31Z" transform="translate(0 -0.03)"/><path class="cls-2" d="M257.88,235.68l-48.63-48.63L301,95.3l46.58,46.58-9.73,9.72L302,115.77l-30.52,30.52,33.14,33.15L295,189.1,261.85,156l-32.13,32.12L267.61,226Z" transform="translate(0 -0.03)"/><path class="cls-2" d="M411.83,225.57l-26.49-26.49-82,82-10.75-10.75,82-82-26.42-26.42,9.72-9.73,63.67,63.67Z" transform="translate(0 -0.03)"/><path class="cls-2" d="M415.22,393l-11.9-11.9,16-35.45-38.9-38.91-34.88,16.58-12-12,127-56.56L471.66,266Zm10.24-60.53,24.7-53.5a52.93,52.93,0,0,1,4.74-7.55l-.26-.25a49.41,49.41,0,0,1-7.61,4.67L393.66,300.7Z" transform="translate(0 -0.03)"/></svg>