<svg xmlns="http://www.w3.org/2000/svg" viewBox="0 0 454.91 242.33"><defs><style>.cls-1{isolation:isolate;}.cls-2{fill:#e7f5fe;}.cls-10,.cls-12,.cls-13,.cls-23,.cls-3,.cls-4,.cls-7{fill:none;}.cls-3,.cls-4,.cls-7{stroke:#d2e8f9;}.cls-10,.cls-12,.cls-23,.cls-3,.cls-4{stroke-miterlimit:10;}.cls-4{stroke-dasharray:4.01 4.01;}.cls-5{fill:#f0faff;}.cls-6{fill:#b5ddf7;}.cls-13,.cls-7{stroke-linecap:round;stroke-linejoin:round;}.cls-8{fill:#26387a;}.cls-9{fill:#ffb288;}.cls-10{stroke:#0061a6;}.cls-10,.cls-12,.cls-23{stroke-width:0.5px;}.cls-11{fill:#d9f0ff;}.cls-12{stroke:#94c1f2;}.cls-13{stroke:#b4e8fd;stroke-width:5px;}.cls-14,.cls-16{fill:#fdae2b;}.cls-15{fill:#ef8417;}.cls-16{opacity:0.5;mix-blend-mode:multiply;}.cls-17{fill:#ffc840;}.cls-18{fill:#0061a6;}.cls-19{fill:#ef9467;}.cls-20{fill:#e2e8ed;}.cls-21{fill:#b6e9fe;}.cls-22{fill:#2858ad;}.cls-23{stroke:#6cb1ef;}.cls-24{font-size:24px;fill:#94c1f2;font-family:Impossible-Regular, Impossible Regular;letter-spacing:-0.03em;}</style></defs><title>error</title><g class="cls-1"><g id="Layer_1" data-name="Layer 1"><path class="cls-2" d="M446.35,225.68c-2.7-5.15-13.68-9.29-18.59-10.23-26.21-5-53.68-4.3-80.23-4.22-28.93.09-56.52,4.72-85.21,6.87-14.91,1.11-30.68-.89-45.63-1.41q-36.93-1.27-73.84-3c-21.22-1-43.24,1.23-62,12.92-2.12,1.33-4.27,2.94-5.24,5.33-6.08,15,69.69,13.1,79.56,13.36,49.8,1.29,99.63,2,149.43.62,37-1,75.63-.95,112.35-6.17,8.12-1.16,19.17-1.57,26.19-6.35C447.06,230.76,447.62,228.11,446.35,225.68Z" transform="translate(-18.59 -4.32)"/><path class="cls-3" d="M414.12,21.12c.65,0,1.31,0,2,0" transform="translate(-18.59 -4.32)"/><path class="cls-4" d="M420.12,21.44C433,22.75,448.8,28.2,447,39.37,444,57.18,364.88,50.61,346,50.8c-38,.37-76.43.51-113.7,8.82-9.06,2-22,6.49-21.05,18.05.34,4,2.72,7.69,5.75,10.43,10.89,9.83,26.05,10.77,40.13,12.49,21.29,2.61,122.58-.86,155.69,10,6.52,2.14,14.66,4.9,14.94,14.21.69,23.68-58.13,22.52-75.77,23-47.09,1.2-94.24.72-141.33-.21-38-.75-76.23-1.41-114.22-3.87-14.16-.91-37.33-1.19-48.13-11.82-6-6-6.83-16.75,2.72-22.28,6.73-3.89,26.47-2.19,34.07-2.84,23-2,16-15.92-2.59-17.7" transform="translate(-18.59 -4.32)"/><path class="cls-3" d="M80.49,88.9c-.66,0-1.32-.05-2-.05" transform="translate(-18.59 -4.32)"/><path class="cls-5" d="M415.46,38.44l-6.06-32a2.53,2.53,0,0,0-4.14-1.45L380.54,26.22a2.53,2.53,0,0,0,.81,4.31L412.14,41.3A2.53,2.53,0,0,0,415.46,38.44Z" transform="translate(-18.59 -4.32)"/><path class="cls-6" d="M410.79,38a1.48,1.48,0,0,1-.51-.09L385,29a1.58,1.58,0,0,1-1-1.19,1.61,1.61,0,0,1,.52-1.49l20.34-17.5a1.59,1.59,0,0,1,1.55-.29,1.55,1.55,0,0,1,1,1.19l5,26.37a1.54,1.54,0,0,1-.52,1.48A1.56,1.56,0,0,1,410.79,38ZM386.31,27.36l23.93,8.37-4.71-24.91Z" transform="translate(-18.59 -4.32)"/><path class="cls-6" d="M399.8,27.19h0a1,1,0,0,1-.6-1.17l2.51-8.81a1.5,1.5,0,0,1,1.92-1h0a1.49,1.49,0,0,1,.89,2L401,26.65A.94.94,0,0,1,399.8,27.19Z" transform="translate(-18.59 -4.32)"/><path class="cls-6" d="M400,29.59a1,1,0,1,1-.59-1.23A1,1,0,0,1,400,29.59Z" transform="translate(-18.59 -4.32)"/><path class="cls-5" d="M76.56,78.07,56.63,68.15a1.73,1.73,0,0,0-2.5,1.65L55.51,92a1.72,1.72,0,0,0,2.68,1.33l18.56-12.3A1.73,1.73,0,0,0,76.56,78.07Z" transform="translate(-18.59 -4.32)"/><path class="cls-6" d="M74.37,80.41a1.24,1.24,0,0,1-.26.25L58.84,90.77A1.07,1.07,0,0,1,57.18,90L56.05,71.66a1.07,1.07,0,0,1,1.55-1L74,78.8a1.06,1.06,0,0,1,.59.89A1.14,1.14,0,0,1,74.37,80.41Zm-15.86,9L72.93,79.8,57.44,72.08Z" transform="translate(-18.59 -4.32)"/><path class="cls-6" d="M64,82h0a.65.65,0,0,1-.88-.16l-3.76-5a1,1,0,0,1,.26-1.44h0a1,1,0,0,1,1.44.32l3.14,5.41A.64.64,0,0,1,64,82Z" transform="translate(-18.59 -4.32)"/><path class="cls-6" d="M65.36,82.84a.66.66,0,1,1-.91-.18A.65.65,0,0,1,65.36,82.84Z" transform="translate(-18.59 -4.32)"/><circle class="cls-3" cx="71.78" cy="116.91" r="1.66"/><circle class="cls-3" cx="318.21" cy="86.19" r="1.66"/><circle class="cls-3" cx="187.46" cy="39.67" r="1.66"/><circle class="cls-3" cx="185.47" cy="165.92" r="1.66"/><line class="cls-7" x1="224.16" y1="68.17" x2="224.16" y2="71.92"/><line class="cls-7" x1="226.04" y1="70.04" x2="222.28" y2="70.04"/><line class="cls-7" x1="291.57" y1="20.18" x2="291.57" y2="23.94"/><line class="cls-7" x1="293.45" y1="22.06" x2="289.69" y2="22.06"/><line class="cls-7" x1="395.86" y1="121.49" x2="395.86" y2="125.25"/><line class="cls-7" x1="397.74" y1="123.37" x2="393.98" y2="123.37"/><path class="cls-8" d="M276.47,233.18s-7,3-7,4.48c0,.85,9.61-.37,10.19-.95.93-.93-.37-3.4-.37-3.4Z" transform="translate(-18.59 -4.32)"/><path class="cls-9" d="M276,229l.45,4.3a1.3,1.3,0,0,0,1.21.77,2,2,0,0,0,1.62-.77l-.35-5.38" transform="translate(-18.59 -4.32)"/><path class="cls-8" d="M288.23,130.44c2.54,10.24,1.6,15.45-2.13,23.18-2.26,26-3.83,51.87-6.87,77.21L276,231c-7.3-24.67-14-61.55-13.15-95.26" transform="translate(-18.59 -4.32)"/><path class="cls-10" d="M286.64,134a19.38,19.38,0,0,1,1.08,7.59c-.12,3.89-1.7,7.41-2.72,11.09-1.37,4.92-1.47,9.82-1.85,14.86q-.87,11.82-1.78,23.66-1.47,19.29-3,38.57c0,.39,0,.77-.08,1.15" transform="translate(-18.59 -4.32)"/><path class="cls-8" d="M304.34,234.18s-7,3-7,4.48c0,.85,9.61-.37,10.19-.95.92-.93-.38-3.4-.38-3.4Z" transform="translate(-18.59 -4.32)"/><path class="cls-9" d="M303.89,230l.45,4.3a1.3,1.3,0,0,0,1.21.77,2,2,0,0,0,1.62-.77l-.34-5.38" transform="translate(-18.59 -4.32)"/><path class="cls-8" d="M311.47,129.57c3.22,10.06,2.62,15.31-.58,23.27-.54,26.08-2.33,53.31-3.68,78.8H303.9c-8.91-24.14-18.45-61.4-19.83-95.09" transform="translate(-18.59 -4.32)"/><path class="cls-10" d="M309.88,133.74s3.73,8.72-2.57,21c-.73,11.56-1.1,76.93-1.1,76.93" transform="translate(-18.59 -4.32)"/><path class="cls-10" d="M300.66,136.5a5.73,5.73,0,0,0,2.73,2.12,13.73,13.73,0,0,0,3.41.78,24.12,24.12,0,0,0,4.16.21" transform="translate(-18.59 -4.32)"/><path class="cls-10" d="M301.12,138.13a9.49,9.49,0,0,0,4.27,2.11,22.42,22.42,0,0,0,4.77.45" transform="translate(-18.59 -4.32)"/><path class="cls-9" d="M273.32,81c-11.12,19.34-23.09,36.86-30.19,58L241,137.87c.54-19.64,6.91-48.2,15.27-66" transform="translate(-18.59 -4.32)"/><path class="cls-11" d="M267.88,60.77a29.48,29.48,0,0,0-7.48,3.66,25.49,25.49,0,0,0-8.65,10.43A47.46,47.46,0,0,0,248,88a35.18,35.18,0,0,0,10,3,52.52,52.52,0,0,0,11,0" transform="translate(-18.59 -4.32)"/><path class="cls-11" d="M259.59,72.21c-1.18,20.92-.28,42.44.25,62.8,0,0,7.3,1.94,25,1.94s29.22-5.38,29.22-5.38C310.67,110.65,308,85,299.57,67.76c0,0-9.46-10.2-18.79-10.61a12.11,12.11,0,0,0-5.53,1.43c-1.32.61-7.37,2.09-7.37,2.09Z" transform="translate(-18.59 -4.32)"/><path class="cls-12" d="M259.49,74.07c-.46,4-.46,16.44-.46,16.44" transform="translate(-18.59 -4.32)"/><path class="cls-13" d="M277.12,141.59c29.62-3.28,42,34.26,48.79,48.82C341.85,224.83,402,221,429.4,221c35.89,0,51.65,12.1,34.89,18.44" transform="translate(-18.59 -4.32)"/><path class="cls-14" d="M287.33,143.29c0,15.23-11.53,24.43-21.38,24.43H249.78V118.86H266C275.8,118.86,287.33,128.05,287.33,143.29Z" transform="translate(-18.59 -4.32)"/><path class="cls-15" d="M279,143.29c0,14.89-8.81,27-19.69,27H241.48V116.33h17.83C270.19,116.33,279,128.4,279,143.29Z" transform="translate(-18.59 -4.32)"/><path class="cls-16" d="M283,128.56c-3.85,5.26-7.62,10.58-11.26,16a2.7,2.7,0,0,0,1.37-.73c0,.41-.64,1.11-.07,1.37s1.17-.41,1.77-.22c.56-.14,1.08-.84,1.49-1.24a3.28,3.28,0,0,0-.25.94c3.93-1.53,7.45-5.2,10.51-8.15A24.68,24.68,0,0,0,283,128.56Z" transform="translate(-18.59 -4.32)"/><ellipse class="cls-17" cx="224.16" cy="138.97" rx="19.69" ry="26.95"/><path class="cls-15" d="M244.4,152.84c0,2.21-1.52,4-3.38,4s-3.38-1.8-3.38-4,1.52-4,3.38-4S244.4,150.63,244.4,152.84Z" transform="translate(-18.59 -4.32)"/><path class="cls-15" d="M244.4,133.74c0,2.21-1.52,4-3.38,4s-3.38-1.79-3.38-4,1.52-4,3.38-4S244.4,131.52,244.4,133.74Z" transform="translate(-18.59 -4.32)"/><path class="cls-9" d="M305,87.65s1.25,12.73-4.45,23.32c-4.87,9-14.54,20.77-22.35,27.23l-1.88-.46c2.72-10.43,11.31-29,11.84-35.91s.41-15,.53-18.87" transform="translate(-18.59 -4.32)"/><path class="cls-11" d="M280.78,57.15s10.48.71,16.56,5.85c8.68,7.33,10,21.69,10,25-2.63,2.83-8.36,3-12.54,3a14.39,14.39,0,0,1-7.23-2l-.85-15.83" transform="translate(-18.59 -4.32)"/><path class="cls-9" d="M277,136.19a6.73,6.73,0,0,0-3.35,1.48c-.92.72-2,1.92-1.93,2.47s1.63-.53,1.82-.31-2.58,4.39-2.06,4.7,2.87-3.46,2.87-3.46-2.28,4-1.4,4.12,2.76-3.74,2.76-3.74-1.71,3.41-1.13,3.54,2.18-3.27,2.18-3.27-1.29,2.9-.8,2.95c.25,0,1.52-1.42,2.06-3.17s1.13-3.21.66-4.55" transform="translate(-18.59 -4.32)"/><line class="cls-12" x1="269.39" y1="70.51" x2="269.39" y2="84.93"/><path class="cls-8" d="M259.07,43.84c-.06.62-.08,1.25-.08,1.88a6.78,6.78,0,0,0,1,3.89,4.05,4.05,0,0,0,2.25,1.58c.64.18,1.47.1,1.75-.5a1.75,1.75,0,0,0,.1-.69,18.42,18.42,0,0,0-1.33-6.8" transform="translate(-18.59 -4.32)"/><path class="cls-9" d="M274.88,45.15c-.9-3.5-3.73-8.41-8.33-7.43a8.41,8.41,0,0,0-6.4,5.35c-1,3.29.63,7.11,2.6,9.8a8.21,8.21,0,0,0,2.72,2.52c2.66,1.37,6.26.24,8.07-2A9.47,9.47,0,0,0,274.88,45.15Z" transform="translate(-18.59 -4.32)"/><path class="cls-9" d="M268.43,54.31l1.5,5.5-2.05,1a5,5,0,0,0,4.65,1.63c6.28-.9,8.25-5.25,8.25-5.25l-3.54-.37-3.92-6.69" transform="translate(-18.59 -4.32)"/><path class="cls-8" d="M277.94,41.33a8.81,8.81,0,0,0-4.25-5.73c-3.71-2.25-9-2.43-12.31.67-1.88,1.77-5.27,8-1.22,9.3,1.26.38,2.57-.39,3.67-1.12l3.36-2.25a2.64,2.64,0,0,1,1.31-.56A2,2,0,0,1,270.23,43a18,18,0,0,1,.49,2.32,2.22,2.22,0,0,0,.84,1.41,1,1,0,0,0,1.46-.29,2.82,2.82,0,0,0,0-1.16c0-.39.21-.86.6-.84a.59.59,0,0,1,.37.16c1,.76.66,2.29,1,3.48,0,.16-.29,2.58-.18,2.7C278,50.09,278.26,43.05,277.94,41.33Z" transform="translate(-18.59 -4.32)"/><path class="cls-9" d="M273.32,44.77a.87.87,0,0,1,.8-.9,1.74,1.74,0,0,1,1.23.47,2.72,2.72,0,0,1,1,2,3,3,0,0,1-.56,1.68,1.77,1.77,0,0,1-.9.79,1.42,1.42,0,0,1-1.41-.45" transform="translate(-18.59 -4.32)"/><path class="cls-8" d="M162,233s6.74,1.13,6.93,2.61c.1.85-9.45,1.86-10.1,1.36-1-.8.23-3.8.23-3.8Z" transform="translate(-18.59 -4.32)"/><path class="cls-9" d="M161.43,228.9l.55,4.26a1.31,1.31,0,0,1-1.1.92,2,2,0,0,1-1.7-.56l-.8-5.32" transform="translate(-18.59 -4.32)"/><path class="cls-8" d="M136.22,131.76c-1.2,10.48-1.27,15.52,3.42,22.71,2.22,10.15,5.63,20.53,8.21,30.92-1.11,12.41,6.67,32.17,10.85,46.28l3-.51c4.06-25.4,5.56-64.36,1.91-98.46" transform="translate(-18.59 -4.32)"/><path class="cls-10" d="M138.19,146s11.6,36.84,11.6,38.84.32,8.87.83,13.33c.95,8.17,8.35,32.24,8.35,32.24" transform="translate(-18.59 -4.32)"/><polygon class="cls-18" points="140.02 227.92 139.55 226.08 143.45 225.93 143.5 227.63 140.02 227.92"/><path class="cls-8" d="M109.53,233.24s5.27,3.81,4.8,5.15c-.26.77-8.85-2.41-9.19-3.11-.54-1.12,1.81-3.13,1.81-3.13Z" transform="translate(-18.59 -4.32)"/><path class="cls-9" d="M110.82,229.49l-1.33,3.87a1.26,1.26,0,0,1-1.33.32,1.93,1.93,0,0,1-1.22-1.2l1.57-4.88" transform="translate(-18.59 -4.32)"/><path class="cls-8" d="M113.56,129.57c-3.21,10.06-2.62,15.31.59,23.27.19,9.53.29,19.16.4,28.8-6.79,17-7.86,32.23-7,48.41l3.27,1.21s19.49-34,23.07-47.39A221.86,221.86,0,0,0,141,136.55" transform="translate(-18.59 -4.32)"/><path class="cls-10" d="M114.36,131.76s-3.54,10.37,1.11,20.37c0,2.79,1.6,26,1,29.59-.3,1.72-3.48,9.92-5.61,17.9-2.36,8.84-2.85,29.67-2.85,29.67" transform="translate(-18.59 -4.32)"/><polygon class="cls-18" points="88.35 225.72 88.87 223.54 93.06 225.49 92.23 227.36 88.35 225.72"/><path class="cls-19" d="M168.07,51.92l-2.63-2.25V45c0-.72-1-5-1.86-5s-1.08-1.08-1.52-.64.36,5.32,0,5.68-.82-2.32-1.16-2-.36,2.29-.36,3.3a6.7,6.7,0,0,0,1.6,3.65c.8.8,4.32,4.61,4.32,4.61Z" transform="translate(-18.59 -4.32)"/><path class="cls-11" d="M166.75,50.43l-2.19,2.5S173.23,64.4,176,68.24a45.84,45.84,0,0,1-8.18-4.43c-4.07-2.68-8.16-4.1-11-4.1-6,0-2.86,19.8,4.1,22.69,13.22,2,28,.73,30.3-3.91C194.56,71.61,175.19,55.39,166.75,50.43Z" transform="translate(-18.59 -4.32)"/><path class="cls-12" d="M176,68.24s1.66,4.62,4.59,6.13" transform="translate(-18.59 -4.32)"/><path class="cls-11" d="M126.46,65c-15.76,17.69-15.52,48.11-15.52,68.79,0,0,11.57,7.89,29.23,7.89s25-4.35,25-4.35c.53-21-3.21-30,.25-64.63,0,0-5.64-12.94-8.64-12.94S142,58.56,142,58.56Z" transform="translate(-18.59 -4.32)"/><path class="cls-12" d="M164.57,82.87s.36-6.05,1.83-7.52" transform="translate(-18.59 -4.32)"/><path class="cls-9" d="M147.25,45.29c.58-3.57,3.13-8.67,7.8-8.09,2.93.36,5.2,2.39,6.84,4.76,1.41,2,.88,4-1.13,9.13a13.16,13.16,0,0,1-3.08,3.61c-2.53,1.6-6.21.8-8.22-1.33A9.59,9.59,0,0,1,147.25,45.29Z" transform="translate(-18.59 -4.32)"/><path class="cls-8" d="M147.87,44.85c.67-.1,0-.53.3.08.19.39.25.5.63.63s.38.47.69.7c.49.36.9-.13,1.11-.55a4.67,4.67,0,0,0,.27-2.54c-.07-.66-.29-1.7.36-2.16s1.69.17,2.23.33c.84.24,1.67.51,2.51.77a14.8,14.8,0,0,0,6.25.86,6,6,0,0,0,4.64-2.92c1.07-2.06-1.06-4.74-3.22-4.75a8.05,8.05,0,0,0-1.66.35,1.3,1.3,0,0,1-.62,0c-.47-.13-.68-.66-1-1.08a3.54,3.54,0,0,0-3.58-1.47,28.43,28.43,0,0,0-4.5,1.36,9.39,9.39,0,0,1-2.31,0A2.45,2.45,0,0,0,148,35.84c-.65-.69-2.11,1-2.47,1.43-1.6,1.95-2.1,4.74-2.15,7.2,0,2.15.32,5.27,2.68,6.14,1,.36,1.62.56,1.66-.36a15,15,0,0,1-.63-3.61,1.92,1.92,0,0,1,.88-2" transform="translate(-18.59 -4.32)"/><path class="cls-9" d="M155.54,53.82,155,59.21l1.77.5a5,5,0,0,1-4,2.84c-6.29.84-10.73-4-10.73-4l2.1-.41,3.17-10" transform="translate(-18.59 -4.32)"/><path class="cls-9" d="M148.92,44.82a.87.87,0,0,0-.87-.83,1.73,1.73,0,0,0-1.18.57c-1.76,1.75.45,6,2.19,3.82" transform="translate(-18.59 -4.32)"/><path class="cls-8" d="M160.77,51c-.28.66-1.39.93-2,1-2.95.33-5.41-1.58-8.24-1.93a2,2,0,0,0-1.62.26,2,2,0,0,0-.44,1.5,18.69,18.69,0,0,0,0,2,4,4,0,0,0,.46,1.64c1.28,2.13,5.54,2.49,7.71,2.36a4.51,4.51,0,0,0,2.47-.74c1-.73,1.18-2,1.54-3.15A6.21,6.21,0,0,0,160.77,51Z" transform="translate(-18.59 -4.32)"/><path class="cls-9" d="M158.67,53.32a.52.52,0,0,0-.31-.12,29.52,29.52,0,0,1-3.22-.41,1.44,1.44,0,0,0-.55,0,1.14,1.14,0,0,0-.69.9.78.78,0,0,0,.47.87,5.11,5.11,0,0,0,2.07.45,3,3,0,0,0,1.95-.35C158.68,54.44,159.11,53.63,158.67,53.32Z" transform="translate(-18.59 -4.32)"/><path class="cls-13" d="M145.67,131.4c-34.42-1.8-54.45,16-68.68,48.31-18.47,42-44.28,45.34-55.9,45.11" transform="translate(-18.59 -4.32)"/><path class="cls-14" d="M132.46,134.21c1.27,15.18,13.53,23.38,23.35,22.56l16.1-1.34-4.06-48.69-16.11,1.34C141.92,108.9,131.2,119,132.46,134.21Z" transform="translate(-18.59 -4.32)"/><path class="cls-15" d="M140.76,133.51c1.24,14.84,11,26.13,21.87,25.23l17.77-1.48-4.48-53.73L158.14,105C147.31,105.92,139.53,118.68,140.76,133.51Z" transform="translate(-18.59 -4.32)"/><ellipse class="cls-17" cx="176.89" cy="130.5" rx="19.69" ry="26.95" transform="translate(-28.82 10.83) rotate(-4.77)"/><path class="cls-14" d="M176,140.16c.19,2.2,1.84,3.86,3.7,3.71s3.22-2.07,3-4.27-1.84-3.87-3.69-3.72S175.86,138,176,140.16Z" transform="translate(-18.59 -4.32)"/><path class="cls-14" d="M174.46,121.12c.18,2.2,1.84,3.86,3.69,3.71s3.22-2.07,3-4.27-1.83-3.87-3.69-3.71S174.27,118.91,174.46,121.12Z" transform="translate(-18.59 -4.32)"/><path class="cls-20" d="M178.38,123.61l25.12-2.09a2.8,2.8,0,0,0,2.54-3h0a2.8,2.8,0,0,0-3-2.57L177.91,118C176,118.17,176.36,123.78,178.38,123.61Z" transform="translate(-18.59 -4.32)"/><path class="cls-20" d="M180,142.65l25.12-2.09a2.8,2.8,0,0,0,2.54-3h0a2.8,2.8,0,0,0-3-2.57l-25.12,2.1C177.58,137.21,177.94,142.82,180,142.65Z" transform="translate(-18.59 -4.32)"/><path class="cls-9" d="M118.07,87.65s-1.25,12.73,4.44,23.32c4.87,9,14.54,20.77,22.35,27.23l1.88-.46c-2.72-10.43-11.3-29-11.84-35.91s-.4-15-.53-18.87" transform="translate(-18.59 -4.32)"/><path class="cls-11" d="M142,58.56s-11,.63-17.39,5.43c-11,8.29-8.83,30.56-5.63,41.45s18.57,27.23,23.54,30.75c.81,0,3.2-.2,3.11-2.07-2.74-8.49-10.57-30.83-10.57-30.83l1.24-30.12" transform="translate(-18.59 -4.32)"/><path class="cls-9" d="M146,136.19a6.73,6.73,0,0,1,3.35,1.48c.92.72,2,1.92,1.93,2.47s-1.63-.53-1.82-.31,2.58,4.39,2.06,4.7-2.87-3.46-2.87-3.46,2.28,4,1.4,4.12-2.76-3.74-2.76-3.74,1.71,3.41,1.13,3.54-2.17-3.27-2.17-3.27,1.29,2.9.79,2.95c-.25,0-1.52-1.42-2.06-3.17s-1.13-3.21-.66-4.55" transform="translate(-18.59 -4.32)"/><path class="cls-12" d="M138.19,112.17c-1.76-5.07-3.09-8.88-3.09-8.88L137.42,78" transform="translate(-18.59 -4.32)"/><path class="cls-12" d="M116.5,84.15c-.07,6.86.76,15.3,2.52,21.29,1.54,5.25,5.9,11.75,10.56,17.48" transform="translate(-18.59 -4.32)"/><path class="cls-9" d="M352.65,46.91l1.78-1.22a29.58,29.58,0,0,1,1.27-4.55,10.9,10.9,0,0,1,2.43-3c.43-.29,2.41-1.41,2.91-.91.25.25-.59,2.49-1,2.87s-1.51,2.09-1.33,2.63,1.11-.64,1.33-.86.52-.5.62-.21c.18.48-.82,3.17-1.6,3.95a5,5,0,0,1-2.93,1.52L353.4,49.6" transform="translate(-18.59 -4.32)"/><path class="cls-8" d="M374,34.19a12.56,12.56,0,0,1,5.45,8.25,3.59,3.59,0,0,0,.64,1.66,3.57,3.57,0,0,0,1.22.73,10,10,0,0,1,5.15,5.86c.36,1.08.08,2.6.5,3.52.53,1.13,2.44,1.39,3.47,1.73a7.86,7.86,0,0,1,.16,14.87,4.85,4.85,0,0,1,.56,4.07A9.54,9.54,0,0,1,389,78.51,20,20,0,0,1,373.3,85a14.64,14.64,0,0,1-4.95-1,19.75,19.75,0,0,1-4.82-3.08A15,15,0,0,1,359,75.81c-1-2.09-.91-4.83.74-6.45a5,5,0,0,1-5-2.26,7.3,7.3,0,0,1-.84-5.6,14.07,14.07,0,0,1,2.59-5.17,8,8,0,0,0,1.93-3.55c.29-2.26-1-4.27-1.3-6.52-.51-3.49-.35-6.49,2.64-8.35,1-2.49,2.12-4.41,4.88-5.14A12.13,12.13,0,0,1,374,34.19Z" transform="translate(-18.59 -4.32)"/><path class="cls-21" d="M366.84,60.73c-10-2.61-21.39,1.51-23.94,1.5,3.49-3.48,9.89-11.24,12.1-13.92A2.44,2.44,0,0,0,353.88,46S326.52,60.1,329.27,69.34c2.87,9.64,29.67,4.91,31.81,7.68" transform="translate(-18.59 -4.32)"/><path class="cls-9" d="M368.8,150.52c0,.82-3.61,18.38-3.87,20.27-.76,5.49,2.14,11,1.85,19.51-.34,10.34-4.74,38.15-5.3,39.38s-3.24.1-3.24.1-7.73-37.3-8.17-52.56c-.36-12.58,1.47-39.79,1.47-39.79" transform="translate(-18.59 -4.32)"/><path class="cls-8" d="M361.76,230.16a4.26,4.26,0,0,1,.42,1.37c-.05,1.16-.09,1.95-.09,1.95l-.5,0-.18-.94a7.86,7.86,0,0,0-2.7,1.13c-.66.43-4,.39-4.48.12a.67.67,0,0,1-.22-1.07c.19-.22,3.78-1.79,3.78-1.79" transform="translate(-18.59 -4.32)"/><path class="cls-9" d="M358.24,229.78c-.29.71-3.12,2.25-2.86,2.46a6.76,6.76,0,0,0,3.73-.39c1.67-.56,2.61-1.18,2.66-1.62l-.31-1.17" transform="translate(-18.59 -4.32)"/><path class="cls-9" d="M393.62,151.25c0,.82-3,18.49-3.24,20.38-.6,5.51,2.46,10.92,2.44,19.44,0,10.35-3.58,38.28-4.1,39.53s-3.23.2-3.23.2-8.87-37.05-9.77-52.29C375,166,376,138.7,376,138.7" transform="translate(-18.59 -4.32)"/><path class="cls-8" d="M389,231.07a4.45,4.45,0,0,1,.47,1.35c0,1.16,0,2,0,2l-.51,0-.2-.94a8,8,0,0,0-2.66,1.22c-.65.45-4,.51-4.48.26a.67.67,0,0,1-.25-1.06c.18-.23,3.72-1.91,3.72-1.91" transform="translate(-18.59 -4.32)"/><path class="cls-9" d="M385.49,230.8c-.27.71-3.06,2.34-2.79,2.54a6.57,6.57,0,0,0,3.72-.51c1.65-.6,2.57-1.25,2.61-1.69l-.35-1.16" transform="translate(-18.59 -4.32)"/><path class="cls-22" d="M384.6,106.07s7.93,5.2,10.95,17.65c4.07,16.8-1.93,49.69-1.93,49.69a101.18,101.18,0,0,1-25.92,3.51c-13.5-.11-21.5-4.67-21.53-5.49s-2-25.72.73-42.61c3.08-19,10.93-24.07,10.93-24.07" transform="translate(-18.59 -4.32)"/><path class="cls-21" d="M373.85,60.41c1.23-.46,4.42.66,10.39,3,2.62,2.83,3.77,9,4.34,14.55-1.55,13.4-3.28,20.71-2.45,25.23.2,1.07,1.18,1.88,1,3.38-.32,3.09-5.38,3.55-15,4.64s-18.24-3.27-17.72-4.63,2.15-2.55,2.41-3.46,1.05-12.37,0-13.74-3.72-5.28-3.72-9.09c0-5.37,3-7.78,4.89-10.74,3.23-4.92,5.68-8,8.8-8.77C371.84,59.49,373.85,60.41,373.85,60.41Z" transform="translate(-18.59 -4.32)"/><path class="cls-23" d="M357.69,67.2a7,7,0,0,1-.82,4.23c-.36.59-2.54,2.81-3,4.23" transform="translate(-18.59 -4.32)"/><path class="cls-9" d="M371.56,53.87c2.62-2.6,3-7.54,1.84-10.88-1.34-3.76-6.7-6.57-10.38-4.22C355.78,43.39,363.12,62.25,371.56,53.87Z" transform="translate(-18.59 -4.32)"/><path class="cls-9" d="M366.57,53.41l.13,8s-.3,1.79,2.85,1.9c4.3.15,4.3-2.94,4.3-2.94l-2.49-8.28" transform="translate(-18.59 -4.32)"/><path class="cls-8" d="M369.83,35.22a2.44,2.44,0,0,0-2.75-.06,16.65,16.65,0,0,1-1.55,1.14,11,11,0,0,1-1.37.35,7.78,7.78,0,0,0-5,4.15c-.89,2-.6,5.26,1.05,6.69a10,10,0,0,1,1.22-5.09,2.21,2.21,0,0,1,1.93-1.27c.9.1,1.4,1.07,2,1.7a6.43,6.43,0,0,0,3.72,1.36c1.48.22,2.63.48,3.36,1.94a9.86,9.86,0,0,1,.66,2,13.77,13.77,0,0,1,.45,2.47,6.26,6.26,0,0,0,.16,1.56,3.44,3.44,0,0,0,2.33,1.92c.76.26,2,.49,2.51-.37a8.52,8.52,0,0,0,.88-2.54,11.35,11.35,0,0,0-1.86-7.81c-1.59-2.55-3.87-4.25-5.92-6.37A13.16,13.16,0,0,0,369.83,35.22Z" transform="translate(-18.59 -4.32)"/><path class="cls-9" d="M371.84,47.6a1.73,1.73,0,0,1,1.25-1.34c2-.31,1.73,2.75.94,3.82-.46.63-1.65,1.45-2.19-.29" transform="translate(-18.59 -4.32)"/><path class="cls-9" d="M393.56,110.18l-1,2.06s-3.63.86-4,1.5c-.61,1-1.53,2.41-1.53,3.21s.08,4.28,1.08,4.28c.62,0,2.08-2.85,2.39-3.24.71-.94,3.58-1.63,3.58-4.1l1.76-3.71" transform="translate(-18.59 -4.32)"/><path class="cls-21" d="M373.85,60.3s8.48-2.15,15.11,2c5.15,3.25,18.39,19.41,18.4,28.67,0,6.24-12.4,21.7-12.4,21.7l-2-1.47s1.2-12.15,4.8-18.85c-2.66-2.65-13-10.9-15.62-13.5" transform="translate(-18.59 -4.32)"/><path class="cls-23" d="M380.75,78c1.85,1.65,6.73,5.57,6.73,5.57" transform="translate(-18.59 -4.32)"/><path class="cls-2" d="M130.75,46l-10.24-8.26s4.61-17-1.49-22.95a33.46,33.46,0,0,0-11.58-6.93C98,4.27,86.75,3.46,78.35,9c-6.2,4.11-10,11.16-11.65,18.4-1.49,6.38-1.36,13.63,2.63,18.82a20.42,20.42,0,0,0,6.84,5.45c8.11,4.25,29.55,5.85,38.85-.38,2.58-1.72,2.35-4.06,3.43-7.7Z" transform="translate(-18.59 -4.32)"/><text class="cls-24" transform="translate(57.21 36.01)">Maaf!</text></g></g></svg>