<?xml version="1.0" encoding="utf-8"?>
<!-- Generator: Adobe Illustrator 24.0.2, SVG Export Plug-In . SVG Version: 6.00 Build 0)  -->
<svg version="1.1" id="Layer_1" xmlns="http://www.w3.org/2000/svg" xmlns:xlink="http://www.w3.org/1999/xlink" x="0px" y="0px"
	 viewBox="0 0 1289 245" style="enable-background:new 0 0 1289 245;" xml:space="preserve">
<style type="text/css">
	.st0{fill:url(#SVGID_1_);}
	.st1{fill:#00A672;}
	.st2{fill-rule:evenodd;clip-rule:evenodd;fill:#00A672;}
	.st3{clip-path:url(#SVGID_3_);}
	.st4{fill:none;}
</style>
<linearGradient id="SVGID_1_" gradientUnits="userSpaceOnUse" x1="122.5228" y1="144.833" x2="122.5228" y2="0.2486" gradientTransform="matrix(1 0 0 -1 0 245)">
	<stop  offset="0" style="stop-color:#00583E"/>
	<stop  offset="1" style="stop-color:#00835C"/>
</linearGradient>
<path class="st0" d="M221.5,101.4c11.8-0.6,22.2,8.6,23.2,20.4c4.4,57-47.8,120.9-121.4,123c-62,1.5-123.3-48.1-123.3-123.1
	c0-11.8,9.8-21.4,21.6-21.4c11.8,0,21.4,9.6,21.4,21.4c0,49.4,39.7,81.3,79.3,80.3c48.8-1.4,80.5-43.6,78.9-78.1
	C200.6,112,209.7,101.9,221.5,101.4z"/>
<path class="st1" d="M168.1,123.2c0-12.1,9.9-21.9,22.1-21.9h32.1c12.2,0,22.4,9.8,22.4,21.9c0,12.1-10.2,21.9-22.4,21.9h-32.1
	C178,145.2,168.1,135.3,168.1,123.2z"/>
<path class="st1" d="M100.7,123.3c0-12.1,9.8-22,21.9-22c12.1,0,21.9,9.8,21.9,22s-9.8,22-21.9,22
	C110.5,145.2,100.7,135.4,100.7,123.3z"/>
<path class="st2" d="M143.9,20.7c0.5,11.8-8.7,21.8-20.4,22.3C72.6,45.1,41.5,85.1,43,123c0.5,11.8-8.5,21.8-20.3,22.2
	c-11.8,0.5-22.1-9.1-22.6-20.9c-2.5-61.9,49-123,121.5-124.2C133.5-0.3,143.4,8.9,143.9,20.7z"/>
<g>
	<defs>
		<rect id="SVGID_2_" x="308" y="22" width="981" height="183"/>
	</defs>
	<clipPath id="SVGID_3_">
		<use xlink:href="#SVGID_2_"  style="overflow:visible;"/>
	</clipPath>
	<g class="st3">
		<path class="st4" d="M408.1,137.5h41.2c-2.1,7.7-5.4,14.7-9.9,21c-4.3,6.1-10,11-17.1,14.7c-7.1,3.7-15.6,5.6-25.8,5.6
			c-11.1,0-21.1-2.6-30.1-7.7c-8.8-5.2-15.8-12.3-20.9-21.5c-5.1-9.3-7.7-20.1-7.7-32.4c0-12.4,2.6-23.1,7.7-32.1
			c5.3-9.2,12.4-16.3,21.2-21.2c9-5,18.9-7.5,29.9-7.5c11.7,0,21.7,2.4,29.9,7.2c8.3,4.8,14.8,11.3,19.5,19.3L469,67.2
			c-7.4-11.8-17.3-20.9-29.6-27.5c-12.2-6.6-26.5-9.9-42.8-9.9c-12.7,0-24.5,2.2-35.4,6.5c-10.8,4.2-20.1,10.1-28.2,17.9
			c-7.9,7.7-14,17-18.5,27.8c-4.3,10.6-6.5,22.4-6.5,35.3s2.2,24.7,6.5,35.5c4.3,10.8,10.4,20.1,18.3,28c8,7.9,17.4,14,28.2,18.4
			c10.8,4.2,22.5,6.3,35.1,6.3c13.5,0,25.4-2.4,35.9-7.2c10.4-5,19.2-11.8,26.2-20.3c7.1-8.5,12.4-18.3,15.9-29.2
			c3.5-11.1,5.1-22.9,4.8-35.3h-67.4L408.1,137.5z"/>
		<path class="st4" d="M557.2,118.7l12.8-22.2c-2.6-2.9-5.6-5-9.1-6.3c-3.5-1.3-7.3-1.9-11.3-1.9c-4.7,0-9.2,1.4-13.7,4.3
			c-4.5,2.7-8.3,6.6-11.6,11.6V90.7h-25.8v111.1h25.8v-62.5c0-8,1.4-14.5,4.3-19.3c2.9-4.8,7.5-7.2,14-7.2c3.2,0,5.9,0.6,7.9,1.7
			C552.5,115.3,554.8,116.7,557.2,118.7z"/>
		<path class="st4" d="M582.9,90.7v111.1h25.5V90.7H582.9z M579.3,49.9c0,4.5,1.6,8.3,4.8,11.3c3.2,3.1,7.1,4.6,11.6,4.6
			c4.7,0,8.6-1.5,11.8-4.6c3.2-3.1,4.8-6.8,4.8-11.3c0-4.5-1.6-8.3-4.8-11.3c-3.2-3.1-7.1-4.6-11.8-4.6c-4.5,0-8.3,1.5-11.6,4.6
			C580.9,41.6,579.3,45.4,579.3,49.9z"/>
		<path class="st4" d="M652.1,146.2c0-11.1,3.3-19.7,9.9-25.8c6.6-6.3,14.4-9.4,23.3-9.4c5,0,9.9,1.4,14.7,4.1
			c4.8,2.7,8.8,6.8,12,12.1c3.2,5.2,4.8,11.5,4.8,19.1c0,7.6-1.6,14-4.8,19.3c-3.2,5.2-7.2,9.1-12,11.8c-4.8,2.7-9.7,4.1-14.7,4.1
			c-9,0-16.8-3.1-23.3-9.2C655.4,166,652.1,157.3,652.1,146.2z M625.2,146.2c0,12.2,2.5,22.7,7.5,31.4c5,8.5,11.6,15.1,19.7,19.8
			c8.2,4.5,17.1,6.8,26.7,6.8c8,0,15.2-1.8,21.7-5.3c6.6-3.7,12-8.9,16.1-15.5v18.4h26.2V21.3h-26.2V109
			c-4.2-6.6-9.5-11.7-16.1-15.2c-6.4-3.7-13.6-5.6-21.7-5.6c-9.6,0-18.5,2.3-26.7,7c-8.2,4.5-14.8,11.1-19.7,19.8
			C627.6,123.6,625.2,134,625.2,146.2z"/>
		<path class="st4" d="M772.7,161.6l-15.2,14.7c5.1,8.2,12,15.1,20.5,20.5c8.7,5.5,18.4,8.2,29.1,8.2c11.7,0,21.3-2.8,28.6-8.5
			c7.5-5.8,11.3-14.6,11.3-26.3c0-6.6-1.4-12-4.3-16.2c-2.9-4.2-6.7-7.6-11.3-10.4c-4.7-2.9-9.6-5.4-14.9-7.5
			c-4.2-1.8-8.4-3.4-12.8-4.8c-4.2-1.4-7.6-3.1-10.4-5.1c-2.7-1.9-4.1-4.4-4.1-7.5c0-3.4,1.3-5.8,3.9-7.2c2.7-1.6,6.3-2.4,10.8-2.4
			c4.5,0,9.1,1.3,14,3.9c5,2.6,9.3,5.9,13,9.9l14.4-15c-4.2-5.6-10.1-10.3-17.8-14c-7.5-3.9-15.8-5.8-24.8-5.8
			c-6.6,0-12.8,1.2-18.5,3.6c-5.8,2.4-10.4,5.9-14,10.4c-3.5,4.5-5.3,10-5.3,16.4c0,6.9,1.5,12.6,4.6,16.9c3.2,4.2,7.2,7.6,12,10.1
			c4.8,2.6,9.8,4.9,14.9,7c6.4,2.4,12,5,16.9,7.7c5,2.7,7.5,6.5,7.5,11.3c0,3.7-1.4,6.5-4.1,8.5c-2.6,1.8-6.2,2.7-10.8,2.7
			c-4.8,0-10.3-1.9-16.4-5.8C783.6,173.1,778,167.9,772.7,161.6z"/>
		<path class="st4" d="M884.6,146.2c0-10.5,3.1-18.9,9.4-25.4c6.4-6.4,14.3-9.7,23.6-9.7c9.5,0,17.3,3.2,23.6,9.7
			c6.3,6.4,9.4,14.9,9.4,25.4c0,10.3-3.1,18.8-9.4,25.4c-6.3,6.4-14.1,9.7-23.6,9.7c-9.3,0-17.2-3.2-23.6-9.7
			C887.8,164.9,884.6,156.5,884.6,146.2z M857.9,146.2c0,11.4,2.6,21.5,7.7,30.2c5.3,8.7,12.4,15.5,21.4,20.5
			c9.1,4.8,19.3,7.2,30.6,7.2c11.4,0,21.6-2.4,30.6-7.2c9-5,16-11.8,21.2-20.5c5.3-8.7,7.9-18.8,7.9-30.2s-2.6-21.5-7.9-30.2
			c-5.1-8.7-12.2-15.5-21.2-20.3c-9-5-19.2-7.5-30.6-7.5c-11.2,0-21.4,2.5-30.6,7.5c-9,4.8-16.1,11.6-21.4,20.3
			C860.5,124.7,857.9,134.8,857.9,146.2z"/>
		<path class="st4" d="M1151,131.2c0-14-2.9-24.6-8.7-31.9c-5.8-7.4-14.7-11.1-26.7-11.1c-7.4,0-14.1,1.8-20.2,5.3
			c-6.1,3.4-11,8.1-14.7,14.2c-5-13-15.6-19.6-31.8-19.6c-7.2,0-13.5,1.7-18.8,5.1c-5.1,3.4-9.2,7.9-12.3,13.5V90.7h-25.5v111.1
			h25.5v-67.6c0-7.4,1.8-13.4,5.5-17.9c3.9-4.7,9.3-7,16.4-7c6.8,0,11.5,2.2,14.2,6.5c2.7,4.2,4.1,10.3,4.1,18.4v67.6h26.2v-67.6
			c0-7.4,1.8-13.4,5.5-17.9c3.8-4.7,9.3-7,16.4-7c6.8,0,11.5,2.2,14.2,6.5c2.9,4.2,4.3,10.3,4.3,18.4v67.6h26.2V131.2z"/>
		<path class="st4" d="M1193.6,152.2h88.3c0.2-1.3,0.2-2.6,0.2-3.9c0.2-1.3,0.2-2.4,0.2-3.4c0-17.5-7.4-31.4-17.3-41.5
			c-9.8-10.1-23.3-15.2-40.4-15.2c-15.9,0-28.8,4.3-38.8,12.8c-9.8,8.5-15.8,19.6-18,33.3c-0.3,1.9-0.6,3.9-0.7,5.8
			c-0.2,1.9-0.2,3.9-0.2,6c0,11.1,2.3,21.1,7,29.9c4.7,8.7,11.2,15.5,19.7,20.5c8.5,5,18.5,7.5,29.8,7.5c13.8,0,25.1-2.7,33.9-8.2
			c9-5.5,18.6-12.7,24.1-21.7l-25-9.2c-3.2,5.5-7.5,9.8-12.8,13c-5.1,3.1-11.5,4.6-19,4.6c-8.5,0-15.6-2.5-21.2-7.5
			C1197.9,170,1194.6,162.4,1193.6,152.2z M1194.1,134.1c1.1-8.2,4.5-14.6,10.1-19.1c5.6-4.7,12.4-7,20.2-7c8.3,0,14.8,2.3,19.3,7
			c4.5,4.7,7.2,11,8.2,19.1H1194.1z"/>
	</g>
</g>
</svg>
