<svg id="Layer_1" data-name="Layer 1" xmlns="http://www.w3.org/2000/svg" width="244.44" height="244.7" viewBox="0 0 244.44 244.7">
  <defs>
    <style>
      .cls-1, .cls-3 {
        fill: #fff;
      }

      .cls-2 {
        fill: #e30016;
      }

      .cls-2, .cls-3 {
        fill-rule: evenodd;
      }
    </style>
  </defs>
  <title>pmikudus-logo-small</title>
  <rect class="cls-1" width="244.44" height="244.7"/>
  <g>
    <path id="path22" class="cls-2" d="M113.47,230.45l-1.38,1.07-1.41,1-1.45,1-1.49.93-1.51.88-1.54.83-1.58.79-1.6.73-1.63.67-1.65.63-1.68.57-1.7.52-1.73.45-1.75.4-1.77.35-1.79.28-1.81.22-1.82.16-1.84.1-1.87,0L77.74,242,75,241.77l-2.68-.35-2.63-.48-2.59-.61-2.54-.74-2.49-.85-2.43-1-2.38-1.1-2.3-1.2-2.25-1.31-2.17-1.42-2.1-1.52-2-1.62-1.94-1.71-1.87-1.8-1.77-1.89-1.68-2-1.59-2.05L36.1,218l-1.39-2.21-1.29-2.27-1.19-2.35-1.07-2.41-1-2.48-.84-2.52-.73-2.59-.6-2.63-.47-2.68-.34-2.72L27,190.41l-.07-2.76,0-1.32,0-1.27.08-1.27.1-1.27.13-1.25.15-1.24.19-1.24.21-1.23.24-1.22.27-1.21.29-1.2.32-1.18.35-1.18.37-1.17.39-1.15.42-1.15L31,167l.46-1.11.49-1.11.52-1.09.54-1.08.56-1.07.58-1,.6-1,.63-1,.33-.52-1.39-.54-2.08-.91-2-1-2-1.08-1.94-1.16L24.37,152l-1.83-1.31-1.77-1.39-1.7-1.47-1.65-1.53-1.58-1.6L14.32,143l-1.45-1.73-1.37-1.79-1.31-1.84L9,135.74l-1.15-2-1.08-2-1-2.06-.91-2.1L4,125.45l-.73-2.19L2.63,121l-.55-2.27-.46-2.31-.35-2.34L1,111.73l-.16-2.4,0-2.44.07-2.78.2-2.76.35-2.72L1.89,96l.6-2.63.72-2.58.85-2.53,1-2.47L6.1,83.32,7.28,81,8.57,78.7,10,76.49l1.49-2.13,1.59-2.06,1.69-2,1.77-1.89,1.86-1.81,1.94-1.71,2-1.62,2.1-1.52,2.17-1.41,2.24-1.32,2.31-1.2,2.37-1.09,2.43-1,2.49-.86L41,54.18l2.59-.61,2.64-.48,2.67-.34,2.72-.21,2.69-.07h.79l.73,0,.73,0,.72,0,.73,0,.71.06.72.06.72.07.72.09.71.09.7.1.71.12.7.12.7.13.69.14.7.15.69.16.69.16.67.18.68.18.57.17v-.25l.21-2.76.34-2.72.48-2.67.6-2.64L71.43,41l.85-2.53,1-2.47,1.07-2.41,1.19-2.35,1.29-2.28,1.39-2.2,1.5-2.14,1.59-2.05,1.68-2,1.78-1.89,1.86-1.8,1.94-1.71,2-1.62L92.65,12l2.17-1.42,2.25-1.31,2.31-1.21L101.75,7l2.43-1,2.49-.86,2.54-.73,2.59-.61,2.63-.48L117.11,3l2.71-.21,2.75-.07,2.74.07L128,3l2.68.35,2.63.48,2.59.61,2.54.73L141,6l2.43,1,2.37,1.09,2.31,1.21,2.24,1.31L152.48,12l2.1,1.52,2,1.62,1.94,1.71,1.86,1.8,1.77,1.89,1.69,2,1.59,2.05L167,26.71l1.4,2.2,1.29,2.28,1.19,2.35L171.9,36l1,2.47.85,2.53.72,2.59.6,2.63.47,2.67.35,2.72.2,2.76v.28l.52-.15.68-.18.68-.18.68-.16.68-.16.69-.15.7-.13.69-.13.7-.12.7-.11.7-.1.7-.1.71-.08.72-.07.71-.06.71-.06.72,0,.72,0,.72,0,.73,0h.78l2.7.07,2.71.21,2.68.35,2.63.48,2.59.61,2.54.73,2.49.86,2.43,1,2.37,1.09,2.31,1.21,2.24,1.31,2.18,1.42,2.1,1.52,2,1.61,1.94,1.72,1.86,1.8,1.77,1.89,1.69,2,1.59,2.06L235,76.56l1.4,2.21,1.29,2.28,1.19,2.35L240,85.81l1,2.47.85,2.53.72,2.58.6,2.63.48,2.68.34,2.72.2,2.76.07,2.78,0,2.43-.16,2.39-.25,2.37-.36,2.33-.45,2.31-.55,2.27-.64,2.23-.73,2.18-.82,2.15-.9,2.1-1,2.06-1.07,2-1.14,2-1.23,1.89-1.3,1.85-1.37,1.78L230.75,143l-1.5,1.66-1.58,1.6L226,147.78l-1.69,1.46-1.76,1.39L220.76,152l-1.87,1.24L217,154.35l-2,1.08-2,1-2.07.91-1.34.53.37.56.63,1,.62,1,.59,1.06.57,1.07.55,1.09.52,1.1.5,1.11.48,1.13.45,1.13.43,1.16.4,1.16.37,1.18.36,1.18.32,1.2.3,1.21.27,1.22.24,1.23.22,1.24.19,1.25.16,1.26.13,1.26.11,1.28.07,1.28.05,1.28v1.33l-.07,2.76-.2,2.76-.35,2.72-.47,2.68-.6,2.63-.72,2.58-.85,2.53-1,2.47-1.08,2.41L212,213.81l-1.29,2.28-1.4,2.21-1.49,2.13-1.59,2.06-1.69,2-1.77,1.89-1.86,1.8L199,229.86l-2,1.62-2.1,1.52-2.17,1.42-2.24,1.31-2.31,1.21L185.74,238l-2.43,1-2.49.86-2.54.73-2.59.61-2.64.48-2.67.35-2.72.21-2.72.07-1.89,0-1.85-.1-1.83-.16-1.82-.22-1.8-.29-1.78-.35-1.76-.4-1.73-.47-1.72-.52-1.68-.57-1.67-.64-1.63-.68-1.61-.74-1.58-.79-1.55-.84-1.52-.89-1.49-.94-1.46-1-1.42-1-1.38-1.08-1.35-1.12-1.31-1.17-1.28-1.2-1.23-1.25-1.2-1.29-1.15-1.33-1.12-1.36-.53-.7-.5.65L121,223.17l-1.15,1.31-1.19,1.28L117.4,227l-1.27,1.2-1.31,1.15Z" transform="translate(-0.44 -0.51)"/>
    <path id="path24" class="cls-3" d="M201.12,155.12a49.57,49.57,0,0,1,12.31,32.77c0,27.16-21.79,49.31-48.51,49.31A48.45,48.45,0,0,1,122.63,212a48.46,48.46,0,0,1-42.14,24.93C53.77,236.93,32,214.78,32,187.61a49.58,49.58,0,0,1,12.1-32.52A49.25,49.25,0,0,1,5.84,106.9c0-27.16,21.79-49.31,48.51-49.31A47.45,47.45,0,0,1,74.29,62c-.16-1.6-.24-3.21-.24-4.85C74.05,30,95.85,7.8,122.57,7.8S171.08,30,171.08,57.11c0,1.64-.08,3.26-.23,4.86a47.42,47.42,0,0,1,19.8-4.31c26.72,0,48.51,22.15,48.51,49.31a49.27,49.27,0,0,1-38,48.15Z" transform="translate(-0.44 -0.51)"/>
    <path id="path26" class="cls-2" d="M98.71,54.3h47.44v48.13h47.36v48.22H146.15v48.13H98.71V150.65H51.36V102.43H98.71Z" transform="translate(-0.44 -0.51)"/>
  </g>
</svg>
