<svg id="Layer_1" data-name="Layer 1" xmlns="http://www.w3.org/2000/svg" width="1290.89" height="256.76" viewBox="0 0 1290.89 256.76">
  <defs>
    <style>
      .cls-1, .cls-5 {
        fill: #fff;
      }

      .cls-2, .cls-4 {
        fill: #e30016;
      }

      .cls-3 {
        fill: #404041;
      }

      .cls-4, .cls-5, .cls-6 {
        fill-rule: evenodd;
      }

      .cls-7 {
        fill: none;
      }
    </style>
  </defs>
  <title>pmikudus-logo</title>
  <rect class="cls-1" y="3.13" width="1290.89" height="253.28"/>
  <g>
    <rect class="cls-2" x="749.79" width="6.58" height="256.76"/>
    <g>
      <polygon class="cls-3" points="1178.97 117.64 1181.86 114.96 1184.74 112.49 1188.46 110.22 1193.4 107.33 1197.32 105.48 1200.83 104.24 1203.71 103.42 1205.16 102.8 1207.84 102.8 1209.07 103 1210.11 103.62 1210.72 104.24 1211.34 105.06 1211.55 106.3 1211.55 108.36 1211.55 108.57 1211.75 108.36 1212.17 107.95 1212.58 106.92 1213.4 105.06 1214.02 104.03 1214.85 101.97 1215.05 100.73 1215.88 98.47 1216.29 96.2 1216.5 94.34 1216.5 92.08 1216.29 90.84 1216.08 89.81 1215.88 88.57 1215.46 87.54 1214.85 86.3 1214.43 85.68 1213.61 84.86 1212.99 84.24 1212.17 83.42 1211.14 82.8 1210.31 82.39 1209.49 81.97 1207.84 81.35 1207.01 81.15 1206.19 80.94 1205.16 80.74 1203.71 80.74 1200.41 80.74 1199.38 80.94 1198.35 80.94 1196.91 81.15 1195.26 81.56 1193.2 82.18 1191.34 82.8 1187.42 84.24 1185.57 85.27 1183.92 85.89 1181.86 87.13 1179.8 88.16 1178.15 89.19 1175.47 90.84 1173.4 92.28 1171.55 93.72 1169.9 94.96 1167.84 96.82 1166.6 97.64 1164.75 99.5 1163.51 100.94 1162.48 102.38 1162.07 103.21 1161.45 104.65 1161.04 106.1 1161.04 107.13 1161.24 107.95 1161.65 109.19 1162.27 110.22 1162.68 111.04 1163.3 112.28 1163.92 113.11 1164.75 114.34 1165.57 115.37 1166.6 116.82 1168.05 118.47 1169.49 120.32 1170.72 121.77 1172.37 123.62 1174.23 125.48 1175.47 126.92 1177.32 128.98 1178.77 130.63 1180 131.87 1182.89 135.17 1184.74 137.43 1185.98 138.67 1188.25 141.35 1189.49 142.59 1190.11 143.62 1191.96 145.68 1192.58 146.71 1193.4 147.54 1194.02 148.57 1194.64 149.81 1195.05 150.63 1195.67 151.46 1195.88 152.07 1196.29 152.9 1196.5 153.72 1196.7 154.75 1197.12 155.99 1197.12 156.4 1197.12 156.61 1197.32 160.53 1197.12 161.15 1197.12 161.97 1196.7 162.79 1196.29 163.82 1195.88 164.65 1195.26 165.47 1194.85 166.3 1194.02 167.12 1192.99 168.36 1191.96 169.19 1190.93 169.8 1189.9 170.63 1189.28 171.04 1188.66 171.45 1188.04 171.87 1187.01 172.28 1186.39 172.69 1185.36 173.1 1184.13 173.51 1183.1 173.93 1181.24 174.55 1180.21 174.96 1178.97 175.37 1177.53 175.78 1176.09 175.99 1164.54 178.05 1146.81 178.05 1131.76 176.4 1118.56 173.93 1112.17 172.49 1109.49 171.66 1107.63 171.04 1106.19 170.22 1105.78 169.8 1105.16 169.39 1105.16 169.8 1105.16 170.01 1105.37 170.63 1105.98 171.25 1108.87 174.55 1115.47 180.94 1123.72 187.53 1129.28 190.83 1135.47 193.1 1144.75 195.99 1157.53 198.26 1165.98 198.46 1175.26 198.05 1181.86 196.81 1187.63 194.96 1193.4 191.87 1197.73 188.98 1201.65 185.47 1205.98 179.91 1209.07 173.93 1210.31 169.6 1210.72 164.86 1210.52 160.94 1209.28 157.02 1206.81 151.25 1201.86 144.03 1193.2 133.93 1185.57 125.06 1178.97 117.64"/>
      <path class="cls-3" d="M1132,106.21a3.45,3.45,0,0,0-1.44,0,8.72,8.72,0,0,0-1.86.62,12.5,12.5,0,0,0-2.27,1.65,18.08,18.08,0,0,1-1.65,1l-2.26,2.27-2.27,2.68-1.86,1.85-2.47,3.3-2.27,3.3-2.27,4.13-1.85,4.12-1.24,3.71-.62,2.47-.41,2.89.41,2.27.62,2.27,1.44,2.06,1.86,1.44,1.85.83h3.72l3.09-1.65,2.27-1.45,2.88-2.88,3.71-3.92,6.4-8.45,2.88-5,2.89-4.54,3.3-6,3.5-6.59,2.89-4.75,1.44-2.06,1.24-1.65.82-.2.62.41.21,1.24v7.62l-.21,4.33-.2,4.54.2,2.89.21,4.12.62,6.19.41,2.68,1,5.56,1.24,4.13,1,2.68,1.24,3.09,1.64,3.5,1.65,2.48,1.65,2.06,1.45,1.65.82.82.21.21v.21h-.62l-.62-.21-1.24-.41-2.47-.83-2.47-.82-3.1-1.44-2.06-1-2.68-1.44L1151,152.6l-1.24-1-1.44-1.65-1.65-1.65-1-.41h-1l-1,.21-1.45,1-2.26,1.85-2.07,2.06-1.85,2.07-2.27,2.06-2.47,1-1.86.82-2.47.62-3.51.41h-3.71l-2.68-.2-3.09-.83-4.54-1.85-1.44-1.24-2.06-2.27-2.89-4.33-2.06-3.71-2.27-4.74-1.44-4.12-1.24-5.16-.21-4.53.42-3.51.61-4.33,1-4.53,2.26-7.22,2.27-6,3.09-6.39,3.1-5,2.26-2.68,1-1,.82-.83.82-.41h1.45l1,.41,1.65,1,1.85,1.44,3.71,3.71,2.07,2.47,2.26,3.1,1.86,3.5,1,2.27.41,1.44.42,1.24Z" transform="translate(1.81 8.13)"/>
      <polygon class="cls-3" points="1100.42 51.46 1097.12 50.22 1094.44 50.22 1092.17 51.46 1090.11 53.73 1088.05 57.85 1086.4 65.48 1085.78 73.11 1085.78 80.32 1085.78 96.61 1086.4 107.95 1088.05 123.21 1089.49 132.49 1091.55 144.65 1094.44 156.2 1098.15 168.36 1102.48 178.26 1105.16 183 1107.22 185.89 1109.08 188.36 1110.73 190.01 1110.32 190.01 1108.46 188.77 1105.37 186.71 1102.07 184.24 1099.59 181.97 1094.85 176.61 1093.2 174.55 1091.96 172.9 1089.29 168.16 1087.02 163.62 1084.75 159.08 1082.69 154.34 1081.66 152.49 1080.42 154.96 1077.74 159.29 1074.44 164.65 1071.76 168.57 1069.29 171.25 1065.16 174.96 1062.07 177.43 1058.15 179.7 1054.85 180.94 1051.56 181.35 1048.67 181.14 1044.55 179.91 1041.04 178.05 1037.95 174.96 1034.65 170.63 1032.79 167.54 1030.94 163.21 1029.7 158.88 1028.88 155.37 1028.26 150.01 1028.05 146.92 1028.26 141.35 1028.88 136.4 1029.91 130.63 1032.17 124.24 1034.85 119.08 1039.18 112.9 1042.48 109.6 1046.4 106.51 1050.32 104.03 1053 102.8 1054.44 102.18 1055.88 101.97 1057.33 102.18 1059.18 102.59 1060.83 103.62 1062.89 105.48 1064.13 107.13 1065.78 109.81 1067.22 112.28 1068.05 114.75 1069.08 117.23 1069.49 119.5 1069.9 122.18 1070.11 124.24 1070.11 126.3 1069.7 127.95 1069.49 127.95 1069.08 127.13 1068.46 126.51 1067.02 125.48 1065.78 124.86 1064.13 124.86 1062.48 124.86 1060.63 125.48 1058.98 126.51 1057.95 127.13 1056.5 128.16 1055.27 129.39 1053.41 131.04 1051.97 132.69 1050.32 134.55 1049.08 136.61 1047.43 138.88 1045.58 141.76 1044.13 144.86 1043.1 146.71 1042.28 148.57 1041.86 150.42 1041.25 152.28 1040.83 153.93 1040.83 155.37 1040.83 157.02 1041.25 157.85 1041.45 158.47 1042.07 159.08 1042.69 159.5 1043.31 159.7 1043.93 160.11 1044.55 160.11 1045.78 160.11 1046.61 160.11 1047.43 160.11 1048.46 159.91 1049.7 159.5 1050.94 159.08 1052.59 158.67 1054.65 157.64 1056.71 156.61 1058.98 155.37 1060.63 154.34 1062.07 153.52 1063.51 152.28 1064.96 151.46 1066.61 150.22 1068.26 148.77 1070.32 146.92 1071.55 145.47 1072.79 144.24 1073.62 143 1074.23 141.76 1074.85 140.94 1075.06 139.91 1074.85 138.26 1074.65 136.82 1074.44 134.55 1074.03 132.07 1073.62 130.01 1073.2 127.54 1072.59 124.65 1072.38 123 1071.97 121.35 1071.97 120.53 1071.76 119.08 1071.35 117.85 1071.14 115.79 1070.73 113.93 1070.32 111.87 1070.11 110.22 1069.7 108.57 1069.49 106.1 1069.08 104.24 1068.67 101.77 1068.46 99.7 1068.05 97.85 1067.64 94.76 1067.43 91.87 1067.22 89.39 1067.02 87.54 1066.81 85.07 1066.61 82.18 1066.19 79.09 1065.99 76.41 1065.78 73.73 1065.78 65.89 1065.78 61.97 1065.78 58.47 1065.78 55.58 1065.99 51.66 1066.19 48.98 1066.61 46.3 1067.02 44.24 1067.22 43.01 1067.64 40.94 1068.05 39.29 1068.46 37.65 1069.08 35.58 1069.49 34.35 1069.9 32.9 1070.32 31.87 1070.73 30.64 1071.35 29.81 1071.76 28.57 1072.38 27.75 1073 26.92 1073.62 26.51 1074.03 26.3 1074.23 26.1 1074.85 25.89 1075.06 25.89 1075.47 25.48 1076.3 25.48 1077.33 25.48 1078.15 25.89 1078.77 25.89 1079.6 26.3 1080.63 26.72 1081.86 27.54 1083.1 28.16 1084.34 29.19 1085.78 30.43 1087.84 32.28 1089.08 33.73 1090.73 35.58 1092.58 37.65 1094.85 40.74 1095.68 41.98 1096.71 43.83 1097.53 45.07 1098.56 46.92 1099.39 48.78 1100.01 50.02 1100.42 51.05 1100.63 51.46 1100.42 51.46"/>
      <path class="cls-3" d="M1015.52,102.71l-1.65,1.65-2.06,2.88-2.47,5-2.07,4.33-3.3,5.77-3.71,5.57-8,10.1-4.12,4.33-5.36,4.33-3.09,1.86-2.48.82-1.65.21-2.27-.41-1.64-.83L969.54,146l-1.23-2.68-.42-4.53.42-3.3,2.26-7.42L974.7,119l4.74-7.43,5.57-7.21,5.56-5.16,2.48-1.85,1.85-.62h1.65l.21.2V95.7l-.21-1-.62-1.45-.61-1.65-1.24-2.47-1.65-2.68-2.89-3.51-3.3-3.09L984,78l-2.48-1.45-1.85-.62-1.45-.2h0l-.82.2-1.86,1.24L973.87,79l-1.65,2.47L971,83.74l-1.86,3.5-1.24,2.68L966,93.84l-1.44,4.33-1.45,4.74-1.65,5.57-1.23,5.36-.62,2.47-.62,3.1s-.41,5.56-.62,5.56h0s-.21,2.07-.21,3.92a10.82,10.82,0,0,0,.62,3.71,38.12,38.12,0,0,0,1.65,5.36,42.38,42.38,0,0,0,1.86,4.54c1,2.27,1.85,4.12,2.47,5.57,2.06,4.12,2.27,3.91,3.3,6.39a20,20,0,0,0,1.44,2.68,9.76,9.76,0,0,0,1.86,2.47,10.74,10.74,0,0,0,2.89,2.06,3.06,3.06,0,0,0,1.23.62c1,.41,1.86.83,2.48,1a9,9,0,0,0,1.65.42,18.81,18.81,0,0,0,3.09.41h2.89a14.11,14.11,0,0,0,4.12-.83,19.09,19.09,0,0,0,3.92-1.44,21,21,0,0,0,4.33-3.09c1-.83,1.65-1.45,3.09-2.48.41-.2,1.24-.82,2.27-1.44a3.91,3.91,0,0,1,1.85-.62,3.78,3.78,0,0,1,2.68.62l1.45,1.24,2.47,3.09,2.68,2.68,2.27,1.65,1.65,1,2.27,1.44,2.88,1.45,2.06,1,1.24.62,1.24.61.62.21h.61v-1.44l-.82-.83-.82-.82-1.65-2.06-.83-1.24-1.44-2.47-1.24-2.69-1-2.88-1.24-3.51-.62-2.06-.82-3.3-.41-2.27-.42-2.47-.41-3.71-.41-3.51-.21-3.91v-9.9l.21-3.5.21-1.65.2-3.1v-5.36l-.2-1.44-.21-1-.41-.62-.41-.41Z" transform="translate(1.81 8.13)"/>
      <polyline class="cls-3" points="1010.32 77.64 1012.59 72.69 1013.82 69.81 1014.65 67.13 1015.27 65.27 1015.68 62.8 1015.68 60.94 1015.68 58.26 1015.68 56.41 1014.65 54.55 1013.41 53.31 1011.97 52.7 1009.5 52.28 1006.81 52.49 1001.45 53.73 989.29 57.02 974.65 62.39 963.31 67.75 946.82 75.99 920.84 91.25 913.62 95.99 912.18 96.82 913 90.84 914.03 83 915.68 74.14 916.92 68.57 918.16 64.45 919.39 59.5 920.84 55.79 922.08 53.11 922.9 50.63 923.73 48.98 925.17 47.13 927.23 44.45 929.09 42.59 930.32 41.77 931.35 41.36 933.62 41.15 935.48 41.77 933.41 36.41 929.91 27.95 926.61 22.18 922.9 17.65 920.01 15.38 916.72 13.93 914.03 13.93 912.8 13.93 910.53 14.55 908.26 15.58 906.2 17.23 903.93 19.71 901.25 23.63 898.98 28.37 896.92 33.73 895.07 39.71 893.42 46.72 891.97 55.38 890.74 63.83 889.5 75.38 888.67 88.78 888.67 94.14 888.67 101.77 888.67 109.19 888.67 112.28 884.55 114.75 889.5 121.97 894.04 161.35 900.63 200.11 905.58 222.38 910.12 235.37 910.74 236.81 911.56 238.67 912.8 240.73 914.24 243.2 915.48 244.65 916.72 245.88 917.54 246.71 918.36 247.12 919.19 247.33 919.81 247.33 920.63 243.41 920.63 240.11 920.43 236.61 920.22 233.1 920.01 230.42 919.6 226.91 919.39 225.27 918.78 222.79 918.36 219.91 916.92 214.34 915.89 208.98 915.07 202.79 914.65 196.81 914.03 192.28 913 178.67 912.38 169.39 911.15 150.42 910.94 143 920.22 152.07 927.44 159.08 941.25 171.25 953.21 180.94 959.6 185.47 971.15 192.28 984.75 199.29 996.71 204.03 1005.16 206.5 1016.09 209.6 1025.16 211.25 1030.73 212.07 1034.65 212.48 1037.74 212.69 1040.01 212.69 1040.63 212.69 1041.66 212.48 1042.69 212.28 1043.1 212.07 1043.31 211.86 1043.31 211.86 1043.1 211.66 1042.28 211.45 1037.54 210.22 1031.76 208.57 1022.07 205.68 1012.79 202.17 1004.55 198.46 997.95 194.96 990.53 190.42 977.54 180.94 971.15 175.58 961.04 166.09 954.45 158.67 944.75 146.3 936.71 135.37 927.02 121.77 921.87 115.37 918.36 110.42 926.2 105.68 942.69 95.99 959.39 86.72 967.85 83.21 974.86 79.91 979.6 78.06 985.99 75.99 991.76 74.96 996.09 74.34 999.6 74.76 1002.49 75.38 1005.16 77.44 1006.2 78.88 1006.61 80.12 1007.02 81.35 1007.23 82.8 1007.43 82.59 1008.05 81.77 1008.88 80.74"/>
    </g>
  </g>
  <g id="Layer1002">
    <path id="path22" class="cls-4" d="M163.57,222.19l-1.29,1-1.31.94-1.34.91-1.38.86-1.41.82-1.43.77-1.46.73-1.48.68-1.52.62-1.53.58-1.56.53-1.58.48-1.6.43-1.63.37-1.64.32-1.66.26-1.68.2-1.69.15-1.71.09-1.74,0-2.52-.06-2.52-.2-2.49-.32-2.44-.45-2.4-.56-2.36-.69-2.31-.79-2.26-.91-2.2-1-2.14-1.11-2.08-1.22-2-1.32-2-1.41-1.87-1.5-1.81-1.59-1.72-1.67-1.65-1.75-1.56-1.84-1.48-1.9-1.39-2-1.29-2-1.2-2.12-1.1-2.18-1-2.23-.89-2.3-.78-2.35L84.82,195l-.55-2.45-.44-2.48-.32-2.52L83.32,185l-.07-2.56,0-1.22,0-1.19.07-1.18.09-1.17.12-1.16.15-1.16.17-1.15.2-1.14.22-1.13.25-1.12.27-1.11.3-1.1.32-1.1.34-1.08.37-1.07.39-1.06.41-1.05.43-1,.46-1,.48-1,.49-1,.52-1,.55-1,.56-1,.58-.95.31-.48-1.29-.5-1.93-.85-1.89-.92-1.84-1-1.79-1.08-1.75-1.15-1.69-1.22-1.64-1.29L76,145.48l-1.52-1.42L73,142.58,71.55,141l-1.34-1.6-1.28-1.66-1.21-1.71-1.14-1.77-1.07-1.81-1-1.87-.92-1.91-.84-2-.77-2-.68-2-.6-2.07-.51-2.11-.42-2.15-.34-2.17-.24-2.2-.14-2.23,0-2.26.06-2.58.2-2.56.31-2.52L60,97.37l.56-2.44.67-2.4L62,90.18l.89-2.29,1-2.24L65,83.47l1.2-2.11,1.29-2,1.39-2,1.47-1.91,1.57-1.83,1.64-1.76,1.73-1.67,1.8-1.59L79,67.07l2-1.41,2-1.31L85,63.13,87.18,62l2.2-1,2.26-.91,2.3-.8,2.36-.68L98.7,58l2.45-.44,2.48-.33,2.52-.19,2.5-.07h1.41l.67,0,.68,0,.67,0,.67,0,.66.06.67.07.67.08.65.08.66.1.65.1.66.12.64.12.65.13.64.13.64.15.64.16.63.16.63.17.53.15v-.22l.19-2.56.32-2.53.44-2.48.56-2.45.67-2.39.78-2.35.9-2.29,1-2.24,1.1-2.18,1.2-2.11,1.3-2,1.38-2,1.48-1.91,1.56-1.83,1.65-1.76L138.62,24l1.8-1.59,1.88-1.5,1.94-1.41,2-1.32,2.08-1.21,2.14-1.12,2.2-1,2.26-.9,2.31-.8,2.36-.68,2.4-.57,2.45-.45,2.48-.32,2.52-.19,2.55-.07,2.54.07,2.52.19,2.49.32,2.44.45,2.41.57,2.35.68,2.31.8,2.26.9,2.2,1,2.14,1.12,2.08,1.21,2,1.32,1.95,1.41,1.88,1.5L205.4,24l1.72,1.67,1.65,1.76,1.56,1.83,1.48,1.91,1.39,2,1.29,2,1.2,2.11,1.1,2.18,1,2.24.89,2.29.78,2.35.68,2.4.55,2.44.44,2.48.32,2.53.19,2.56V59l.48-.14.63-.17.63-.16.63-.15.64-.14.64-.14.64-.13.65-.12.64-.11.65-.1.65-.1.66-.08.66-.08.66-.07.66-.06.66-.05.67,0,.67,0,.67,0,.67,0h.72l2.51.06,2.51.2,2.49.32,2.44.45,2.41.56,2.35.69,2.31.8,2.26.9,2.2,1,2.14,1.11,2.08,1.22,2,1.32,1.95,1.41,1.88,1.5,1.8,1.59,1.72,1.67L272,73.65l1.56,1.84L275,77.4l1.39,2,1.29,2.05,1.2,2.11,1.1,2.18L281,88l.89,2.29.79,2.35.67,2.39.55,2.45.44,2.48.32,2.53.19,2.56.07,2.58-.05,2.25-.15,2.22-.23,2.2-.34,2.16-.42,2.14-.51,2.11-.59,2.07-.68,2-.76,2-.84,2-.91,1.91-1,1.86-1.07,1.81-1.13,1.76L275,137.76l-1.27,1.66-1.33,1.6-1.4,1.54-1.47,1.49L268,145.47l-1.57,1.35-1.63,1.29-1.69,1.23-1.73,1.15-1.79,1.08-1.83,1-1.88.93-1.92.85-1.25.49.35.52.59,1,.57,1,.55,1,.53,1,.5,1,.49,1,.47,1,.44,1.05.41,1,.4,1.07.38,1.08.34,1.09.33,1.1.3,1.12.28,1.12.25,1.13.23,1.14.2,1.15.17,1.16.15,1.17.13,1.17.09,1.18.07,1.19,0,1.2,0,1.23-.07,2.56-.19,2.56-.32,2.52-.44,2.49-.55,2.44-.67,2.4L258,200l-.89,2.3-1,2.24-1.1,2.17-1.2,2.12-1.29,2-1.39,2-1.48,1.91-1.56,1.83-1.65,1.75-1.72,1.68-1.8,1.58L241,223.15l-2,1.41-2,1.31L235,227.09l-2.15,1.12-2.2,1-2.26.91-2.31.8-2.35.68-2.41.57-2.44.44-2.49.32-2.51.2-2.53.07-1.75,0-1.72-.09-1.7-.15-1.69-.2-1.67-.27-1.65-.32-1.63-.38-1.61-.43-1.59-.48-1.57-.54-1.54-.58-1.52-.64-1.5-.69-1.46-.73-1.44-.78-1.41-.83-1.38-.87-1.35-.91-1.32-1-1.29-1-1.25-1-1.22-1.08-1.18-1.12-1.15-1.15-1.11-1.2-1.07-1.23-1-1.27-.49-.64-.47.6-1,1.25-1.07,1.22-1.11,1.18L167.21,219,166,220.09l-1.21,1.07Z" transform="translate(1.81 8.13)"/>
    <path id="path24" class="cls-5" d="M244.9,152.28a46,46,0,0,1,11.43,30.41c0,25.2-20.23,45.76-45,45.76a45,45,0,0,1-39.25-23.38A45,45,0,0,1,133,228.2c-24.79,0-45-20.56-45-45.76a46,46,0,0,1,11.23-30.19,45.71,45.71,0,0,1-35.48-44.72c0-25.21,20.22-45.76,45-45.76a44.12,44.12,0,0,1,18.5,4c-.14-1.48-.22-3-.22-4.49,0-25.21,20.23-45.77,45-45.77s45,20.56,45,45.77c0,1.52-.08,3-.22,4.5a44.07,44.07,0,0,1,18.38-4c24.79,0,45,20.56,45,45.77a45.72,45.72,0,0,1-35.31,44.68Z" transform="translate(1.81 8.13)"/>
    <path id="path26" class="cls-4" d="M149.87,58.71h44v44.66h43.94v44.75H193.9V192.8h-44V148.13H105.92V103.38h44Z" transform="translate(1.81 8.13)"/>
    <path id="path28" class="cls-6" d="M395,234a9.42,9.42,0,0,1-3.75-1.22c-2-.83-3.92-3.34-4.62-5.39a1.14,1.14,0,0,1-.11-.11c-.39-1.29-.77-2.58-1.13-3.84-.14-.68-.24-1.32-.35-2-.14-1.47-.28-2.91-.42-4.34,0-3.27,0-6.5.07-9.73a36.14,36.14,0,0,1,1.3-7.25,12.44,12.44,0,0,1,4-6.61c.53-.36,1.06-.71,1.59-1a8,8,0,0,1,1-.46,8.41,8.41,0,0,1,1.2-.36,29.26,29.26,0,0,1,3.6-.36c.78.11,1.55.21,2.36.36a12.06,12.06,0,0,1,2.19,1,10.48,10.48,0,0,1,3.36,3.2h.14a.74.74,0,0,1,.14-.22c0-5.42,0-10.84,0-16.26.17-.18.39-.18.63-.29h9.25c.22,0,.36.18.5.33Q416,206.18,416,233a1.15,1.15,0,0,1-.77.29h-8.76l-.32-.32c0-1.15-.07-2.3-.07-3.41a.94.94,0,0,0-.32-.08,11.34,11.34,0,0,1-5.44,4.27A14,14,0,0,1,395,234Z" transform="translate(1.81 8.13)"/>
    <path id="path30" class="cls-6" d="M437.06,234.19A.44.44,0,0,1,437,234a21.39,21.39,0,0,1-4.7-1.08c-.49-.25-1-.5-1.41-.72-.6-.47-1.2-.93-1.77-1.4a8.06,8.06,0,0,1-1.2-1.43c-.56,0-1.83-3.52-2-3.88-.29-1-.53-2-.78-3-.25-2-.5-4-.71-5.92v-.15c0-2.22,0-4.45,0-6.67a6.43,6.43,0,0,1,.21-2.19,22,22,0,0,1,1.06-6,16.41,16.41,0,0,1,1.73-4c.21-.36.42-.68.64-1a.91.91,0,0,1,.21-.15,4.83,4.83,0,0,1,1.87-1.93c0-.36,1.34-.94,1.62-1.22a3.38,3.38,0,0,1,.71-.36c.74-.29,1.48-.58,2.26-.86a33.62,33.62,0,0,1,6.85-.72c1.06.11,2.12.21,3.18.36a28.76,28.76,0,0,1,3.46,1.07c.49.29,1,.58,1.55.86a5,5,0,0,0,1.06.76.25.25,0,0,0,0,.14,12.62,12.62,0,0,1,3.7,6.18,2,2,0,0,1,.15.18,41.73,41.73,0,0,1,.91,5.09,25.63,25.63,0,0,1,.36,4.38c0,2.55-.07,5.1-.11,7.68-.39,1-.07,2.8-.6,3.63-.18.75-.32,1.54-.46,2.33-.14.43-.28.9-.42,1.37a5.89,5.89,0,0,0-.35.89,23.19,23.19,0,0,1-2.3,3.74,5.7,5.7,0,0,0-1.24,1.14,8.44,8.44,0,0,1-2.86,1.66,16.19,16.19,0,0,1-5.26,1.25v.18h-4.94V234h-.21v.18Z" transform="translate(1.81 8.13)"/>
    <path id="path32" class="cls-6" d="M516.27,234.19V234a15.5,15.5,0,0,1-5.3-1.29,5.58,5.58,0,0,1-1.7-.9v-.14c-.67,0-2.11-1.76-2.47-2.08a14.49,14.49,0,0,1-2.4-4.85,16.29,16.29,0,0,1-.95-4.38c0-1.07-.07-2.15-.11-3.23-.46-1,.18-2.55-.24-3.62,0-1.4.07-2.8.14-4.2.07-1,.14-1.94.21-2.87s.21-1.76.35-2.63c.28-1,.57-2.08.85-3.12.25-.64.49-1.29.78-1.9a6.35,6.35,0,0,0,.67-1.33c.53-.72,1.06-1.4,1.62-2.08.5-.43,1-.86,1.55-1.26,0-.39,1.59-.93,2-1.29a5,5,0,0,1,.63-.18.36.36,0,0,1,.18-.14,24.06,24.06,0,0,1,7.84-1.19c1.16.18,3,0,4,.61a12.64,12.64,0,0,1,4.48,2.05,12.37,12.37,0,0,1,3.5,4.59,11.45,11.45,0,0,1,1.09,3.27c0,.07.08.18.15.29.14.93.28,1.9.45,2.87.11,1.61.22,3.23.36,4.85,0,.61.17,4.3-.07,4.55-6.68,0-13.32,0-20,.08-.25.1-.25.21-.36.46a23,23,0,0,0,.14,3.81c0,2.8.53,5.88,2.79,7.75l1.17.54h2.12a8.18,8.18,0,0,1,1-.36,6.23,6.23,0,0,0,2.44-3.2,25.25,25.25,0,0,0,.74-3.66c.07-.14.14-.28.21-.39H533a2.87,2.87,0,0,1,.21.36c-.07.9-.14,1.79-.17,2.73a11.28,11.28,0,0,1-.5,2c-.49,2.33-2.29,6-4.55,7.11,0,.29-1.95,1.11-2.33,1.36a16.1,16.1,0,0,0-2.55.72c-.7.07-1.37.14-2,.25v.18Z" transform="translate(1.81 8.13)"/>
    <path id="path34" class="cls-6" d="M554,234.19V234a38.41,38.41,0,0,1-4.14-.68l-1.83-.65c-1.49-.75-3.6-2.11-4.2-3.8-1.17-1.58-1.28-3.95-1.49-5.82,0-1,0-1.93,0-2.9a1,1,0,0,1,.24-.29c3,0,6,0,9,0,0,1,.11,2,.18,3,.28.79.6,2.34,1.34,2.7,0,.61,2.23,1.4,2.72,1.47h2.4a6.59,6.59,0,0,0,2.16-.83,7.56,7.56,0,0,0,1.52-2A16.21,16.21,0,0,0,562,222c-.1-.47-.17-.94-.24-1.37a4,4,0,0,1-.29-.53c-.21-.22-.39-.44-.56-.65l-1.66-1.26c-1.13-.32-2.23-1-3.39-1.29a2.46,2.46,0,0,0-1.06-.39c0-.15-.81-.33-1-.33a15.74,15.74,0,0,1-2.41-1,17,17,0,0,1-2.26-.82c-1-.72-2.5-1.19-3.28-2.23a7.52,7.52,0,0,1-2.51-3.48,1.24,1.24,0,0,1-.17-.32c-.18-.54-.32-1.08-.46-1.62-.11-.72-.21-1.43-.32-2.15v-1.65c.35-.94.14-2.16.6-3.13a9.32,9.32,0,0,1,2.61-4.59c.71-.57,1.42-1.11,2.16-1.65a24.57,24.57,0,0,1,3-1.26,15.66,15.66,0,0,1,5-.86,24.09,24.09,0,0,1,5.82.25,19.3,19.3,0,0,1,4.49,1.51c.63.47,1.27.93,1.91,1.44a4.13,4.13,0,0,0,.74.82,10,10,0,0,1,1.59,3.09,15.93,15.93,0,0,1,.67,6l-9,.11c-.39-.4-.29-.94-.32-1.48s-.18-1-.25-1.54c-.28-.57-.53-1.15-.77-1.72-.32-.29-.64-.54-1-.79s-.53-.25-.78-.36a15,15,0,0,0-3.35,0,11.22,11.22,0,0,0-2.15,1.26,9.55,9.55,0,0,0-.71,1.11,13,13,0,0,0-.28,1.33c0,.43.07.86.1,1.32a6.46,6.46,0,0,0,.18.76c.14.25.28.5.42.79a7.89,7.89,0,0,0,2.4,1.79,41.28,41.28,0,0,0,5,1.69c1.45.5,2.89,1,4.38,1.58a8.78,8.78,0,0,1,2.26,1.26c.28.18.6.35.92.53a5.15,5.15,0,0,0,.56.43v.15h.11c.42.54.88,1.08,1.34,1.61.7,0,1.48,3.41,1.69,3.88a30.39,30.39,0,0,1,.18,4.38,12.43,12.43,0,0,1-1.24,5,12.28,12.28,0,0,1-2.82,3.38c0,.43-2.54,1.65-3.14,1.86a.2.2,0,0,0-.07.11c-1,.25-1.95.5-2.9.79-.85.07-1.66.14-2.47.25v.18h-4.77V234h-.35v.18Z" transform="translate(1.81 8.13)"/>
    <path id="path36" class="cls-6" d="M606.92,234.19a.46.46,0,0,1-.08-.21c-1.94-.29-4.37-1.22-5.43-3h-.11a7.72,7.72,0,0,1-1.27-2.45c-.64-.79-.85-2.87-1-3.73V220a8.84,8.84,0,0,1,.68-2.72,7.6,7.6,0,0,1,2.93-4.46.64.64,0,0,1,.14-.21,16.84,16.84,0,0,1,4.06-2.05,10.63,10.63,0,0,1,2.29-.71,6.62,6.62,0,0,1,.64-.26c1.7-.32,3.35-1,5-1.29a11.52,11.52,0,0,1,1.13-.36,7,7,0,0,1,.88-.36l1.24-.86a4.12,4.12,0,0,1,.35-.54,6.45,6.45,0,0,0,.46-1.43c0-.72.28-2.91-.28-3.48-.07-.22-.14-.43-.18-.61s-.1-.08-.14-.08c0-.25-.49-.75-.64-1l-.63-.43c-.32-.14-.64-.25-.92-.36-1.48-.25-4.06-.47-5.08,1-.75.47-1,1.66-1.31,2.41,0,.9-.07,1.79-.11,2.73-3.07,0-6.14,0-9.21.07-.07,0-.11-.07-.14-.07,0-.9,0-1.8,0-2.66a13.32,13.32,0,0,1,2.86-7.07c.43-.39.85-.79,1.31-1.15a8.89,8.89,0,0,1,2.51-1.36,10.88,10.88,0,0,1,1.83-.68,14.65,14.65,0,0,1,1.52-.36l2.82-.22c1.24-.39,2.9,0,4.21,0l2.08.22c.57.1,1.13.21,1.7.36a5.61,5.61,0,0,1,1.62.61,7.59,7.59,0,0,1,4.41,3.41c1,1,1.06,2.87,1.52,4.09,0,.54.11,1.07.18,1.61.18,8.9.18,17.91.21,26.82a9.08,9.08,0,0,0,.78,3.51c0,.29.39.9.07,1.12-3.14,0-6.29,0-9.39.07a1.5,1.5,0,0,0-.32-.18c-.18-.32-.36-.65-.5-1s-.24-.86-.35-1.26-.21-1-.28-1.5a1.13,1.13,0,0,0-.39.14c-1,1.47-2.16,3-3.85,3.62a13.66,13.66,0,0,1-4,.94v.14h-3.88Z" transform="translate(1.81 8.13)"/>
    <path id="path38" class="cls-6" d="M327.41,233.29c-.24-.07-.49-.14-.7-.18V179.24l.35-.11h9.82l.53.11q0,26.81.07,53.7a.84.84,0,0,0-.25.28c-3.28,0-6.57,0-9.82.07Z" transform="translate(1.81 8.13)"/>
    <path id="path40" class="cls-6" d="M346.48,233.29a1.08,1.08,0,0,1-.7-.28q-.06-20.08,0-40.1c0-.14.07-.28.11-.39,3.21,0,6.42,0,9.64,0a1.34,1.34,0,0,0,.14.25c0,1.33,0,2.66,0,4a1.51,1.51,0,0,0,.15.26c.07-.29.21-.33.38-.51l1.38-1.83a7.05,7.05,0,0,1,.57-.43c0-.68,2.93-1.9,3.39-2.12a18.45,18.45,0,0,1,5-.79c.88.11,1.8.22,2.72.36.39.11.81.22,1.24.36s.67.29,1,.43a21.49,21.49,0,0,1,2.26,1.8l.56.68c.32.57.64,1.18,1,1.79.14.4.29.79.43,1.19.17,1.08.39,2.12.46,3.23V233a1.4,1.4,0,0,0-.22.25c-3.32,0-6.63,0-9.92,0a1.12,1.12,0,0,1-.18-.21q0-14.76,0-29.44c-.14-.64-.28-1.25-.42-1.86-.15-.25-.29-.51-.43-.76h-.14c-.74-1-1.38-1.11-2.58-1.43a11,11,0,0,0-3.07.36l-.74.43a11.87,11.87,0,0,0-1,.89c-.28.44-.53.9-.78,1.37a6.58,6.58,0,0,0-.28.82c-.11.65-.18,1.3-.25,2,0,9.12,0,18.23,0,27.39,0,.43-.53.46-.85.5-3,0-5.9,0-8.83,0Z" transform="translate(1.81 8.13)"/>
    <path id="path42" class="cls-6" d="M464.89,233.29a.66.66,0,0,1-.53-.39v-40a.61.61,0,0,1,.21-.46H474a.44.44,0,0,1,.21.07c.43,1.29-.49,3.08.29,4.31a5.5,5.5,0,0,0,.74-1.08,3.16,3.16,0,0,0,.67-.79,5.26,5.26,0,0,0,1-1,11.21,11.21,0,0,1,2.93-1.68,12.28,12.28,0,0,1,5.47-1c.85.11,1.7.21,2.58.36a6,6,0,0,1,1.62.61c.43.1,1.7.64,1.84,1.11,1.38.68,2.33,2.73,2.83,4.13a23,23,0,0,1,.7,3.77q0,15.89,0,31.83a1.3,1.3,0,0,0-.36.15H484.8a2.11,2.11,0,0,0-.24-.18c-.08-9.73-.11-19.46-.15-29.15l-.21-1.61c-.14-.33-.24-.65-.35-1a4.66,4.66,0,0,0-1.59-1.47l-.92-.33h-2.43a11.25,11.25,0,0,0-1.24.4,3.47,3.47,0,0,0-.53.29,5.59,5.59,0,0,0-1.62,1.86,1.56,1.56,0,0,1-.32.72c-.18.9-.36,1.79-.5,2.73q0,13.78,0,27.56a.29.29,0,0,0-.14.15c-3.22,0-6.43,0-9.64,0Z" transform="translate(1.81 8.13)"/>
    <path id="path44" class="cls-6" d="M580.43,233.29a1.29,1.29,0,0,1-.14-.18q-.06-20.13,0-40.27a1.13,1.13,0,0,1,.15-.39c3.31,0,6.67,0,10,0a.94.94,0,0,1,.11.18V233a.48.48,0,0,0-.11.15Z" transform="translate(1.81 8.13)"/>
    <path id="path46" class="cls-5" d="M439.18,227.08c-.42-.18-.85-.32-1.24-.46v-.15a3.64,3.64,0,0,1-1.62-1.65h-.11c-.24-.61-.49-1.18-.7-1.76a20.5,20.5,0,0,1-.57-4.41c-.56-3.45-.14-7.14-.14-10.63.28-2.15.21-4.41,1.09-6.42.22-.43.46-.86.71-1.26a4.34,4.34,0,0,1,2.72-1.68c.67,0,2.12-.22,2.65.32l1.09.57c0,.22.22.29.36.36.35.68.7,1.37,1.09,2.08,1.31,4.46,1.13,9.27,1.13,13.86-.07,1.72-.32,3.52-.46,5.24-.14.54-.25,1.11-.35,1.69a7.63,7.63,0,0,1-.92,2.19,8.39,8.39,0,0,1-1,1.25l-1.49.76-2.29.1Z" transform="translate(1.81 8.13)"/>
    <path id="path48" class="cls-5" d="M611.72,227.08c-.46-.28-1.13-.43-1.45-1-1.38-1.39-1.38-3.62-1.38-5.45a5.65,5.65,0,0,1,2.93-4.77c.36-.15.71-.29,1.06-.4,1.87-.75,4-1,5.69-2.23a1.26,1.26,0,0,0,.28.11v8.8a6.33,6.33,0,0,1-1.27,2.8l-1.48,1.29c-.67.21-1.31.47-2,.72Z" transform="translate(1.81 8.13)"/>
    <path id="path50" class="cls-5" d="M399.49,226.19l-.82-.22a4.49,4.49,0,0,1-2.43-2.3c-.28-.28-.18-.86-.46-1.14-.18-.87-.32-1.69-.46-2.52-.11-1.07-.21-2.15-.28-3.23,0-1.9-.07-3.8-.07-5.7s.21-3.56.35-5.32a9.53,9.53,0,0,1,1.48-4.63c0-.68,1.95-1.43,2.37-1.58h2.22c.36.11.71.22,1.06.36l.74.54a4.9,4.9,0,0,1,1.42,2.55c.35.36.21,1.22.49,1.69.11,1,.25,1.93.39,2.94a75.21,75.21,0,0,1-.35,13.17c-.14.61-.29,1.22-.43,1.87-.17.39-.35.79-.49,1.18a3.65,3.65,0,0,1-1.24,1.62c-.28.14-.53.29-.77.43a17.54,17.54,0,0,1-2.72.29Z" transform="translate(1.81 8.13)"/>
    <path id="path52" class="cls-5" d="M513.79,208.13c-.1-.07-.17-.14-.24-.18,0-.5,0-1,0-1.47.25-1.83.14-3.8,1.24-5.38a1.75,1.75,0,0,1,.17-.43.26.26,0,0,1,.18,0c0-.5,1-1.18,1.31-1.47a6.62,6.62,0,0,1,.81-.36,8.07,8.07,0,0,1,3.21,0,8.15,8.15,0,0,1,1.66,1.08c1.66,2.4,1.7,5.24,1.84,8.11a.07.07,0,0,0-.07.07c-3.36,0-6.71,0-10.07.07Z" transform="translate(1.81 8.13)"/>
    <path id="path54" class="cls-6" d="M580.36,188.21c0-.14-.07-.29-.11-.43v-8.33c.11-.25.11-.25.36-.36h9.53l.32.11c0,2.91,0,5.82.07,8.76a.27.27,0,0,0-.07.18C587.07,188.14,583.71,188.18,580.36,188.21Z" transform="translate(1.81 8.13)"/>
    <path id="path56" class="cls-6" d="M395.67,153.07c-1.41,0-2.82-.25-4.23-.32a8.68,8.68,0,0,1-2.05-.61l-.53-.11c-1.56-.68-3.71-1.83-4.66-3.3-.6-.29-.89-1.22-1.35-1.69a24.51,24.51,0,0,1-1.62-4.38,12.35,12.35,0,0,1-.6-2.8c-.11-1.36-.21-2.73-.28-4.05,0-1.83-.07-3.67-.07-5.46.14-2.19.28-4.38.46-6.57a8.67,8.67,0,0,1,.49-2.22,6.28,6.28,0,0,1,.71-2.34c.17-.54.35-1,.56-1.54a10.11,10.11,0,0,1,1.73-2.59,2.74,2.74,0,0,1,.11-.28,2.54,2.54,0,0,0,.77-.76l1.91-1.5c.46-.29.92-.54,1.41-.79s.92-.36,1.42-.54c.74-.22,1.48-.4,2.22-.58l2.3-.32h3.7c.82.11,1.63.22,2.44.36a10.32,10.32,0,0,1,2.86,1c.46,0,1.63.9,1.94,1.11.46.36.92.76,1.38,1.15s.64.79,1,1.19c.49.89,1,1.79,1.48,2.72.14.33.29.69.43,1s.21.78.35,1.18.21,1,.35,1.51c.11.75.21,1.51.36,2.26.1,1.58.21,3.16.35,4.77,0,1.55,0,3.09,0,4.63q-10.17.06-20.34.18v3.88c.11,1.15.22,2.3.36,3.48.1.43.21.86.35,1.29a6.9,6.9,0,0,0,2.47,3.52c.28.11.6.22.92.36h2.08c.53-.25,1.06-.5,1.63-.72.21-.25.42-.46.63-.68.5,0,1.38-2.84,1.45-3.23a21,21,0,0,0,.5-2.51,1.44,1.44,0,0,1,.28-.4c3,0,6,0,9,0l.1.21a22.22,22.22,0,0,1-.84,5.53c-.32.75-.64,1.54-.92,2.33a13.12,13.12,0,0,1-1.7,2.52c-.39.1-1.34,1.25-1.69,1.58s-1,.57-1.49.89a1.88,1.88,0,0,0-.81.36c-.49.15-1,.29-1.41.47s-1.06.21-1.59.36c-.71.07-1.41.14-2.12.25s-1.41,0-2.12.07Z" transform="translate(1.81 8.13)"/>
    <path id="path58" class="cls-6" d="M453.23,153c-.6-.1-1.2-.21-1.76-.28-1-.29-3.15-1.15-3.64-2.16a9.81,9.81,0,0,1-2.12-3.12c-.1-.29-.21-.54-.28-.79-.14-.54-.28-1-.42-1.54-.15-.86-.25-1.72-.36-2.59a16,16,0,0,1,.6-5.67c.29-1.79,1.56-4.23,3.11-5v-.18c1-.5,2.05-1.51,3.21-1.73a20.3,20.3,0,0,1,4.77-1.54,10.5,10.5,0,0,0,1.59-.5c1.2-.32,2.4-.65,3.6-.93a5.24,5.24,0,0,1,.88-.36,11.2,11.2,0,0,0,1.63-1.3,6.74,6.74,0,0,1,.35-.64c.11-.5.21-1,.36-1.44v-1.61c-.15-.51-.25-1-.36-1.51a4.24,4.24,0,0,0-2.5-2.37c-1.38-.11-3.61-.54-4.74.61-1.2.4-1.59,2.55-1.83,3.55,0,.65-.07,1.3-.11,2h-9.15c0-.79,0-1.58,0-2.33a12.65,12.65,0,0,1,1.31-5.14,5.34,5.34,0,0,1,.45-.68c1.17-2.58,4-3.84,6.43-4.7.5-.14,1-.25,1.56-.36.88-.14,1.76-.25,2.64-.36a31.89,31.89,0,0,1,8.87.79c.63.22,1.27.47,1.94.72a13.47,13.47,0,0,1,2.79,1.9l1.2,1.65a6.8,6.8,0,0,0,.71,1.69c.1.47.21.93.35,1.43.11.72.21,1.48.35,2.23q.06,13.19.11,26.42a13.2,13.2,0,0,0,1.06,4.56,1.59,1.59,0,0,0-.07.46c-3.15,0-6.29,0-9.43,0-.57-.18-.78-1.15-1-1.69a10.67,10.67,0,0,0-.61-2.33.11.11,0,0,0-.1,0,9,9,0,0,1-2.37,2.91c0,.32-1.76,1-2,1.22-.6.14-1.2.29-1.77.47a4.22,4.22,0,0,0-1.83.25c-1.13,0-2.26,0-3.36,0Z" transform="translate(1.81 8.13)"/>
    <path id="path60" class="cls-6" d="M327,152.24l-.28-.1q-.06-27-.07-53.92A2.27,2.27,0,0,1,327,98c5.2,0,10.42,0,15.65,0,.1.36.21.75.35,1.15.18,1.07.35,2.15.57,3.23a2.17,2.17,0,0,0,.14.36,54.78,54.78,0,0,0,1.16,5.81,8.19,8.19,0,0,0,.43,2.08,5.67,5.67,0,0,0,.35,1.73c.11,1.07.42,2.15.56,3.23a9.72,9.72,0,0,0,.5,2.11c.18,1.12.35,2.23.56,3.34a24,24,0,0,1,.6,2.62,32.49,32.49,0,0,0,.71,3.56c.35,2.83,1.2,5.67,1.66,8.47,0,0,0,.07.07.11a11,11,0,0,0,.67-2.66c.14-.68.32-1.36.5-2.05.17-1.07.35-2.15.56-3.23.25-.82.28-1.79.6-2.62.32-2.62,1.2-5.24,1.52-7.86.18-.9.39-1.79.6-2.69.53-2.91,1.27-5.92,1.7-8.79a.9.9,0,0,1,.14-.36,30,30,0,0,1,.81-4,7.69,7.69,0,0,1,.92-3.59c5.19,0,10.38,0,15.57,0a2.62,2.62,0,0,0,.18.43Q374,125.2,374,152a.85.85,0,0,0-.14.21c-3.25,0-6.5,0-9.71,0q-.11-21-.18-42a2.39,2.39,0,0,0-.1-.29c-.75,2.26-.92,4.81-1.63,7.11-.42,2.58-1.23,5.17-1.62,7.82a12.53,12.53,0,0,0-.71,3.3,10.64,10.64,0,0,0-.71,3.13c-.52,1.83-.81,3.8-1.3,5.63-.71,3.23-1.41,6.46-2.08,9.69-.22.79-.39,1.58-.57,2.37a8.87,8.87,0,0,1-.85,3.23h-8a1.22,1.22,0,0,0-.25-.07,10.7,10.7,0,0,1-.53-2.37,60.54,60.54,0,0,1-1.59-7.21c-.25-.54-.25-1.29-.49-1.87-.32-1.54-.64-3.05-.92-4.56-.28-.57-.18-1.4-.5-1.9a5.25,5.25,0,0,0-.35-1.69c-.71-3.91-1.8-7.79-2.51-11.7-.49-1-.35-2.47-.84-3.48-.32-2.08-1-4.16-1.28-6.25a3.59,3.59,0,0,1-.24-.53c-.11-.36-.18-.69-.25-1,0,.14-.07.29-.11.47q0,21-.1,42.14l-9.43.11Z" transform="translate(1.81 8.13)"/>
    <path id="path62" class="cls-6" d="M417.5,152.24a2.48,2.48,0,0,1-.18-.25V111.51a1.14,1.14,0,0,1,.11-.11H427s.07,0,.14.07c0,1.47,0,2.94,0,4.45a3.09,3.09,0,0,0,.24.43,17.32,17.32,0,0,1,3-3.8c.46-.36.91-.69,1.41-1,.21-.14.46-.29.71-.43a6.73,6.73,0,0,1,.91-.39c1.42-.26,3.46-.83,4.81-.15,0,3.2,0,6.43,0,9.66a.67.67,0,0,0-.18.25c-1.3,0-2.61-.07-3.92-.07-.63.1-1.27.25-1.87.39a8.8,8.8,0,0,0-3.49,2.48c-.29.47-.53.93-.78,1.4a11.4,11.4,0,0,0-.35,1.25q-.06,13-.11,26a2.91,2.91,0,0,0-.1.28c-3.36,0-6.71,0-10,.08Z" transform="translate(1.81 8.13)"/>
    <path id="path64" class="cls-6" d="M482.54,152.24a3.24,3.24,0,0,0-.42-.35V98.44c.07-.29.07-.36.32-.47h9.81a4.29,4.29,0,0,1,.32.47c0,5.46,0,10.91,0,16.4.14.15.14.18.42.18a8.6,8.6,0,0,1,5.54-4.16c.39-.4,1.63-.4,2.19-.5,1,0,2.05,0,3.11,0,.71.11,1.41.22,2.16.36a10.89,10.89,0,0,1,3.67,1.9v.11l.35.25v.11a6,6,0,0,1,1.66,2.51c.25.25.28.83.46,1.19.11.53.21,1.11.35,1.68s.11,1.22.18,1.83q-.06,15.88,0,31.77a.56.56,0,0,0-.1.14c-3.39,0-6.75,0-10.1,0q-.11-15-.18-30a11.31,11.31,0,0,0-.7-2.08c-1.24-1.61-3-1.72-4.95-1.51-.85.4-1.9.61-2.47,1.44-.32,0-.88,1.33-1,1.69a25.56,25.56,0,0,0-.53,3.05q0,13.41,0,26.81l-.21.65-9.82.1Z" transform="translate(1.81 8.13)"/>
    <path id="path66" class="cls-5" d="M458.07,146.07a3.62,3.62,0,0,1-2.22-1.15,9.14,9.14,0,0,1-.57-.86,8.65,8.65,0,0,1-.35-1c-.14-.68-.25-1.36-.35-2a8.94,8.94,0,0,1,.84-4.17,1.8,1.8,0,0,1,.29-.46l1.05-1.08a13.09,13.09,0,0,1,4.56-1.69c.35-.14.71-.25,1.06-.36a8.32,8.32,0,0,0,1.84-1,2,2,0,0,1,.42,0c0,2.8,0,5.63.07,8.47-.14.5-.25,1-.35,1.54a10.8,10.8,0,0,1-1.56,2.23c-.6.36-1.2.75-1.8,1.14a12.62,12.62,0,0,1-2.93.47Z" transform="translate(1.81 8.13)"/>
    <path id="path68" class="cls-5" d="M391,127.12a4,4,0,0,0-.36-.18c0-3.27.11-6.78,3-8.87a6.37,6.37,0,0,1,2.86-.53,5,5,0,0,1,2.47,1c.21.25.46.5.71.79a5.06,5.06,0,0,0,.35.64c.11.29.21.61.35.94s.22,1,.36,1.47c.1,1.47.24,2.94.39,4.45a.16.16,0,0,0-.07.14l-10,.11Z" transform="translate(1.81 8.13)"/>
    <path id="path70" class="cls-6" d="M513.79,78.84c-.56-.29-1.37,0-1.94-.21a16.86,16.86,0,0,1-6.28-1.76c-.25-.15-.46-.25-.67-.36V76.4a9,9,0,0,1-3.61-4.31c-.17-.64-.35-1.29-.49-1.93s-.14-1.58-.18-2.34c3.22,0,6.47,0,9.71,0,.29.18.39,1.18.5,1.54s.25.47.39.72a4.79,4.79,0,0,1,.42.46l1.2.83c.21.11.43.22.67.36a9.48,9.48,0,0,0,4.24-.07,3.79,3.79,0,0,0,2.26-2,7,7,0,0,0,.71-1.61c.6-2.55.35-5.35.35-8a2,2,0,0,1-.28-.11,12.45,12.45,0,0,1-1.42,1.72c-.42.33-.84.65-1.27,1a3.82,3.82,0,0,0-.6.46c-.53.26-1.06.54-1.59.83a7.74,7.74,0,0,0-1,.36c-.67.11-1.3.21-1.94.36h-1.37c-.78-.15-1.56-.25-2.34-.36-.49-.18-1-.32-1.48-.47-1.23-1-2.93-1.36-3.81-2.83h-.14a8.57,8.57,0,0,0-1.06-1.62c-.39-.86-.78-1.72-1.13-2.58a29.75,29.75,0,0,1-1.24-6.57c-.1-.61-.18-1.19-.25-1.76,0-2.41-.07-4.81-.07-7.22.07-1.79.36-3.58.43-5.34a14.36,14.36,0,0,1,1-4,2.29,2.29,0,0,1,.35-1c.29-.71.6-1.43.92-2.15.5-.75,1-1.47,1.56-2.19.31,0,.84-1.15,1.3-1.15.43-.86,2.19-1.36,3-1.72l1.8-.43c1.41,0,2.89-.07,4.31.07a9.75,9.75,0,0,1,2.29.9,6.29,6.29,0,0,1,2.69,2.26c.56.29.77,1.4,1.23,1.86a1.12,1.12,0,0,1,.18-.21c0-1.15,0-2.3,0-3.41.11-.43.18-.4.46-.58h8.73a3.14,3.14,0,0,1,.56.08.85.85,0,0,0,.14.21q0,20.52,0,41c-.14.86-.25,1.72-.36,2.58-.31.94-.6,1.91-.88,2.88-.39.71-.78,1.43-1.13,2.15-.35.39-.67.79-1,1.22a8.68,8.68,0,0,0-1.52,1.51,13.76,13.76,0,0,1-4.41,2,6.12,6.12,0,0,1-1.59.36c-.92.46-2.26.17-3.21.5-1,0-2,.07-3.08.14Z" transform="translate(1.81 8.13)"/>
    <path id="path72" class="cls-6" d="M376.18,65.85a8.49,8.49,0,0,1-7.84-6.14,15.16,15.16,0,0,1-.85-3.91c0-1,0-1.94,0-2.87a12.47,12.47,0,0,1,.92-4.42A9.19,9.19,0,0,1,373.89,43a6.22,6.22,0,0,1,1.83-.71,52.53,52.53,0,0,1,6.78-1.94,1.27,1.27,0,0,1,.39-.18,12.62,12.62,0,0,0,2.79-1,4,4,0,0,0,1.48-1.69c.11-.43.21-.86.36-1.29V34.58c-.15-.53-.25-1.07-.36-1.61l-.63-1.08a5,5,0,0,0-2.33-1.43c-.78,0-1.56,0-2.3,0-1.13.32-2.44.61-2.89,1.83h-.11a7.31,7.31,0,0,0-.46.93c-.14.47-.25.94-.35,1.4C378,35.3,378,36,378,36.74H369c-.53-.25-.14-3.23-.1-4,.1-.5.21-1,.35-1.51.28-.72.56-1.4.85-2.08.46-.72.95-1.44,1.44-2.12a8,8,0,0,1,.71-.72A8.77,8.77,0,0,1,374.31,25c.67-.69,2.51-1.08,3.42-1.33.6-.15,1.2-.25,1.81-.36,3.67-.22,7.59-.4,11.12.79a5.89,5.89,0,0,1,1.91.9c.6.18,1.05.71,1.58.93v.11a5.27,5.27,0,0,1,1.21,1.29,8.69,8.69,0,0,1,1.41,2.76,3.62,3.62,0,0,0,.28,1.22c.11.79.21,1.58.35,2.37q.06,13.2.11,26.38a14.08,14.08,0,0,0,1.13,4.67.51.51,0,0,0-.14.25c-3.22,0-6.43,0-9.64,0-.5-.5-.57-1.33-.89-1.9,0-.33-.28-2-.6-2.19-.31.32-.38.93-.77,1.11a7.46,7.46,0,0,1-4.06,3.16l-2.58.54c-1.27,0-2.54,0-3.78.07Z" transform="translate(1.81 8.13)"/>
    <path id="path74" class="cls-6" d="M432.47,65.85a10,10,0,0,1-3.71-.9c-.32-.21-.63-.43-.95-.61a4.39,4.39,0,0,1-1.31-1.22,13.66,13.66,0,0,1-2.08-3.73c-.14-.43-.25-.86-.36-1.3-.14-.79-.24-1.57-.35-2.33,0-3.09,0-6.5,1.84-9.15a.25.25,0,0,1,.21-.25,6.38,6.38,0,0,1,3-2.69v-.11c.74-.29,1.48-.72,2.26-.94a.72.72,0,0,1,.24-.18c2.93-.86,5.9-1.93,8.87-2.51.56-.25,1.13-.5,1.69-.72.32-.28.64-.53,1-.79a11.74,11.74,0,0,1,.67-1.14c.07-.33.14-.65.24-1,0-.54,0-1,0-1.55-.14-.64-.28-1.25-.39-1.86-.14-.29-.28-.54-.39-.79h-.1a3.89,3.89,0,0,0-2.44-1.65h-2.68a4.5,4.5,0,0,0-2.33,1.4,12.16,12.16,0,0,0-.68,1.11c-.14.39-.24.79-.35,1.18s0,2.3-.32,2.59c-3,0-6,0-8.93,0a1.14,1.14,0,0,1-.11-.11,24.73,24.73,0,0,1,.14-3.94,31.12,31.12,0,0,1,1.1-3.34,5.5,5.5,0,0,1,.39-.72h.14a.7.7,0,0,1,.35-.61l1-1.29a11.22,11.22,0,0,1,4-2.37c.56-.29,1.23-.32,1.8-.61l2.43-.43c2.33,0,4.74,0,7.07.07a11.1,11.1,0,0,1,2.68.61,10.94,10.94,0,0,1,4.66,2.37c0,.18.32.32.39.5A8.79,8.79,0,0,1,453,30c.11.4.21.83.32,1.26.1.79.21,1.58.35,2.4,0,8.37.07,16.73.11,25.13,0,.83.07,1.65.1,2.51.11.51.22,1,.36,1.55s.42,1.18.67,1.79V65l-9.75.11a5.4,5.4,0,0,1-1-2.84c-.14-.39-.25-.79-.36-1.18a.15.15,0,0,0-.1-.07,12.24,12.24,0,0,1-1.34,1.9,2.62,2.62,0,0,0-1,1c-.6.36-1.2.72-1.76,1.12a27.77,27.77,0,0,1-3.36.79c-1.27,0-2.5,0-3.74.07Z" transform="translate(1.81 8.13)"/>
    <path id="path76" class="cls-6" d="M326.92,65.09l-.25-.14q0-27,0-54h22v.18c.57.14,1.48.07,1.87.47a17.23,17.23,0,0,1,3.71,1.68,26.15,26.15,0,0,0,2.12,1.8c.07.21.11.28.28.36l1.52,2.29A16.66,16.66,0,0,1,359,19.9a2.25,2.25,0,0,0,.17.36c.25,1.19.64,2.44.78,3.66s.39,3.27.11,4.31c-.07,1-.14,1.94-.21,2.94-.29.94-.53,1.87-.78,2.8a7,7,0,0,1-.81,1.76,16,16,0,0,1-2,3.09c-.56.43-1.13.9-1.66,1.36v.15l-1.37.86a17,17,0,0,1-4.42,1.65,1.22,1.22,0,0,0-.35.14c-.74.11-1.45.22-2.15.36l-8.69.22a.61.61,0,0,0-.07.28q-.1,10.56-.14,21.11a.94.94,0,0,0-.18.11c-3.46,0-6.89,0-10.31,0Z" transform="translate(1.81 8.13)"/>
    <path id="path78" class="cls-6" d="M406.37,65.09a1.65,1.65,0,0,0-.31-.18q-.06-27,0-54h10.42q-.06,27,0,54l-.25.11C412.87,65,409.62,65.06,406.37,65.09Z" transform="translate(1.81 8.13)"/>
    <path id="path80" class="cls-6" d="M462.34,65.09a.56.56,0,0,0-.1-.14V24.46a1.61,1.61,0,0,1,.1-.25c3.15,0,6.29,0,9.43,0a.87.87,0,0,1,.25.08,1.53,1.53,0,0,1,.11.25c0,.54-.15,4.09.21,4.27.28-.5.6-1,.92-1.44.95-1.15,2.4-2.65,3.88-3a14.15,14.15,0,0,1,2.79-1,18.23,18.23,0,0,1,6.67.36,5.73,5.73,0,0,1,1.84.9c.78.25,1.41,1.18,2.05,1.72l1.06,1.65a7.9,7.9,0,0,0,.35.87c.11.35.21.75.35,1.14.15.76.29,1.55.43,2.34V65a.08.08,0,0,0-.07.07h-10c-.07,0-.11-.07-.14-.07,0-9.66-.07-19.27-.07-28.89-.11-.65-.22-1.3-.29-1.91a6.08,6.08,0,0,0-.91-1.86c-1.63-1.22-3.36-1.12-5.27-.72l-.95.54a5,5,0,0,0-2,2.83c-.14.83-.28,1.65-.39,2.52q0,13.73,0,27.45a.61.61,0,0,0-.14.11c-3.36,0-6.71,0-10.07.07Z" transform="translate(1.81 8.13)"/>
    <path id="path82" class="cls-5" d="M381,58.92a4.78,4.78,0,0,1-2.05-.86c-1.66-2-1.77-4.81-1.17-7.29.25-.54.5-1,.75-1.54l.84-.86a6.78,6.78,0,0,1,1.66-.94,9.61,9.61,0,0,1,2.65-.82.62.62,0,0,1,.25-.15,5.72,5.72,0,0,0,2.58-1.07,3.57,3.57,0,0,1,.67-.36.85.85,0,0,1,.32,0c0,2.77,0,5.57,0,8.37a8.34,8.34,0,0,1-.71,2.44c-.38.46-.74.93-1.09,1.4l-1.48,1.07c-.32.11-.64.22-1,.36-.77.07-1.55.18-2.29.29Z" transform="translate(1.81 8.13)"/>
    <path id="path84" class="cls-5" d="M437.17,58.92l-1-.22a3.47,3.47,0,0,1-2-2.33,9.18,9.18,0,0,1-.53-4c.08-.51.18-1,.29-1.51a5.17,5.17,0,0,1,.35-.83,6.21,6.21,0,0,1,1.8-2c.81-.36,1.66-.72,2.51-1.07s1.69-.47,2.54-.69A7.16,7.16,0,0,1,443.7,45c0,2.73,0,5.5.07,8.26-.14.54-.25,1.08-.35,1.65a16,16,0,0,0-.71,1.44c-.21.14-.35.21-.35.5h-.14a6.14,6.14,0,0,1-2.69,1.79c-.81.07-1.59.18-2.36.29Z" transform="translate(1.81 8.13)"/>
    <path id="path86" class="cls-5" d="M514.75,56.48a4.17,4.17,0,0,1-2-1c-.67-.32-1.27-1.8-1.55-2.41s-.29-1.11-.43-1.65c-.14-1-.24-1.94-.35-2.87V41.26a11.43,11.43,0,0,1,.25-2.51,11.9,11.9,0,0,1,1.59-6c.24-.25.49-.5.74-.72a7.93,7.93,0,0,1,.92-.47,7.23,7.23,0,0,1,3.49,0l1.24.79.85,1.08c.1.25.21.5.35.79a11.3,11.3,0,0,0,.35,1.08c.11.5.21,1,.36,1.5.14,1.51.38,3,.45,4.53v6.06c-.17,1.29-.31,2.59-.45,3.91a2.54,2.54,0,0,0-.25.58,12,12,0,0,1-.46,1.61l-1.27,1.83c-.36.26-.67.51-1,.76a11.22,11.22,0,0,0-1.24.36c-.56,0-1.09,0-1.62.07Z" transform="translate(1.81 8.13)"/>
    <path id="path88" class="cls-5" d="M337.76,35.41c-.11-.11-.18-.22-.25-.29V19.29l.21-.21a65.27,65.27,0,0,1,6.57.11c.39.1.82.21,1.24.35.21.11.46.22.71.36.35.29.74.58,1.13.9s.52.72.81,1.11c.14.4.28.79.46,1.22.74,1.51.67,3.56.67,5.21-.14.68-.25,1.4-.36,2.12-.14.39-.28.79-.42,1.22-.35.5-.71,1-1.06,1.58a12.53,12.53,0,0,1-2.05,1.47c-.53.14-1.06.28-1.55.43-2.05.07-4.1.14-6.11.25Z" transform="translate(1.81 8.13)"/>
    <path id="path90" class="cls-7" d="M129.14,42.25h50.05V93h50v50.88h-50V194.7H129.14V143.91h-50V93h50Z" transform="translate(1.81 8.13)"/>
    <path id="path92" class="cls-7" d="M129.14,42.25h50.05V93h50v50.88h-50V194.7H129.14V143.91h-50V93h50Z" transform="translate(1.81 8.13)"/>
  </g>
</svg>
