<svg id="Capa_1" enable-background="new 0 0 512 512" height="50" viewBox="0 0 512 512" width="50" xmlns="http://www.w3.org/2000/svg"><g><g><path clip-rule="evenodd" d="m42.605 460.696 25.468-19.986-9.852-42.622-30.115-8.33-25.438 19.986c-3.029 2.355-3.558 6.741-1.176 9.743l31.35 40.031c2.381 3.003 6.763 3.533 9.763 1.178z" fill="#eceaed" fill-rule="evenodd"/></g><g><path clip-rule="evenodd" d="m146.595 510.529 19.998-15.718c3-2.355 3.529-6.741 1.176-9.743l-40.496-51.658-22.968 1.354-7.94 22.93 40.467 51.658c2.352 3.002 6.763 3.532 9.763 1.177z" fill="#eceaed" fill-rule="evenodd"/></g><g><path clip-rule="evenodd" d="m120.568 405.741 145.516-30.347-54.73-95.693-72.729-66.905-64.082 134.223-1.735 48.773z" fill="#eceaed" fill-rule="evenodd"/></g><g><path clip-rule="evenodd" d="m300.698 381.752c10.087-7.947 11.852-22.694 3.941-32.79l-131.194-167.367c-7.911-10.096-22.645-11.892-32.732-3.944-10.087 7.918-11.881 22.665-3.941 32.761l1.853 2.384 127.458 162.598 1.882 2.384c7.912 10.096 22.646 11.892 32.733 3.974z" fill="#ffe07d" fill-rule="evenodd"/></g><g><path clip-rule="evenodd" d="m394.189 84.755c13.763-12.422 34.614-15.777 47.495-2.384 14.204 14.717 14.204 38.795.029 53.512l-5.764 5.71-42.261 41.915c-1.794 1.442-2.706 2.237-3.617 2.266-.912-.029-1.823-.824-3.647-2.266l-42.231-41.915-5.764-5.71c-14.204-14.717-14.204-38.795 0-53.512 12.881-13.393 33.732-10.037 47.495 2.384 2.559 2.296 3.441 3.444 4.147 3.444.677-.001 1.56-1.149 4.118-3.444zm-35.849 155.121c64.994 17.543 131.899-20.987 149.427-86.067 17.527-65.051-20.969-132.016-85.963-149.559-65.023-17.543-131.929 20.987-149.456 86.038-9.587 35.616-2.412 71.791 16.734 100.137 5.647 15.071-2.412 32.731-14.91 45.506 7.646 7.741 46.554 16.16 63.2-3.827 6.616 3.18 13.615 5.8 20.968 7.772z" fill="#ffe07d" fill-rule="evenodd"/></g><g><path clip-rule="evenodd" d="m393.689 183.508 42.261-41.915 5.764-5.71c14.175-14.717 14.175-38.795-.029-53.512-12.881-13.393-33.732-10.037-47.495 2.384-2.559 2.296-3.441 3.444-4.117 3.444-.706 0-1.588-1.148-4.147-3.444-13.763-12.422-34.614-15.777-47.495-2.384-14.204 14.717-14.204 38.795 0 53.512l5.764 5.71 42.231 41.915c1.823 1.442 2.735 2.237 3.647 2.266.911-.029 1.822-.823 3.616-2.266z" fill="#ff8086" fill-rule="evenodd"/></g><g><path clip-rule="evenodd" d="m441.714 135.883c14.175-14.717 14.175-38.795-.029-53.512-9.117-9.478-22.233-10.567-34.026-5.975.529.471 1.059.971 1.559 1.501 14.205 14.717 14.205 38.825 0 53.542l-5.764 5.71-31.879 31.642 14.852 14.717c1.823 1.442 2.735 2.237 3.647 2.266.912-.029 1.823-.824 3.617-2.266l42.261-41.915z" fill="#e5646e" fill-rule="evenodd"/></g><g><path clip-rule="evenodd" d="m507.767 153.809c17.527-65.051-20.969-132.016-85.963-149.559-13.44-3.65-26.968-4.857-40.114-3.974.029.029.059.029.088.029 65.023 17.543 103.52 84.507 85.992 149.588-13.91 51.629-58.877 86.538-109.343 90.012 64.995 17.455 131.841-21.046 149.34-86.096z" fill="#ffd064" fill-rule="evenodd"/></g><g><path clip-rule="evenodd" d="m42.605 460.696 25.468-19.986-4.705-6.005-.029-.029-12.175-15.512-25.44 19.986c-3 2.355-7.382 1.825-9.734-1.148l16.851 21.517c2.382 3.002 6.764 3.532 9.764 1.177z" fill="#dad8db" fill-rule="evenodd"/></g><g><path clip-rule="evenodd" d="m120.568 405.741 145.516-30.347-14.969-19.103-.059-.059-1.853-2.355-145.516 30.318 9.117 11.627z" fill="#dad8db" fill-rule="evenodd"/></g><g><path clip-rule="evenodd" d="m267.966 377.778c7.911 10.096 22.645 11.892 32.732 3.974 10.087-7.947 11.852-22.694 3.941-32.79l-16.881-21.517c7.911 10.096 6.146 24.843-3.941 32.761-10.058 7.889-24.733 6.152-32.673-3.885v.029l14.94 19.044z" fill="#ffd064" fill-rule="evenodd"/></g><g><path clip-rule="evenodd" d="m111.745 477.327 30.909-24.284-15.381-19.633-30.908 24.284z" fill="#dad8db" fill-rule="evenodd"/></g><g><path clip-rule="evenodd" d="m96.365 457.694 30.909-24.284.529-.412c4.823-3.768 5.647-10.803 1.882-15.63l-9.117-11.627-46.025-58.722-9.117-11.627c-3.764-4.827-10.793-5.651-15.616-1.884l-31.968 25.108c-4.823 3.768-5.676 10.803-1.882 15.63l12.146 15.512 39.967 50.952 12.146 15.512c3.764 4.798 10.793 5.651 15.616 1.884z" fill="#ff8086" fill-rule="evenodd"/></g><g><path clip-rule="evenodd" d="m96.365 457.694 30.909-24.284.529-.412c4.823-3.768 5.647-10.803 1.882-15.63l-9.117-11.627-7.764-9.92c3.764 4.827 2.911 11.862-1.882 15.63l-31.997 25.108c-4.764 3.768-11.764 2.943-15.557-1.825l.029.029 4.676 5.946 12.146 15.512c3.764 4.798 10.793 5.651 15.616 1.884z" fill="#e5646e" fill-rule="evenodd"/></g></g></svg>