<svg id="Capa_1" style="enable-background:new 0 0 612 612;" height="18px" viewBox="0 0 512.003 512.003" width="18px" xmlns="http://www.w3.org/2000/svg"><g><path fill="currentColor" d="m483.614 256.006 26.997-58.252c3.048-6.576.958-14.39-4.965-18.566l-52.478-37.004-5.836-63.939c-.657-7.207-6.367-12.917-13.574-13.574l-63.937-5.835-37-52.476c-4.175-5.923-11.991-8.011-18.565-4.966l-58.25 26.995-58.253-26.997c-6.574-3.046-14.389-.957-18.566 4.965l-37.003 52.478-63.939 5.835c-7.207.657-12.917 6.367-13.575 13.574l-5.834 63.937-52.476 37c-5.923 4.176-8.014 11.99-4.966 18.566l26.995 58.249-26.997 58.252c-3.047 6.576-.958 14.39 4.965 18.566l48.207 33.993-53.346 124.277c-2.421 5.64-1.162 12.185 3.177 16.523 4.339 4.34 10.884 5.597 16.523 3.178l124.274-53.348 33.988 48.205c4.176 5.923 11.99 8.011 18.566 4.966l58.25-26.995 58.251 26.997c2.03.94 4.178 1.393 6.301 1.392 4.753 0 9.378-2.263 12.266-6.356l37.004-52.478 63.939-5.836c7.207-.657 12.917-6.367 13.574-13.574l5.835-63.937 52.476-37c5.924-4.176 8.014-11.99 4.966-18.565zm-30.142 6.308 24.655 53.201-47.912 33.782c-3.594 2.533-5.895 6.517-6.294 10.896l-5.329 58.399-58.401 5.331c-4.379.399-8.361 2.7-10.896 6.293l-33.786 47.913-53.205-24.657c-2-.927-4.153-1.391-6.307-1.391-2.153 0-4.307.464-6.307 1.391l-53.203 24.655-33.782-47.912c-4.084-5.792-11.662-7.934-18.176-5.141l-100.927 43.326 43.324-100.929c2.795-6.513.652-14.092-5.14-18.176l-47.914-33.786 24.658-53.205c1.854-4.001 1.854-8.614 0-12.615l-24.656-53.201 47.912-33.782c3.594-2.533 5.895-6.517 6.294-10.896l5.329-58.399 58.402-5.331c4.379-.399 8.362-2.7 10.896-6.293l33.785-47.913 53.206 24.657c4.001 1.854 8.614 1.854 12.614 0l53.202-24.655 33.782 47.912c2.533 3.594 6.517 5.895 10.896 6.294l58.399 5.329 5.331 58.401c.399 4.379 2.7 8.361 6.293 10.896l47.914 33.786-24.658 53.205c-1.853 4-1.853 8.614.001 12.615z"/><circle cx="256.001" cy="384.947" r="15"/><path fill="currentColor" d="m257.713 97.073c-42.167-.844-78.431 29.984-84.256 71.725-.533 3.819-.803 7.725-.803 11.605 0 8.284 6.716 15 15 15s15-6.716 15-15c0-2.499.173-5.01.515-7.46 3.726-26.697 26.892-46.465 53.94-45.876 27.811.56 50.724 22.732 52.165 50.477.768 14.804-4.413 28.858-14.589 39.576-10.182 10.724-23.92 16.63-38.685 16.63-8.284 0-15 6.716-15 15v71.47c0 8.284 6.716 15 15 15s15-6.716 15-15v-57.8c17.277-3.108 33.048-11.591 45.441-24.644 15.896-16.743 23.99-38.686 22.791-61.788-2.25-43.376-38.058-78.04-81.519-78.915z"/></g></svg>