<svg id="Layer_1" data-name="Layer 1" xmlns="http://www.w3.org/2000/svg" viewBox="0 0 1024 1024"><defs><style>.cls-1,.cls-3{fill:#fff;}.cls-2{fill:#e30016;}.cls-2,.cls-3,.cls-4{fill-rule:evenodd;}</style></defs><title>pmiku</title><rect class="cls-1" width="1024" height="1024"/><path id="path22" class="cls-2" d="M492.72,625.23l-3,2.27-3,2.18-3.1,2.09-3.16,2-3.24,1.88L474,637.41l-3.36,1.67-3.42,1.56-3.48,1.45-3.54,1.33-3.58,1.22-3.64,1.1-3.69,1-3.74.86-3.77.73-3.82.6-3.86.47-3.9.34-3.93.21-4,.07-5.82-.15-5.8-.45-5.71-.74-5.63-1-5.53-1.3-5.43-1.57L383,642.92l-5.19-2.09-5.07-2.33-4.93-2.57L363,633.12l-4.64-3-4.48-3.25-4.32-3.45-4.15-3.66-4-3.85-3.79-4-3.6-4.22-3.39-4.39-3.2-4.55-3-4.72-2.76-4.87-2.53-5-2.3-5.15-2.06-5.28-1.8-5.4-1.55-5.51-1.28-5.63-1-5.71-.73-5.81-.44-5.89-.15-5.89,0-2.81.1-2.73.15-2.71.22-2.7.28-2.67.33-2.66.4-2.64.46-2.63.51-2.6.57-2.59.63-2.55.68-2.54.73-2.51.79-2.5.84-2.46.9-2.45,1-2.41,1-2.39,1-2.35,1.1-2.34,1.15-2.3L322,478l1.25-2.24,1.29-2.21,1.34-2.18.71-1.11-3-1.15-4.43-1.95L314.8,465l-4.24-2.3-4.13-2.48-4-2.65-3.9-2.81-3.77-3-3.65-3.12-3.51-3.27L284.21,442,281,438.46l-3.09-3.69L274.93,431,272.15,427,269.52,423l-2.46-4.18-2.3-4.29-2.12-4.4-1.94-4.5L258.94,401l-1.56-4.69L256,391.53l-1.18-4.86-1-4.93-.77-5-.55-5.07-.33-5.12-.12-5.2.15-6,.45-5.89.73-5.81,1-5.71,1.28-5.63,1.55-5.51,1.8-5.4,2.05-5.28,2.3-5.15,2.53-5,2.76-4.87,3-4.72,3.19-4.55,3.4-4.39,3.59-4.22,3.79-4,4-3.85,4.15-3.66,4.31-3.45,4.49-3.25,4.64-3,4.79-2.81,4.93-2.57,5.06-2.34,5.2-2.08,5.31-1.83,5.43-1.58,5.53-1.3,5.62-1,5.72-.74,5.79-.45,5.76-.15H368l1.57,0,1.55.06,1.56.07,1.54.1,1.54.12,1.53.13,1.53.16,1.53.18,1.52.2,1.5.22,1.51.24,1.5.26,1.49.28,1.49.3,1.48.31,1.47.34,1.47.36,1.45.38,1.46.39,1.2.35v-.52l.44-5.89.73-5.81,1-5.72,1.29-5.62,1.54-5.52,1.81-5.4,2.05-5.28,2.3-5.15,2.53-5,2.76-4.87,3-4.71,3.19-4.56,3.39-4.39,3.6-4.22,3.79-4,4-3.85,4.15-3.65,4.32-3.46,4.48-3.24,4.64-3,4.79-2.8,4.93-2.57,5.07-2.34,5.2-2.09,5.31-1.83,5.42-1.58,5.53-1.3,5.63-1,5.71-.75,5.8-.45,5.86-.15,5.87.15,5.8.45,5.71.75,5.63,1,5.53,1.3,5.43,1.58,5.31,1.83,5.19,2.09,5.07,2.34,4.93,2.57,4.79,2.8,4.64,3,4.48,3.24,4.32,3.46L589,169l4,3.85,3.79,4,3.6,4.22,3.4,4.39,3.19,4.56,3,4.71,2.75,4.87,2.54,5,2.29,5.15,2.06,5.28,1.8,5.4,1.55,5.52,1.28,5.62,1,5.72.73,5.81.44,5.89,0,.59,1.12-.32L629,249l1.45-.37,1.45-.35,1.47-.34,1.47-.31,1.48-.3,1.48-.27,1.49-.26,1.49-.23,1.5-.22,1.51-.2,1.51-.17,1.53-.16,1.51-.14,1.53-.11,1.54-.1,1.54-.07,1.53-.05,1.56,0h1.66l5.76.15,5.8.45,5.71.75,5.63,1,5.53,1.3,5.42,1.58,5.32,1.83,5.19,2.09,5.07,2.34,4.93,2.57,4.79,2.8,4.64,3,4.48,3.24,4.32,3.46,4.15,3.65,4,3.85,3.79,4,3.59,4.22,3.4,4.39,3.19,4.56,3,4.71,2.75,4.87,2.54,5,2.29,5.15L765,321.6l1.81,5.4,1.55,5.52,1.28,5.62,1,5.72.73,5.81.44,5.89.15,5.94-.12,5.18-.33,5.11-.55,5.06-.76,5-1,4.92L768,391.6l-1.36,4.76L765.1,401l-1.75,4.59-1.93,4.48-2.11,4.39L757,418.78,754.58,423,752,427l-2.78,3.94-2.92,3.81-3.08,3.68L740,442l-3.36,3.42-3.5,3.27-3.62,3.12-3.76,3-3.88,2.81-4,2.65-4.11,2.48L709.54,465l-4.32,2.14-4.42,1.95-2.88,1.13.79,1.21,1.36,2.19,1.32,2.22,1.26,2.26,1.22,2.29,1.17,2.32,1.12,2.35,1.07,2.38,1,2.4,1,2.43.92,2.46.86,2.49.8,2.51.75,2.53.7,2.57.63,2.58.58,2.6.52,2.63.47,2.64.4,2.67.34,2.69.28,2.7.23,2.72.15,2.74.1,2.75,0,2.84-.15,5.88-.44,5.89-.73,5.81-1,5.72-1.28,5.62-1.54,5.51L710,574.25l-2.06,5.28-2.29,5.14-2.53,5-2.76,4.86-3,4.72-3.19,4.56-3.4,4.39-3.6,4.22-3.79,4-4,3.84L675.29,624,671,627.43l-4.49,3.25-4.64,3-4.78,2.81-4.93,2.57-5.07,2.34-5.2,2.08-5.31,1.84-5.42,1.57-5.54,1.3-5.62,1-5.72.74-5.79.45-5.83.15-4-.07-4-.21-3.92-.34-3.89-.48-3.84-.61-3.79-.74-3.76-.87-3.71-1-3.66-1.11-3.61-1.23-3.55-1.35-3.49-1.47L554,639.53l-3.37-1.68-3.31-1.8-3.25-1.9-3.18-2-3.1-2.11-3-2.2-3-2.31-2.88-2.39-2.8-2.49-2.72-2.58-2.64-2.66-2.56-2.76-2.46-2.83-2.38-2.91-1.14-1.49-1.07,1.39-2.38,2.89-2.46,2.8-2.55,2.72-2.64,2.63-2.71,2.56-2.8,2.46Z" transform="translate(0.5 0.5)"/><path id="path24" class="cls-3" d="M679.9,464.35a105.84,105.84,0,0,1,26.3,70c0,58-46.54,105.31-103.61,105.31-38.68,0-72.52-21.74-90.32-53.82-17.88,31.76-51.55,53.24-90,53.24-57.06,0-103.61-47.31-103.61-105.31a105.89,105.89,0,0,1,25.85-69.47c-46.58-10.28-81.66-52.56-81.66-102.92,0-58,46.54-105.31,103.61-105.31A101.48,101.48,0,0,1,409,265.38c-.33-3.4-.51-6.85-.51-10.34,0-58,46.55-105.32,103.61-105.32S615.76,197,615.76,255c0,3.49-.18,7-.51,10.36a101.44,101.44,0,0,1,42.29-9.2c57.07,0,103.61,47.31,103.61,105.32,0,50.2-34.87,92.39-81.25,102.83Z" transform="translate(0.5 0.5)"/><path id="path26" class="cls-2" d="M461.2,249H562.52V351.82H663.65v103H562.52V557.6H461.2V454.81H360.07v-103H461.2Z" transform="translate(0.5 0.5)"/><path id="path38" class="cls-4" d="M689.86,866.88a21,21,0,0,0-2.17-.55V700.53c.33-.11.65-.22,1.09-.33H719l1.63.33q0,82.51.21,165.24a3.12,3.12,0,0,0-.76.89c-10.1,0-20.21.11-30.21.22Z" transform="translate(0.5 0.5)"/><path id="path60" class="cls-4" d="M461.38,867a7.35,7.35,0,0,1-.87-.33q-.17-83-.22-165.9a6,6,0,0,1,1-.78c16,0,32.06,0,48.14.11.33,1.11.65,2.32,1.09,3.54.54,3.31,1.08,6.62,1.74,9.94a6.44,6.44,0,0,0,.43,1.1,166.26,166.26,0,0,0,3.59,17.9,25.36,25.36,0,0,0,1.3,6.4,17.44,17.44,0,0,0,1.09,5.3c.32,3.32,1.3,6.63,1.74,10,.54,1.87.54,5,1.52,6.51.54,3.43,1.08,6.85,1.74,10.27,1.08,2.21,1,5.53,1.84,8.07A93.51,93.51,0,0,0,527.67,790c1.08,8.73,3.69,17.45,5.1,26.07,0,.11.11.22.22.33a34.74,34.74,0,0,0,2.07-8.17c.43-2.1,1-4.2,1.52-6.3.54-3.31,1.08-6.63,1.74-9.94.76-2.54.86-5.52,1.84-8.06,1-8.07,3.7-16.13,4.68-24.19.54-2.76,1.19-5.52,1.84-8.29,1.63-8.94,3.91-18.22,5.22-27.06a3.51,3.51,0,0,1,.43-1.1,96.16,96.16,0,0,1,2.5-12.26c.44-3.65.65-8.07,2.83-11,16,0,32,0,47.92.11a7.43,7.43,0,0,0,.54,1.33Q606,783.77,606,866.12a2.48,2.48,0,0,0-.43.66c-10-.11-20-.11-29.88-.11q-.33-64.62-.55-129.12a6.36,6.36,0,0,0-.32-.89c-2.28,7-2.83,14.8-5,21.87-1.31,8-3.8,15.91-5,24.08-1.3,2.76-1.74,7.07-2.17,10.16-1.31,2.66-1.85,6.63-2.18,9.61-1.63,5.64-2.5,11.71-4,17.35-2.17,9.94-4.34,19.88-6.41,29.82-.65,2.43-1.19,4.86-1.74,7.29-.32,2.43-1.08,8.06-2.6,9.94H521a2.85,2.85,0,0,0-.76-.22,33.28,33.28,0,0,1-1.63-7.29,190.14,190.14,0,0,1-4.89-22.2c-.76-1.66-.76-4-1.52-5.75-1-4.75-2-9.38-2.83-14-.87-1.77-.54-4.31-1.52-5.86-.22-1.43-.33-4-1.09-5.19-2.17-12-5.54-24-7.71-36-1.52-3.2-1.09-7.62-2.61-10.71-1-6.41-2.93-12.81-3.91-19.22a10.2,10.2,0,0,1-.76-1.66c-.33-1.1-.55-2.1-.76-3.09-.11.44-.22.88-.33,1.44q-.17,64.77-.33,129.67l-29,.33Z" transform="translate(0.5 0.5)"/><path id="path76" class="cls-4" d="M304,866.64a7.2,7.2,0,0,0-.76-.44Q303.12,783,303.17,700h67.59v.55c1.74.45,4.56.22,5.76,1.44,4.13,1,7.71,3.31,11.41,5.19,0,.33,6.3,5.41,6.52,5.52.21.67.32.89.87,1.11,1.52,2.32,3,4.64,4.67,7.07a51.36,51.36,0,0,1,2.82,6.74,10.18,10.18,0,0,0,.55,1.1c.76,3.64,1.95,7.51,2.39,11.27.11,3.31,1.19,10,.32,13.25-.21,3-.43,6-.65,9.06-.87,2.87-1.63,5.74-2.39,8.61-.54,1.44-1.52,4.42-2.5,5.42-1.52,3.53-3.91,6.4-6.19,9.5-1.74,1.32-3.48,2.76-5.11,4.19v.44L385,793.07a52.11,52.11,0,0,1-13.58,5.09,3.33,3.33,0,0,0-1.09.44c-2.28.33-4.45.66-6.63,1.1l-26.73.67a2.07,2.07,0,0,0-.21.88c-.22,21.65-.33,43.3-.44,65a2.31,2.31,0,0,0-.54.33c-10.65,0-21.19,0-31.73.11Z" transform="translate(0.5 0.5)"/><path id="path88" class="cls-3" d="M337.4,775.29c-.33-.33-.55-.66-.76-.88V725.7l.65-.66c6.63,0,13.69-.34,20.21.33,1.2.33,2.5.66,3.8,1.1.66.33,1.42.66,2.18,1.11,1.08.88,2.28,1.76,3.47,2.76.77,1.1,1.63,2.21,2.5,3.42.44,1.22.87,2.43,1.42,3.76,2.28,4.64,2.06,10.93,2.06,16-.43,2.1-.76,4.31-1.09,6.52-.43,1.21-.86,2.43-1.3,3.75-1.09,1.55-2.17,3.21-3.26,4.87a36.94,36.94,0,0,1-6.3,4.52c-1.63.44-3.26.89-4.78,1.33-6.31.22-12.61.44-18.8.77Z" transform="translate(0.5 0.5)"/></svg>