<?xml version="1.0" encoding="utf-8"?>
<!-- Generator: Adobe Illustrator 24.0.2, SVG Export Plug-In . SVG Version: 6.00 Build 0)  -->
<svg version="1.1" id="Layer_1" xmlns="http://www.w3.org/2000/svg" xmlns:xlink="http://www.w3.org/1999/xlink" x="0px" y="0px"
	 viewBox="0 0 500 500" style="enable-background:new 0 0 500 500;" xml:space="preserve">
<style type="text/css">
	.st0{fill:#FFFFFF;}
	.st1{fill-rule:evenodd;clip-rule:evenodd;fill:#064EA1;}
	.st2{fill-rule:evenodd;clip-rule:evenodd;fill:#605E5F;}
	.st3{fill-rule:evenodd;clip-rule:evenodd;fill:#26983A;}
	.st4{fill-rule:evenodd;clip-rule:evenodd;}
</style>
<rect class="st0" width="500" height="500"/>
<g>
	<path class="st1" d="M122.1,144c14.6-7.5,30.8-10.4,44.7,0.2h3.4c2.3-5,5-9.7,8.2-14.1H128C125.2,134.3,123.2,139,122.1,144z"/>
	<path class="st1" d="M174.7,79.4C217.8,51,272,46.6,322.9,79.4L174.7,79.4z"/>
	<path class="st1" d="M151.6,97.6l194.5,0.3c6.5,7,10.5,11.8,15.1,18.6H247c-17.4-7.9-35.1-7.7-51.7,0l-58.8-0.1
		C140.7,109.4,145.8,103.1,151.6,97.6z"/>
	<path class="st1" d="M264.1,130.1h105.2c2.9,4.2,5,8.8,6.2,13.7l-63.3,0.2c-12.4-8.5-26.1-8.2-37.6,0h-2.2
		C270.1,139.1,267.4,134.4,264.1,130.1z"/>
	<path class="st1" d="M320.5,152.7l58.3,0.2c1.7,3.1,2.7,6.6,2.9,10.2l-26.2,0.1c-10.2-6.2-20.6-7.4-30.1-0.8h-0.5
		C324.2,158.8,322.7,155.5,320.5,152.7z"/>
	<path class="st1" d="M358.9,167.1h23.3c1,1.7,1.5,3.7,1.5,5.7l-22.1,0.1C361.4,170.8,360.4,168.7,358.9,167.1z"/>
	<polygon class="st2" points="112.2,191.7 385.4,191.7 385.4,196.3 112.2,196.4 	"/>
	<path class="st3" d="M114.4,214.4l66-0.1c2.3,1.5,4.1,3.6,5.4,6h-70.5C114.6,218.4,114.3,216.4,114.4,214.4z"/>
	<path class="st3" d="M115.8,224h74.7l8.5,9.1l180,0.1c0.1,1.9-0.4,3.8-1.4,5.4l-173.8,0.1c-1.2-1.3-2.3-2.7-3.4-4.1h-81.8
		C117.4,231.1,116.4,227.6,115.8,224z"/>
	<path class="st3" d="M122,243.4l253.4,0c-0.7,3.5-2.1,6.8-4.1,9.7L219.5,253l3.5,4.2l-94.8-0.1C125.4,252.9,123.3,248.3,122,243.4z
		"/>
	<path class="st3" d="M136.6,270.9l99.5,0l-8.9-9l139.4,0.1c-1.9,4.4-5.2,9.2-8.9,13.8L242,276.2l14,13.9l89.3,0.1
		c-6.8,7.4-14.7,13.6-23.4,18.6l-47.4-0.1l15.2,15.1c-44.1,14.1-83.2,4.7-115.3-15.9l98.7,0.1L256,290.1l-104.4-0.6
		C145.8,284,140.8,277.7,136.6,270.9z"/>
	<path class="st4" d="M119.4,366.6H145c3.8-0.1,7.6,0.2,11.3,0.7c4.9,0.8,9.2,3.8,11.6,8.1c1.3,2.3,2,5,2,7.7c0,3-0.8,5.9-2.4,8.4
		c-1.6,2.5-3.9,4.5-6.6,5.8c3.9,1.2,6.9,3.2,9,6c2.1,2.9,3.2,6.3,3.1,9.9c0,3-0.7,6-2,8.7c-1.2,2.7-3.2,5-5.6,6.8
		c-2.6,1.8-5.6,2.8-8.7,3.1c-2.1,0.2-7.3,0.4-15.6,0.4h-21.9V366.6L119.4,366.6z M132.4,377.5v15.1h8.5c5,0,8.2-0.1,9.4-0.2
		c2-0.1,3.8-1,5.2-2.3c1.3-1.4,2-3.2,1.9-5.1c0.1-1.8-0.5-3.5-1.6-4.9c-1.1-1.3-2.7-2-4.9-2.3c-1.3-0.2-5-0.2-11-0.2H132.4z
		 M132.4,403.5v17.6h12c4.7,0,7.6-0.1,8.9-0.4c1.8-0.3,3.5-1.2,4.7-2.6c1.3-1.6,1.9-3.6,1.8-5.6c0.1-1.8-0.4-3.5-1.4-5
		c-1-1.4-2.4-2.5-4-3c-1.8-0.6-5.6-0.9-11.5-0.9L132.4,403.5z M183.8,432.1v-65.6h19.4l11.4,44.8l11.3-44.7h19.5v65.6h-12l0-51.6
		l-12.6,51.6h-12.4l-12.6-51.6l0,51.6L183.8,432.1z M258.6,432.1v-65.6h13v29.1l26.1-29.1h17.4l-24.2,25.5l25.4,40.1h-16.7
		L282,401.4l-10.4,11v19.8L258.6,432.1z M352.8,408.1V397h27.8v26.2c-2.7,2.7-6.6,5.1-11.8,7.1c-5,2-10.3,3.1-15.6,3.1
		c-6.7,0-12.5-1.4-17.5-4.3c-4.9-2.9-8.8-7.2-11.2-12.4c-2.5-5.5-3.8-11.5-3.8-17.5c-0.1-6.3,1.3-12.6,4.2-18.2
		c2.7-5.2,7-9.5,12.3-12.2c4.1-2.2,9.2-3.3,15.3-3.3c7.9,0,14.2,1.7,18.6,5.1c4.5,3.4,7.3,8.2,8.6,14.2l-12.9,2.5
		c-0.8-3-2.6-5.7-5.1-7.7c-2.5-1.9-5.6-2.8-9.3-2.8c-5.6,0-10.1,1.8-13.4,5.5c-3.3,3.7-5,9.1-5,16.4c0,7.8,1.7,13.7,5,17.5
		c3.4,3.9,7.8,5.8,13.3,5.8c2.8,0,5.5-0.6,8.1-1.6c2.5-1,4.9-2.3,7-4v-8.3H352.8z"/>
	<title>bmkg</title>
</g>
</svg>
