<svg id="Layer_1" data-name="Layer 1" xmlns="http://www.w3.org/2000/svg" viewBox="0 0 500 500"><defs><style>.cls-1,.cls-3{fill:#fff;}.cls-2{fill:#848685;}.cls-3,.cls-4,.cls-7{fill-rule:evenodd;}.cls-4{fill:#e30214;}.cls-5{fill:#fcfdfb;}.cls-6{fill:#ed7e00;}.cls-7{fill:#004396;}</style></defs><title>bnpb</title><rect class="cls-1" width="500" height="500"/><circle class="cls-2" cx="251.37" cy="219" r="182.78" transform="translate(-81.23 241.89) rotate(-45)"/><path class="cls-3" d="M424.74,187.79a176.13,176.13,0,1,1-346.73,0L117.87,195a135.63,135.63,0,1,0,267,0l39.87-7.17Zm-306.86,7.13c.18-1,.38-2.06.59-3.08-.21,1-.41,2-.59,3.08Zm.82-4.2c.15-.67.29-1.34.44-2-.15.68-.29,1.35-.44,2Zm.75-3.3c.14-.61.29-1.21.44-1.81-.15.6-.3,1.2-.44,1.81Zm.79-3.15c.16-.59.31-1.18.48-1.77-.17.59-.32,1.18-.48,1.77Zm.85-3.08c.17-.59.35-1.18.53-1.76-.18.58-.36,1.17-.53,1.76Zm.92-3c.19-.6.39-1.2.58-1.8-.19.6-.39,1.2-.58,1.8Zm1-3q.31-.93.66-1.86-.34.93-.66,1.86Zm1-3,.87-2.3-.87,2.3Zm1.12-2.95c.38-1,.77-1.91,1.17-2.85-.4.94-.79,1.9-1.17,2.85Zm1.61-3.87c.27-.63.54-1.26.82-1.88-.28.62-.55,1.25-.82,1.88Zm1.33-3c.27-.57.53-1.15.81-1.72-.28.57-.54,1.15-.81,1.72Zm1.39-2.92c.26-.54.53-1.07.8-1.61-.27.54-.54,1.07-.8,1.61Zm1.41-2.81.84-1.59-.84,1.59Zm1.48-2.77c.29-.53.58-1,.88-1.57-.3.52-.59,1-.88,1.57Zm1.53-2.71c.32-.56.65-1.11,1-1.67-.33.56-.66,1.11-1,1.67Zm1.59-2.67c.41-.68.83-1.35,1.26-2-.43.68-.85,1.35-1.26,2Zm1.64-2.63c.55-.87,1.12-1.73,1.7-2.59-.58.86-1.15,1.72-1.7,2.59Zm2.19-3.3,1.26-1.82-1.26,1.82Zm2-2.8,1.11-1.52-1.11,1.52Zm1.9-2.57c.36-.48.73-1,1.1-1.43-.37.47-.74.95-1.1,1.43Zm1.91-2.47,1.12-1.38-1.12,1.38Zm2-2.42c.38-.47.77-.93,1.16-1.38-.39.45-.78.91-1.16,1.38Zm2-2.34,1.33-1.5-1.33,1.5Zm2.06-2.31c.53-.58,1.06-1.15,1.6-1.72-.54.57-1.07,1.14-1.6,1.72Zm2.11-2.27c.71-.74,1.43-1.47,2.15-2.2-.72.73-1.44,1.46-2.15,2.2Zm2.75-2.79,1.61-1.57L156,122.57Zm2.47-2.38,1.39-1.29-1.39,1.29Zm2.35-2.16,1.36-1.2-1.36,1.2Zm2.35-2.06,1.37-1.16L163.17,116Zm2.39-2,1.42-1.15L165.56,114ZM168,112l1.52-1.16L168,112Zm2.46-1.88,1.83-1.33-1.83,1.33Zm2.5-1.81c.84-.6,1.69-1.19,2.54-1.77-.85.58-1.7,1.17-2.54,1.77Zm3.15-2.17,2-1.3-2,1.3Zm2.95-1.92,1.66-1-1.66,1Zm2.74-1.68,1.6-.95-1.6.95Zm2.73-1.59c.53-.31,1.07-.6,1.6-.9-.53.3-1.07.59-1.6.9Zm2.75-1.53,1.63-.86-1.63.86ZM190,98c.58-.3,1.16-.59,1.75-.87-.59.28-1.17.57-1.75.87Zm2.8-1.39q1-.48,2-.93-1,.45-2,.93Zm2.84-1.32c1-.43,1.9-.85,2.86-1.25-1,.4-1.91.82-2.86,1.25Zm3.41-1.48c.78-.32,1.57-.65,2.37-1-.8.31-1.59.64-2.37,1Zm3.38-1.35,1.92-.74-1.92.74Zm3.09-1.16,1.83-.64-1.83.64Zm3-1,1.8-.58-1.8.58Zm3-1c.61-.19,1.21-.37,1.82-.54-.61.17-1.21.35-1.82.54Zm3.06-.9,1.88-.51-1.88.51Zm3.09-.83,2.14-.52-2.14.52Zm3.09-.75c1-.24,2.08-.46,3.13-.68-1,.22-2.09.44-3.13.68Zm3.49-.75c.93-.19,1.87-.37,2.8-.54-.93.17-1.87.35-2.8.54Zm3.87-.72,2.12-.35-2.12.35Zm3.35-.53,2-.28-2,.28Zm3.28-.44,2-.22-2,.22Zm3.3-.36,1.91-.17-1.91.17Zm3.3-.28c.65,0,1.31-.09,2-.12-.66,0-1.32.07-2,.12Zm3.27-.2,2.23-.08-2.23.08Zm3.31-.12c1.1,0,2.21,0,3.32,0s2.22,0,3.32,0c-1.1,0-2.21,0-3.32,0s-2.22,0-3.32,0Zm7.72,0,2.23.08-2.23-.08Zm3.53.16c.66,0,1.32.07,2,.12-.65,0-1.31-.09-2-.12Zm3.36.23,1.9.17-1.9-.17Zm3.26.31,1.95.22-1.95-.22Zm3.24.38,2,.28-2-.28Zm3.23.46,2.11.35L272.39,85Zm3.18.53,2.83.55-2.83-.55Zm3.16.61c1,.21,2.09.44,3.13.68-1-.24-2.09-.47-3.13-.68Zm4.09.91,2.13.52L282.82,87Zm3.33.84c.63.17,1.26.33,1.89.51-.63-.18-1.26-.34-1.89-.51Zm3.13.87c.61.17,1.21.35,1.82.54-.61-.19-1.21-.37-1.82-.54Zm3.07.93,1.8.58-1.8-.58Zm3,1,1.82.64-1.82-.64Zm3,1.06,1.94.74-1.94-.74Zm2.94,1.13c.8.31,1.59.64,2.38,1-.79-.33-1.58-.66-2.38-1Zm2.92,1.19c1,.4,1.91.82,2.86,1.25-.95-.43-1.9-.85-2.86-1.25Zm3.71,1.64c.66.31,1.33.61,2,.93-.65-.32-1.32-.62-2-.93ZM311,97.15l1.71.85L311,97.15Zm2.87,1.45c.54.28,1.08.56,1.61.85-.53-.29-1.07-.57-1.61-.85Zm2.77,1.48,1.61.9-1.61-.9Zm2.72,1.53,1.63,1-1.63-1Zm2.68,1.6,1.7,1.06-1.7-1.06Zm2.63,1.65c.68.44,1.35.88,2,1.33-.66-.45-1.33-.89-2-1.33Zm2.6,1.71c.85.58,1.7,1.17,2.54,1.77-.84-.6-1.69-1.19-2.54-1.77Zm3.23,2.26,1.8,1.32-1.8-1.32Zm2.78,2.06,1.49,1.14-1.49-1.14Zm2.49,1.93,1.42,1.15-1.42-1.15Zm2.44,2,1.37,1.16-1.37-1.16Zm2.36,2c.46.39.91.8,1.36,1.2-.45-.4-.9-.81-1.36-1.2Zm2.32,2.07,1.39,1.29-1.39-1.29Zm2.25,2.1,1.61,1.57L345.13,121Zm2.21,2.16c.72.73,1.44,1.46,2.15,2.2-.71-.74-1.43-1.47-2.15-2.2Zm2.68,2.77c.53.56,1.05,1.12,1.57,1.69-.52-.57-1-1.13-1.57-1.69Zm2.34,2.54c.43.49.87,1,1.29,1.47-.42-.5-.86-1-1.29-1.47Zm2.12,2.43q.58.67,1.17,1.38-.58-.71-1.17-1.38Zm2,2.42,1.12,1.38-1.12-1.38Zm1.93,2.42c.37.47.74.95,1.1,1.43-.36-.48-.73-1-1.1-1.43Zm1.89,2.48,1.11,1.52-1.11-1.52Zm1.82,2.5,1.26,1.82-1.26-1.82Zm1.75,2.53c.58.86,1.15,1.72,1.7,2.59-.55-.87-1.12-1.73-1.7-2.59Zm2.08,3.19c.43.68.85,1.35,1.26,2-.41-.68-.83-1.35-1.26-2Zm1.87,3c.33.56.66,1.11,1,1.67-.32-.56-.65-1.11-1-1.67Zm1.63,2.81c.3.52.59,1,.88,1.57-.29-.53-.58-1-.88-1.57ZM371,155l.84,1.59L371,155Zm1.45,2.79c.27.54.54,1.07.8,1.61-.26-.54-.53-1.07-.8-1.61Zm1.38,2.81c.27.56.53,1.12.79,1.68-.26-.56-.52-1.12-.79-1.68Zm1.32,2.85c.28.6.54,1.22.81,1.83-.27-.61-.53-1.22-.81-1.83Zm1.26,2.88c.4.94.79,1.9,1.17,2.85q-.57-1.44-1.17-2.85Zm1.42,3.5.87,2.3-.87-2.3Zm1.27,3.41c.22.62.44,1.24.65,1.86-.21-.62-.43-1.24-.65-1.86Zm1.06,3.08c.2.6.39,1.2.58,1.8-.19-.6-.38-1.2-.58-1.8Zm1,3.08c.18.58.36,1.17.53,1.76-.17-.59-.35-1.18-.53-1.76Zm.9,3.07c.17.59.32,1.18.48,1.77-.16-.59-.31-1.18-.48-1.77Zm.83,3.11c.15.6.3,1.2.44,1.81-.14-.61-.29-1.21-.44-1.81Zm.75,3.09c.15.68.29,1.35.44,2-.15-.67-.29-1.34-.44-2Zm.67,3.14c.21,1,.41,2,.59,3.08C384.68,193.89,384.48,192.86,384.27,191.84Z"/><path class="cls-4" d="M251.37,42.87A176.19,176.19,0,0,1,421.55,173.5q1.88,7,3.19,14.29L384.87,195a135.65,135.65,0,0,0-267,0L78,187.79q1.32-7.39,3.25-14.55A176.2,176.2,0,0,1,251.37,42.87ZM384.88,195c.2,1.09.38,2.19.55,3.29-.17-1.1-.35-2.2-.55-3.29Zm.56,3.36c.17,1.1.32,2.22.46,3.33-.14-1.11-.29-2.23-.46-3.33Zm.47,3.35c.14,1.12.27,2.24.38,3.37-.11-1.13-.24-2.25-.38-3.37Zm.39,3.43c.11,1.12.21,2.24.3,3.37-.09-1.13-.19-2.25-.3-3.37Zm.3,3.43c.09,1.13.16,2.27.22,3.41-.06-1.14-.13-2.28-.22-3.41Zm.22,3.44q.18,3.47.18,7,0-3.5-.18-7ZM365.63,292.1q-1.77,2.75-3.66,5.41,1.89-2.67,3.66-5.41Zm-20.69,25.07q-2.35,2.25-4.81,4.38,2.46-2.13,4.81-4.38Zm-34.77,24.08q-3,1.42-6,2.71,3-1.29,6-2.71Zm-131.9-8c-1.83-1.17-3.64-2.39-5.41-3.65,1.77,1.26,3.58,2.48,5.41,3.65Zm-15.66-11.7q-2.46-2.13-4.81-4.38,2.35,2.25,4.81,4.38Zm-9.41-9q-2.25-2.35-4.38-4.82,2.13,2.46,4.38,4.82Zm-12.43-15.06q-1.89-2.67-3.66-5.41,1.77,2.75,3.66,5.41Zm-25-78.52c0-2.33,0-4.65.17-7-.12,2.31-.17,4.63-.17,7Zm.17-7c.06-1.14.13-2.28.22-3.41-.09,1.13-.16,2.27-.22,3.41Zm.22-3.47c.09-1.13.19-2.25.3-3.37-.11,1.12-.21,2.24-.3,3.37Zm.31-3.43c.11-1.13.24-2.25.38-3.37-.14,1.12-.27,2.24-.38,3.37Zm.39-3.39c.14-1.11.29-2.23.46-3.33-.17,1.1-.32,2.22-.46,3.33Zm.47-3.4c.17-1.1.35-2.2.55-3.29C117.66,196.11,117.48,197.21,117.31,198.31Z"/><circle class="cls-5" cx="251.37" cy="218.99" r="135.94" transform="translate(-81.23 241.89) rotate(-45)"/><circle class="cls-6" cx="251.37" cy="218.99" r="134.04" transform="translate(-81.23 241.89) rotate(-45)"/><path class="cls-4" d="M280.28,378.59l-.28-2.46-6,.67-.47-4.24L284,371.39l1,8.92-.31.32a16.72,16.72,0,0,1-4.07,3,13.37,13.37,0,0,1-4.57,1.38,12.69,12.69,0,0,1-6-.74,9.45,9.45,0,0,1-4.55-3.65,12.68,12.68,0,0,1-2-5.71,13.6,13.6,0,0,1,.67-6.1,9.21,9.21,0,0,1,3.5-4.69,12.33,12.33,0,0,1,5.66-2,11.8,11.8,0,0,1,4.43.3,7.69,7.69,0,0,1,3.43,1.92,9.85,9.85,0,0,1,2.13,3.5l.32.85-4.05,1.61-.36-.83a7,7,0,0,0-1.23-2.05,3.79,3.79,0,0,0-1.69-.95,6.4,6.4,0,0,0-2.5-.19,7.5,7.5,0,0,0-2.78.81,5.18,5.18,0,0,0-1.7,1.45,6.09,6.09,0,0,0-.92,1.88,9.9,9.9,0,0,0-.29,3.83,9.38,9.38,0,0,0,1.3,4.06,5.11,5.11,0,0,0,2.57,2.06,7.68,7.68,0,0,0,3.49.42,8.06,8.06,0,0,0,3-1,10.12,10.12,0,0,0,1.84-1.25ZM92.18,226.46l-8.34.59-.32-4.57,22.31-1.57.61,8.65a19,19,0,0,1,0,3.29,7.13,7.13,0,0,1-.9,3,5.91,5.91,0,0,1-2.19,2.11,7.56,7.56,0,0,1-8.31-.62c-1.88-1.5-2.42-4.28-2.58-6.54l-.3-4.32ZM104.39,247l-4.33,1,2.54,11-4.16,1-2.54-11-5,1.15,2.82,12.26-4.16,1-3.85-16.73,21.8-5,3.74,16.25-4.16,1L104.39,247Zm-.17,32.42,9.64-13.75-1.52-3.93L91.48,269.8,93.09,274l13-5-9.65,13.74L98,286.6l20.86-8.08-1.62-4.17-13,5Zm8.22,21.22-3.74-6.32-6.48,1.25-2.49-4.21,23.62-4,2.17,3.66L110.9,310.23l-2.61-4.41,4.15-5.2Zm15.87,18.91,5-16-2.66-3.27-17.37,14.1,2.82,3.47L126.9,309l-5,16,2.66,3.28L142,314.21l-2.82-3.47-10.84,8.79Zm16.36,21.18,1.72-1.78-4.33-4.18,3-3.07,7.58,7.33-6.25,6.46-.45-.05A16,16,0,0,1,141,344.2a13.24,13.24,0,0,1-4-2.64,12.63,12.63,0,0,1-3.28-5.13,9.55,9.55,0,0,1-.08-5.84,12.76,12.76,0,0,1,3.12-5.18,13.69,13.69,0,0,1,5.14-3.37,9.27,9.27,0,0,1,5.84-.28,12.17,12.17,0,0,1,5.15,3.09,11.52,11.52,0,0,1,2.59,3.6,7.6,7.6,0,0,1,.71,3.87,10.09,10.09,0,0,1-1.34,3.87l-.46.79-3.82-2.1.42-.81a7,7,0,0,0,.79-2.25,3.82,3.82,0,0,0-.34-1.91,6.43,6.43,0,0,0-1.45-2.05,7.52,7.52,0,0,0-2.39-1.63,5.06,5.06,0,0,0-2.21-.38,6.21,6.21,0,0,0-2,.48,10,10,0,0,0-3.14,2.22,9.3,9.3,0,0,0-2.3,3.59,5.08,5.08,0,0,0,.05,3.29,7.48,7.48,0,0,0,1.89,2.95,8.1,8.1,0,0,0,2.65,1.71,9.35,9.35,0,0,0,2.13.62Zm21.11,15.53a9.52,9.52,0,0,1-2.21-.2,8.06,8.06,0,0,1-2.92-1.16,7.63,7.63,0,0,1-2.43-2.53,5.14,5.14,0,0,1-.68-3.23,9.27,9.27,0,0,1,1.57-4,9.89,9.89,0,0,1,2.65-2.78,6.07,6.07,0,0,1,1.9-.87,5.13,5.13,0,0,1,2.24-.05,7.58,7.58,0,0,1,2.66,1.14,6.22,6.22,0,0,1,1.81,1.73,3.75,3.75,0,0,1,.71,1.81,7,7,0,0,1-.35,2.36l-.25.87,4.16,1.33.29-.87a10,10,0,0,0,.57-4.05,7.67,7.67,0,0,0-1.44-3.66,11.85,11.85,0,0,0-3.23-3,12.28,12.28,0,0,0-5.66-2,9.22,9.22,0,0,0-5.67,1.4,13.56,13.56,0,0,0-4.39,4.3,12.6,12.6,0,0,0-2.07,5.68,9.48,9.48,0,0,0,1.21,5.71,12.55,12.55,0,0,0,4.2,4.4,13.14,13.14,0,0,0,4.41,1.83,16.17,16.17,0,0,0,5,.25l.45,0,4.89-7.53-8.85-5.74-2.32,3.58,5,3.27-1.35,2.08Zm28.33-4.3,4.18,1.89L193,365.47a15.23,15.23,0,0,1-2.86,4.47,7,7,0,0,1-4,1.91,10,10,0,0,1-5.34-1,10.85,10.85,0,0,1-4.23-3.13,6.64,6.64,0,0,1-1.38-4.29,14.66,14.66,0,0,1,1.49-5.36l5.27-11.64,4.17,1.89L180.83,360a11.38,11.38,0,0,0-1.09,3.45,2.92,2.92,0,0,0,.57,1.89,5.07,5.07,0,0,0,2,1.54c1,.47,2.55,1,3.69.5s2.3-2.62,2.81-3.76l5.27-11.63Zm7.57,22.37,4.86-17.43-4.42-1.24-6,21.56,14.12,3.93,1.15-4.11-9.71-2.71ZM229,378.76l-7.21-1.32-3.32,5.71-4.81-.89,12.5-20.45,4.18.77,4.9,23.65-5-.92L229,378.76Zm24.7-.56.5-13.95,4.47.17-.81,22.35-4.21-.15-8.82-14.29-.51,13.95-4.47-.16.81-22.36,4.22.16,8.82,14.28ZM413.46,227.36l-.57,7.32,6,2.7-.38,4.88L396.9,232l.33-4.24,23-7.34-.4,5.1-6.38,1.88Zm-5,22.09-15.71,5.94-.95,4.11,21.79,5.05,1-4.35L401,257l15.71-5.93.95-4.11-21.79-5.06-1,4.36,13.6,3.15ZM404.11,274l-2.77,6.8,4.92,4.4-1.85,4.53L386.93,273.3l1.61-3.94h24.15l-1.93,4.74-6.65-.15Zm-11.51,18.3.72.64a5.87,5.87,0,0,1,2,3.26,4.87,4.87,0,0,1-.66,3.37,5.62,5.62,0,0,1-2.2,2.18,4.82,4.82,0,0,1-3.12.5,11.67,11.67,0,0,1-4-1.5,11.26,11.26,0,0,1-2.87-2.32,5.07,5.07,0,0,1-1.3-2.92,5.74,5.74,0,0,1,.86-3.42,4.57,4.57,0,0,1,2.13-2.06,5.59,5.59,0,0,1,3.29-.13l.85.19,1.3-4.4-1-.23a9.13,9.13,0,0,0-5.86.4,9.39,9.39,0,0,0-4.36,4.11,11.15,11.15,0,0,0-1.52,5.37,9.4,9.4,0,0,0,1.57,5.34,13.16,13.16,0,0,0,4.57,4.14,14.9,14.9,0,0,0,5.65,1.9,9.4,9.4,0,0,0,5.5-.9,10.73,10.73,0,0,0,4.23-4.37,9.41,9.41,0,0,0,1.27-6.17,10.08,10.08,0,0,0-3.17-5.72l-.68-.65-3.26,3.39Zm-13.25,22-10.92-8.7,2.79-3.49L388.72,316l-2.63,3.3-16.73-1.39,10.92,8.69-2.78,3.5L360,316.14l2.63-3.3,16.73,1.4Zm-27.9,16.57,8.75-8.34-2.95-3.09-12.06,11.51,15.44,16.18,12.42-11.85-2.95-3.08-9.1,8.68-3.54-3.71,8.19-7.81-2.95-3.09L354.51,334l-3.06-3.21Zm-5.64,12.33a5.82,5.82,0,0,1,2.22.22,5.91,5.91,0,0,1,3.11,2.27,7,7,0,0,1,1.24,2.93,6.15,6.15,0,0,1-.13,2.86,7.47,7.47,0,0,1-1.4,2.45,15,15,0,0,1-2.66,2.38l-7.09,5.13L328,343.24l7-5.05a10.56,10.56,0,0,1,3.77-1.86,5.73,5.73,0,0,1,3.47.3,6,6,0,0,1,2.64,2,5.61,5.61,0,0,1,1.05,2.9,5.5,5.5,0,0,1-.11,1.57ZM324,361l-14.34-8.74L305.85,354l9.42,20.29,4.06-1.88-5.88-12.66,14.34,8.73,3.83-1.78-9.43-20.29-4.05,1.89L324,361Zm-22,11.53-7.08,2-.48,6.59-4.71,1.31L292,358.51l4.1-1.13,14.75,19.12L306,377.87,302,372.51ZM96.44,226.16l.31,4.36a5.15,5.15,0,0,0,1,3.06,2.56,2.56,0,0,0,2.11.64,2.72,2.72,0,0,0,1.62-.59,2.07,2.07,0,0,0,.77-1.25,11,11,0,0,0,0-2.29l-.3-4.31-5.46.38ZM119,292.4c-.35.08-.7.15-1.06.21l-5,.9,2.19,3.7,3-3.69c.3-.37.6-.75.91-1.12Zm105,81.3,4.23.78-.83-4.65c-.09-.48-.17-.95-.25-1.43-.17.32-.35.63-.54.94L224,373.7ZM409,232.88l.33-4.28-4.54,1.31c-.46.14-.92.27-1.39.39l1,.44,4.61,2.14Zm-10.82,45,1.63-4-4.73-.13-1.45-.05c.28.23.55.47.81.71l3.74,3.45Zm-61.37,69.69,2.84-2.05a9.17,9.17,0,0,0,1.76-1.52,2,2,0,0,0,.48-1.18,2,2,0,0,0-.45-1.21,2.39,2.39,0,0,0-1.05-.86,1.54,1.54,0,0,0-1.12,0,11.43,11.43,0,0,0-2.44,1.46L334.21,344l2.55,3.52Zm5.55,7.69,3.39-2.45a10.21,10.21,0,0,0,1.31-1,3.71,3.71,0,0,0,.76-1.08,2.12,2.12,0,0,0,.1-1.06,2.59,2.59,0,0,0-.51-1.22,2.55,2.55,0,0,0-1.21-.94,2.19,2.19,0,0,0-1.43,0,9.58,9.58,0,0,0-2.37,1.34L339.26,351l3.05,4.23ZM295.79,364c0,.36,0,.72-.07,1.08l-.44,5.07,4.14-1.15-2.79-3.82Z"/><path class="cls-3" d="M237.16,68.33l-1.83-15.39,4.69-.56,2.88,24.17-4.46.53L226.32,62.91l1.83,15.39-4.68.56-2.88-24.17,4.45-.53,12.12,14.17ZM105.37,168.88a6.2,6.2,0,0,1,2.09-1.42,6.42,6.42,0,0,1,4.17-.23,7.55,7.55,0,0,1,3,1.6,6.59,6.59,0,0,1,1.85,2.49,7.93,7.93,0,0,1,.51,3,16,16,0,0,1-.61,3.83L114,187.36,90.46,181.1l2.41-9a11.31,11.31,0,0,1,1.89-4.16,6.19,6.19,0,0,1,3.12-2.12,6.48,6.48,0,0,1,3.6-.1,6,6,0,0,1,2.85,1.7,5.9,5.9,0,0,1,1,1.51Zm18.11-24.74-3.74,7.26,4.94,5.29-2.36,4.59L105,141.84l2.08-4,26.17,2.34L130.72,145l-7.24-.81Zm15.45-11.5-18.38-16,5.69-6.55a19.59,19.59,0,0,1,3-2.95,8.64,8.64,0,0,1,3.78-1.6,10.11,10.11,0,0,1,5.11.56,15.89,15.89,0,0,1,4.9,3,16.57,16.57,0,0,1,3.21,3.63,11.56,11.56,0,0,1,1.59,3.59,8.91,8.91,0,0,1,.21,3.21,9.23,9.23,0,0,1-1,3.07,16.52,16.52,0,0,1-2.21,3.17l-5.92,6.82Zm28.65-36.19-6.7,4.67,1.9,7-4.24,3-6.27-25.3,3.72-2.6,22,14.29-4.43,3.1-6-4.1ZM196,78.11l-16-9.58-4.06,1.92,10.41,22,4.26-2-6.62-14L200,86,204,84.08l-10.41-22-4.26,2,6.62,14Zm195.38,98.48,3,10.51-4.3,1.22-4.28-15.14,23.16-6.56,1.31,4.63-18.86,5.34Zm-6.17-22.94-3.6-7.2-7.1.85-2.3-4.58,25.66-2.52,2,4-17.14,19.54-2.41-4.8,4.87-5.31Zm-15.1-28.18,11.55-10,3.07,3.54-18.18,15.78-2.91-3.36,4.84-17.74-11.55,10-3.07-3.54L372,104.36l2.92,3.36-4.85,17.75ZM335.34,87.7A13.45,13.45,0,0,0,332.26,93a10.74,10.74,0,0,0-.12,6.1,11.49,11.49,0,0,0,3.31,5.38,12,12,0,0,0,5.27,2.93,10.32,10.32,0,0,0,6.12-.31,14,14,0,0,0,5.5-3.7,14.23,14.23,0,0,0,3.35-5.59,10.45,10.45,0,0,0,.07-6.09,11.54,11.54,0,0,0-3.28-5.29,11.08,11.08,0,0,0-8.42-3.24c-3.48.19-6.37,2.06-8.72,4.55Zm-23.11,2.52,10.93-21.45L327.44,71,316.52,92.4l-4.29-2.18ZM284.71,70.86l4.47.87-.15.9a5.25,5.25,0,0,0,.08,2.46A4.27,4.27,0,0,0,290.48,77a7.47,7.47,0,0,0,2.75,1.4,7.17,7.17,0,0,0,2.64.31,3.21,3.21,0,0,0,1.73-.59,2.27,2.27,0,0,0,.82-1.18,2,2,0,0,0,0-1.31,3.74,3.74,0,0,0-1.26-1.42,33.35,33.35,0,0,0-3.39-2.07,20.69,20.69,0,0,1-3.92-2.67,7.07,7.07,0,0,1-1.94-3.06,6.11,6.11,0,0,1,0-3.39,6.55,6.55,0,0,1,2.09-3.2,6.8,6.8,0,0,1,3.8-1.58,11.5,11.5,0,0,1,4.48.43,12.29,12.29,0,0,1,4.29,2.15A7.27,7.27,0,0,1,305,64.28a7.64,7.64,0,0,1,.08,4.16l-.21.88-4.54-.95.16-.89a3.68,3.68,0,0,0-.44-2.79A5.37,5.37,0,0,0,297.13,63a5.7,5.7,0,0,0-3.39-.18,2,2,0,0,0-1.29,1.32,1.6,1.6,0,0,0,.17,1.38c.46.74,2.72,2,3.48,2.43a27.85,27.85,0,0,1,4.48,2.85,7.68,7.68,0,0,1,2.4,3.38A6.49,6.49,0,0,1,303,78a6.93,6.93,0,0,1-2.19,3.36,7.6,7.6,0,0,1-3.94,1.75,11.23,11.23,0,0,1-4.75-.39,13.93,13.93,0,0,1-4.93-2.42,8.06,8.06,0,0,1-2.62-3.87,8.37,8.37,0,0,1-.07-4.68l.22-.85Zm-18.29-.27L258.28,70l-3,6.6-5.15-.4,11.21-23.54,4.52.36,8,25-5.39-.43-2.06-7ZM100.84,178.84l1-3.79a10,10,0,0,0,.44-2.54,2.21,2.21,0,0,0-.44-1.38,2.33,2.33,0,0,0-1.27-.75,2.62,2.62,0,0,0-1.52,0,1.83,1.83,0,0,0-1,.79,12.6,12.6,0,0,0-1.07,3l-.91,3.44,4.78,1.27Zm10,2.68,1.2-4.51a11.44,11.44,0,0,0,.38-1.83,4,4,0,0,0-.11-1.46,2.39,2.39,0,0,0-.67-1,3,3,0,0,0-1.32-.69,2.84,2.84,0,0,0-1.73,0,2.55,2.55,0,0,0-1.26,1,10.65,10.65,0,0,0-1.09,2.81l-1.1,4.12,5.7,1.52Zm5.77-33.47,2.27-4.41-5.27-.62c-.61-.07-1.22-.14-1.83-.23.34.34.67.69,1,1.05l3.83,4.21Zm22.06-22,2.53-2.91a11.31,11.31,0,0,0,1.81-2.65,4,4,0,0,0,.37-1.86,6.37,6.37,0,0,0-.94-2.7,12.94,12.94,0,0,0-2.7-3.06,10.07,10.07,0,0,0-4.4-2.48,5,5,0,0,0-3.17.36,11.35,11.35,0,0,0-2.6,2.39L127.13,116,138.71,126Zm21-29.31,4.08-2.84-4.38-3-1.51-1.06c.14.46.27.92.39,1.39l1.42,5.52Zm233.34,48.43-1.38.18-5.59.6,2.19,4.36,3.55-3.84,1.23-1.3ZM338.88,91.1c1.47-1.56,3.59-3.35,5.86-3.36a6.62,6.62,0,0,1,4.73,1.86,6.33,6.33,0,0,1,1.85,3.08,6.08,6.08,0,0,1-.17,3.58,10.46,10.46,0,0,1-2.37,3.73A8.62,8.62,0,0,1,343.3,103a6.61,6.61,0,0,1-6.93-6.5,8,8,0,0,1,2.51-5.44ZM263.15,59.31c-.18.45-.37.89-.58,1.33l-2.4,5.17,4.95.38-1.47-5.1C263.48,60.5,263.31,59.91,263.15,59.31Z"/><polygon class="cls-7" points="250 116.26 295.5 193.63 341 271 250 271 159 271 204.5 193.63 250 116.26"/><path class="cls-7" d="M132,430.53h20a59.29,59.29,0,0,1,8.85.48,13.45,13.45,0,0,1,5.22,2,12.68,12.68,0,0,1,3.83,4,10.65,10.65,0,0,1,1.54,5.67,11,11,0,0,1-1.88,6.22,11.62,11.62,0,0,1-5.12,4.26,13.17,13.17,0,0,1,7,4.41,11.48,11.48,0,0,1,2.44,7.32,14,14,0,0,1-1.58,6.44,13.06,13.06,0,0,1-4.34,5,14.63,14.63,0,0,1-6.76,2.3q-2.52.25-12.16.33H132V430.53Zm10.11,8.06v11.17h6.61c3.91,0,6.36-.06,7.31-.17a6.72,6.72,0,0,0,4.07-1.73,5,5,0,0,0,1.47-3.77,5.24,5.24,0,0,0-1.27-3.64,5.79,5.79,0,0,0-3.79-1.69c-1-.12-3.88-.17-8.61-.17Zm0,19.22v13h9.35a48.88,48.88,0,0,0,6.92-.29,6.35,6.35,0,0,0,3.66-1.94,5.92,5.92,0,0,0,1.42-4.13,5.89,5.89,0,0,0-4.25-5.94c-1.37-.46-4.36-.7-9-.7ZM201.75,479V430.53h9.79L232.09,463V430.53h9.35V479h-10.1L211.1,447.14V479Zm69.75,0V430.53h16.17q9.19,0,12,.72a13.21,13.21,0,0,1,7.18,4.75,14.78,14.78,0,0,1,2.9,9.45,15.43,15.43,0,0,1-1.67,7.5,13.42,13.42,0,0,1-4.23,4.78,14.79,14.79,0,0,1-5.22,2.29,58.23,58.23,0,0,1-10.44.7h-6.55V479Zm10.12-40.28v13.81h5.49c4,0,6.61-.26,7.94-.77a6.4,6.4,0,0,0,4.28-6.17,6.19,6.19,0,0,0-1.59-4.37,7,7,0,0,0-4.05-2.17,51,51,0,0,0-7.23-.33Zm54.53-8.19h20A59.29,59.29,0,0,1,365,431a13.45,13.45,0,0,1,5.22,2,12.68,12.68,0,0,1,3.83,4,10.65,10.65,0,0,1,1.54,5.67,11,11,0,0,1-1.88,6.22,11.62,11.62,0,0,1-5.12,4.26,13.17,13.17,0,0,1,7,4.41,11.48,11.48,0,0,1,2.44,7.32,14,14,0,0,1-1.58,6.44,13.06,13.06,0,0,1-4.34,5,14.63,14.63,0,0,1-6.76,2.3q-2.52.25-12.16.33h-17V430.53Zm10.11,8.06v11.17h6.61c3.91,0,6.36-.06,7.31-.17a6.72,6.72,0,0,0,4.07-1.73,5,5,0,0,0,1.47-3.77,5.2,5.2,0,0,0-1.28-3.64,5.74,5.74,0,0,0-3.78-1.69c-1-.12-3.88-.17-8.61-.17Zm0,19.22v13h9.35a48.88,48.88,0,0,0,6.92-.29,6.35,6.35,0,0,0,3.66-1.94,5.92,5.92,0,0,0,1.42-4.13,5.89,5.89,0,0,0-4.25-5.94c-1.37-.46-4.36-.7-8.95-.7Z"/><path class="cls-7" d="M190.21,283.83h10a29.37,29.37,0,0,1,4.41.24,6.69,6.69,0,0,1,2.61,1,6.38,6.38,0,0,1,1.91,2,5.31,5.31,0,0,1,.77,2.82,5.55,5.55,0,0,1-.94,3.11,5.89,5.89,0,0,1-2.55,2.12,6.57,6.57,0,0,1,3.49,2.2,5.73,5.73,0,0,1,1.21,3.65,7,7,0,0,1-.79,3.21,6.48,6.48,0,0,1-2.16,2.5,7.33,7.33,0,0,1-3.37,1.15c-.84.08-2.86.14-6.07.16h-8.48V283.83Zm5,4v5.57h3.29c1.95,0,3.17,0,3.65-.09a3.3,3.3,0,0,0,2-.86,2.47,2.47,0,0,0,.74-1.88,2.54,2.54,0,0,0-.64-1.81,2.89,2.89,0,0,0-1.89-.85c-.5-.06-1.93-.08-4.29-.08Zm0,9.58v6.49h4.66a24.83,24.83,0,0,0,3.45-.15,3.21,3.21,0,0,0,1.82-1,3,3,0,0,0,.71-2.06,3.11,3.11,0,0,0-.54-1.85,3,3,0,0,0-1.58-1.11,17.53,17.53,0,0,0-4.46-.35ZM225,308V283.83h4.88L240.13,300v-16.2h4.66V308h-5l-10.09-15.89V308Zm34.78,0V283.83h8.06a30.35,30.35,0,0,1,6,.36,6.56,6.56,0,0,1,3.58,2.37,7.35,7.35,0,0,1,1.44,4.71A7.75,7.75,0,0,1,278,295a6.71,6.71,0,0,1-2.11,2.38,7.37,7.37,0,0,1-2.6,1.15,29.47,29.47,0,0,1-5.21.35h-3.27V308Zm5-20.09v6.89h2.75a13.41,13.41,0,0,0,4-.38,3.28,3.28,0,0,0,1.56-1.19,3.2,3.2,0,0,0,.57-1.89,3.08,3.08,0,0,0-.8-2.18,3.43,3.43,0,0,0-2-1.08,24.51,24.51,0,0,0-3.61-.17Zm27.2-4.08h10a29.46,29.46,0,0,1,4.41.24,6.64,6.64,0,0,1,2.6,1,6.3,6.3,0,0,1,1.92,2,5.3,5.3,0,0,1,.76,2.82,5.47,5.47,0,0,1-.94,3.11,5.83,5.83,0,0,1-2.55,2.12,6.57,6.57,0,0,1,3.49,2.2,5.74,5.74,0,0,1,1.22,3.65,7,7,0,0,1-.79,3.21,6.65,6.65,0,0,1-2.16,2.5,7.37,7.37,0,0,1-3.38,1.15c-.83.08-2.85.14-6.06.16H292V283.83Zm5,4v5.57h3.3c1.95,0,3.17,0,3.64-.09a3.3,3.3,0,0,0,2-.86,2.51,2.51,0,0,0,.74-1.88,2.58,2.58,0,0,0-.64-1.81,2.91,2.91,0,0,0-1.89-.85c-.5-.06-1.93-.08-4.29-.08Zm0,9.58v6.49h4.66a24.72,24.72,0,0,0,3.45-.15,3.21,3.21,0,0,0,1.83-1,3,3,0,0,0,.71-2.06,2.94,2.94,0,0,0-2.12-3,17.53,17.53,0,0,0-4.46-.35Z"/></svg>