<svg id="Layer_1" data-name="Layer 1" xmlns="http://www.w3.org/2000/svg" viewBox="0 0 500 500"><defs><style>.cls-1,.cls-4{fill:#fff;}.cls-2,.cls-8{fill:#050301;}.cls-2,.cls-3,.cls-4,.cls-5,.cls-6,.cls-7{fill-rule:evenodd;}.cls-3{fill:#090609;}.cls-5{fill:#f89c35;}.cls-6,.cls-9{fill:#e51c24;}.cls-11,.cls-7{fill:#0994dc;}.cls-10{fill:none;stroke:#e51c24;stroke-miterlimit:10;stroke-width:0.68px;}</style></defs><title>bpbd</title><g id="g10"><rect class="cls-1" width="500" height="500"/><g id="g12"><path id="path20" class="cls-2" d="M250.1,36.93c100.52,0,182,81.51,182,182s-81.52,182-182,182-182-81.52-182-182,81.51-182,182-182"/><path id="path22" class="cls-3" d="M250.1,83.39A135.58,135.58,0,1,1,114.53,219,135.59,135.59,0,0,1,250.1,83.39"/><path id="path24" class="cls-4" d="M250.1,42.48c97.46,0,176.49,79,176.49,176.48A176.51,176.51,0,0,1,250.1,395.45c-97.45,0-176.49-79-176.49-176.49s79-176.48,176.49-176.48"/><path id="path26" class="cls-5" d="M250.1,83.39A135.58,135.58,0,1,1,114.53,219,135.59,135.59,0,0,1,250.1,83.39"/><path id="path28" class="cls-4" d="M250.1,42.48c97.46,0,176.49,79,176.49,176.48A176.51,176.51,0,0,1,250.1,395.45c-97.45,0-176.49-79-176.49-176.49S152.65,42.48,250.1,42.48Zm0,40.91A135.58,135.58,0,1,1,114.53,219,135.59,135.59,0,0,1,250.1,83.39"/><path id="path30" class="cls-6" d="M250.1,42.48c97.46,0,176.49,79,176.49,176.48,0,3.62-.12,7.2-.34,10.75h-41c.28-3.54.42-7.13.42-10.75a135.57,135.57,0,0,0-271.14,0c0,3.62.14,7.21.42,10.75H74c-.21-3.55-.34-7.13-.34-10.75,0-97.45,79-176.48,176.49-176.48"/><path id="path32" class="cls-7" d="M250.1,116.68l-45.42,77-45.42,77H341l-45.43-77-45.42-77"/><path id="path34" class="cls-8" d="M191.3,285.44h12.49a6.8,6.8,0,0,1,4.79,1.55,5,5,0,0,1,1.68,3.83,4.85,4.85,0,0,1-1.19,3.28,5.35,5.35,0,0,1-2.33,1.45,6,6,0,0,1,3.42,1.92,5.29,5.29,0,0,1,1.1,3.42,5.88,5.88,0,0,1-.78,3,5.73,5.73,0,0,1-2.14,2.12,7.16,7.16,0,0,1-2.53.71c-1.51.19-2.5.29-3,.29H191.3V285.44Zm6.73,8.47h2.9a3.35,3.35,0,0,0,2.18-.54,1.94,1.94,0,0,0,.61-1.55,1.82,1.82,0,0,0-.61-1.47,3.25,3.25,0,0,0-2.13-.53H198Zm0,8.48h3.4a3.69,3.69,0,0,0,2.43-.61,2,2,0,0,0,.71-1.64,1.89,1.89,0,0,0-.7-1.54,4,4,0,0,0-2.45-.58H198v4.37"/><path id="path36" class="cls-8" d="M224.88,285.44H236a7.61,7.61,0,0,1,5.43,1.73,6.45,6.45,0,0,1,1.8,4.9,6.63,6.63,0,0,1-2,5.11q-2,1.85-6,1.84h-3.65v8h-6.7Zm6.7,9.21h1.64a4.22,4.22,0,0,0,2.71-.67,2.2,2.2,0,0,0,.78-1.72,2.39,2.39,0,0,0-.68-1.72,3.52,3.52,0,0,0-2.55-.71h-1.9v4.82"/><path id="path38" class="cls-8" d="M256.87,285.44h12.49a6.8,6.8,0,0,1,4.79,1.55,5,5,0,0,1,1.67,3.83,4.85,4.85,0,0,1-1.19,3.28,5.29,5.29,0,0,1-2.33,1.45,6.06,6.06,0,0,1,3.43,1.92,5.29,5.29,0,0,1,1.09,3.42,5.88,5.88,0,0,1-.78,3,5.7,5.7,0,0,1-2.13,2.12,7.22,7.22,0,0,1-2.54.71c-1.5.19-2.49.29-3,.29H256.87V285.44Zm6.73,8.47h2.9a3.32,3.32,0,0,0,2.17-.54,1.94,1.94,0,0,0,.61-1.55,1.82,1.82,0,0,0-.61-1.47,3.25,3.25,0,0,0-2.13-.53H263.6Zm0,8.48H267a3.72,3.72,0,0,0,2.43-.61,2,2,0,0,0,.71-1.64,1.89,1.89,0,0,0-.7-1.54A4,4,0,0,0,267,298H263.6v4.37"/><path id="path40" class="cls-8" d="M290.57,285.44h9.91a11.85,11.85,0,0,1,4.73.8,7.68,7.68,0,0,1,3,2.28A9.51,9.51,0,0,1,309.9,292a16.23,16.23,0,0,1,.53,4.18,14.41,14.41,0,0,1-.79,5.37,8.79,8.79,0,0,1-2.18,3.2,7.12,7.12,0,0,1-3,1.71,15.15,15.15,0,0,1-4,.59h-9.91V285.44Zm6.66,4.89v11.8h1.64a6.66,6.66,0,0,0,3-.47,3.14,3.14,0,0,0,1.39-1.62,10.2,10.2,0,0,0,.5-3.74c0-2.29-.37-3.85-1.12-4.7a4.75,4.75,0,0,0-3.71-1.27h-1.67"/><path id="path42" class="cls-1" d="M82.77,220.49l.33-9.25a24.19,24.19,0,0,1,.38-4.09,5.67,5.67,0,0,1,1.07-2.38,6,6,0,0,1,2.06-1.7,5.53,5.53,0,0,1,2.81-.62,5.81,5.81,0,0,1,3.06,1,5.62,5.62,0,0,1,2,2.45,6.09,6.09,0,0,1,2.27-3.17,5.93,5.93,0,0,1,3.65-1,7.44,7.44,0,0,1,3.15.84,6.09,6.09,0,0,1,3.41,5.27q.09,1.17,0,5.64l-.28,7.87ZM86.91,216l5.53.19.11-3.06q.09-2.73,0-3.39a3.05,3.05,0,0,0-.78-1.92A2.63,2.63,0,0,0,90,207a2.68,2.68,0,0,0-1.82.53,2.62,2.62,0,0,0-.9,1.73c-.07.46-.15,1.79-.22,4Zm9.51.33,6.39.22.15-4.32a19,19,0,0,0,0-3.2,2.82,2.82,0,0,0-.89-1.73,3,3,0,0,0-2-.73,3.23,3.23,0,0,0-1.84.44A2.87,2.87,0,0,0,97,208.38a15.36,15.36,0,0,0-.48,4.13l-.13,3.77"/><path id="path44" class="cls-1" d="M113.07,177.1,111.84,182l-5.76.65-2.24,9,4.81,3.16-1.2,4.81-21-14.53,1.2-4.8Zm-11.26,6.06-9.38,1,7.85,5.17,1.53-6.12"/><path id="path46" class="cls-1" d="M91.55,165.45l3.2-7.92a16.38,16.38,0,0,1,2.07-3.91,7.69,7.69,0,0,1,3.35-2.4,10.46,10.46,0,0,1,4.42-.61,18.54,18.54,0,0,1,5.53,1.42,16.24,16.24,0,0,1,4.45,2.57,10.5,10.5,0,0,1,3,3.88,8,8,0,0,1,.54,3.76,13.48,13.48,0,0,1-1.08,4l-3.29,8.15Zm5.5-2.81,14.68,5.93,1.31-3.23a12.48,12.48,0,0,0,.85-2.71,4.25,4.25,0,0,0-.22-2.12,5.06,5.06,0,0,0-1.68-2,16.1,16.1,0,0,0-3.88-2.08,15.34,15.34,0,0,0-4.13-1.16,5.57,5.57,0,0,0-2.64.37,4.45,4.45,0,0,0-1.86,1.58,21.19,21.19,0,0,0-1.64,3.47l-.79,1.95"/><path id="path48" class="cls-1" d="M134.12,134.72,131.35,139l-5.66-1.26-5,7.76,3.52,4.56-2.7,4.16-15.15-20.59,2.69-4.14,25.11,5.25Zm-12.62,2.07-9.18-2.16,5.74,7.45,3.44-5.29"/><path id="path50" class="cls-1" d="M135.87,132.34l-18.05-15.68,3-3.44,18.26,3.33-12-10.48,2.85-3.28,18,15.69L144.84,122,127,118.84l11.77,10.23-2.85,3.27"/><path id="path52" class="cls-1" d="M158.36,108.42,144.64,88.83l6.14-4.3a26.52,26.52,0,0,1,4.76-2.89,6,6,0,0,1,4.07,0,7.54,7.54,0,0,1,3.77,3,7.86,7.86,0,0,1,1.49,3.48,6.56,6.56,0,0,1-.25,3.06,6.74,6.74,0,0,1-1.34,2.32,26,26,0,0,1-3.77,3.06L157,98.35l5.18,7.39-3.83,2.68Zm-7.57-19L154.68,95l2.09-1.47a11.79,11.79,0,0,0,2.82-2.42,3.09,3.09,0,0,0,.52-1.8,3.36,3.36,0,0,0-.63-1.83,3.13,3.13,0,0,0-4-1.13,20.73,20.73,0,0,0-2.85,1.8l-1.85,1.29"/><path id="path54" class="cls-1" d="M176.36,95.67,165.51,74.36l15.28-7.79,1.84,3.61-11.12,5.67,2.4,4.72,10.35-5.27,1.83,3.58-10.35,5.28L178.69,90l11.52-5.86L192,87.68l-15.68,8"/><path id="path56" class="cls-1" d="M196.32,86l-7.39-22.75,4.32-1.4L207.2,74.09,202.27,58.9l4.12-1.34,7.39,22.74-4.46,1.45-13.69-12,4.82,14.83L196.32,86"/><path id="path58" class="cls-1" d="M239.44,75.33l-5,.89-2.94-5-9.11,1.61-.93,5.69-4.88.86,4.72-25.12,4.87-.86Zm-10.12-7.82-4.68-8.19-1.54,9.29,6.22-1.1"/><path id="path60" class="cls-1" d="M242.78,75.73l.42-23.91,4.55.08L256.94,68l.28-16,4.34.08-.41,23.9-4.7-.08-9-15.75-.27,15.59-4.35-.08"/><path id="path62" class="cls-1" d="M278.66,69.64l.7-4,9.92,1.74-1.66,9.39A12.62,12.62,0,0,1,283,78.62a14.87,14.87,0,0,1-5.75.11,12.3,12.3,0,0,1-6-2.64A10,10,0,0,1,268.05,71a15,15,0,0,1-.23-6.51,14.2,14.2,0,0,1,2.65-6.28,10.35,10.35,0,0,1,5.14-3.61,11.73,11.73,0,0,1,5.66-.21,10.78,10.78,0,0,1,6.31,3A8.53,8.53,0,0,1,289.76,63l-4.73.07A5.16,5.16,0,0,0,283.7,60a5.46,5.46,0,0,0-3.14-1.59,6.25,6.25,0,0,0-5.15,1.13c-1.42,1.11-2.35,3-2.81,5.55-.49,2.79-.26,5,.7,6.61a6,6,0,0,0,4.35,2.93,8,8,0,0,0,3-.07,9.8,9.8,0,0,0,2.75-1l.53-3-5.27-.94"/><path id="path64" class="cls-1" d="M304.91,77.2l1.44-3.76,9.4,3.6-3.41,8.9a12.69,12.69,0,0,1-4.9.89,15.31,15.31,0,0,1-5.67-1,12.45,12.45,0,0,1-5.35-3.74,9.89,9.89,0,0,1-2.17-5.66,14.91,14.91,0,0,1,1-6.43,14.18,14.18,0,0,1,3.8-5.66,10.33,10.33,0,0,1,5.74-2.56,11.63,11.63,0,0,1,5.59.87A10.78,10.78,0,0,1,316,66.83a8.46,8.46,0,0,1,1.06,5.94l-4.65-.83a5.17,5.17,0,0,0-.72-3.26,5.51,5.51,0,0,0-2.78-2.16,6.23,6.23,0,0,0-5.27.13c-1.61.82-2.88,2.45-3.82,4.91q-1.53,4-.58,6.62A6,6,0,0,0,303,81.89a7.78,7.78,0,0,0,3,.5,10.24,10.24,0,0,0,2.88-.44l1.09-2.83-5-1.92"/><path id="path66" class="cls-1" d="M326.81,70.6l4.09,2.27-6.28,11.32a29.14,29.14,0,0,0-1.79,3.58,3.88,3.88,0,0,0,.11,2.75,4.84,4.84,0,0,0,2.27,2.28,4.58,4.58,0,0,0,3,.72,3.33,3.33,0,0,0,2.06-1.21,27.54,27.54,0,0,0,2.15-3.46l6.41-11.57L343,79.55l-6.09,11a33,33,0,0,1-3.28,5.13,6.87,6.87,0,0,1-2.68,2,7.08,7.08,0,0,1-3.32.38,11.31,11.31,0,0,1-4.25-1.52,12.33,12.33,0,0,1-4-3.13,7.22,7.22,0,0,1-1.38-3.11,6.73,6.73,0,0,1,.14-2.95,30,30,0,0,1,2.55-5.53l6.18-11.16"/><path id="path68" class="cls-1" d="M335.67,103.68l15.25-18.17,3.58,3-12.66,15.08,8.9,7.47-2.59,3.09-12.48-10.47"/><path id="path70" class="cls-1" d="M364.71,132.64l-3.34-3.84,2.77-5.09-6.07-7-5.35,2.12-3.25-3.74,24-8.88,3.25,3.73-12,22.68Zm1.49-12.7,4.61-8.23-8.76,3.47,4.15,4.76"/><path id="path72" class="cls-1" d="M366.51,135.16l20.06-13L389,126l-8.23,16.65,13.4-8.7,2.36,3.64-20.05,13L374,146.63l8-16.32-13.07,8.5-2.37-3.65"/><path id="path74" class="cls-1" d="M391.1,162.07l3.74-1.51,3.77,9.34-8.83,3.57a12.66,12.66,0,0,1-4-3,15.19,15.19,0,0,1-3.14-4.81,12.42,12.42,0,0,1-.92-6.46,9.82,9.82,0,0,1,2.66-5.45,14.88,14.88,0,0,1,5.39-3.65A14.23,14.23,0,0,1,396.5,149a10.3,10.3,0,0,1,5.79,2.45,11.61,11.61,0,0,1,3.18,4.69,10.82,10.82,0,0,1,.79,6.94,8.54,8.54,0,0,1-3.62,4.83l-2.57-4a5.16,5.16,0,0,0,1.89-2.75,5.43,5.43,0,0,0-.32-3.51A6.23,6.23,0,0,0,398,154c-1.7-.62-3.76-.43-6.2.55-2.63,1.07-4.38,2.43-5.24,4.1a6,6,0,0,0-.17,5.24,7.89,7.89,0,0,0,1.66,2.51,10.12,10.12,0,0,0,2.28,1.81l2.82-1.14-2-5"/><path id="path76" class="cls-1" d="M392.78,199.79l-1.23-4.94,4.79-3.28-2.24-9-5.74-.53-1.2-4.81,25.39,3,1.19,4.8-21,14.78Zm7.1-10.64,7.84-5.25-9.37-.88,1.53,6.13"/><path id="path78" class="cls-1" d="M393,202.69l23.9-.83.16,4.55-15.63,10,16-.56.15,4.35-23.89.83-.17-4.69,15.26-9.87-15.59.55-.15-4.35"/><path id="path80" class="cls-9" d="M107.62,238l1.55,8.81a24.62,24.62,0,0,1,.46,4,5.71,5.71,0,0,1-.57,2.47,6,6,0,0,1-1.67,2,5.78,5.78,0,0,1-2.63,1.16,5.85,5.85,0,0,1-3.19-.3,5.4,5.4,0,0,1-2.47-1.89,5.87,5.87,0,0,1-1.59,3.47,6,6,0,0,1-3.36,1.71,7.47,7.47,0,0,1-3.25-.15,6.36,6.36,0,0,1-2.76-1.48A6.23,6.23,0,0,1,86.5,255c-.21-.73-.59-2.51-1.11-5.34l-1.32-7.51Zm-3.14,5.15-5.44,1,.51,2.92c.31,1.74.53,2.81.65,3.22a2.92,2.92,0,0,0,1.16,1.65,2.67,2.67,0,0,0,2,.33,2.74,2.74,0,0,0,1.68-.88,2.54,2.54,0,0,0,.52-1.82c0-.45-.22-1.72-.59-3.82Zm-9.36,1.65-6.3,1.11.73,4.11a19,19,0,0,0,.68,3,2.74,2.74,0,0,0,1.22,1.45,3.07,3.07,0,0,0,2.12.28,3.41,3.41,0,0,0,1.71-.8,2.79,2.79,0,0,0,.83-1.58,14.23,14.23,0,0,0-.36-4l-.63-3.59"/><path id="path82" class="cls-9" d="M93,278.37l21.84-9.73,6.75,15.17-3.69,1.64-4.92-11-4.84,2.16,4.57,10.26L109,288.48l-4.58-10.27-5.94,2.65,5.08,11.42-3.68,1.64L93,278.37"/><path id="path84" class="cls-9" d="M109.09,309.93l19.58-13.72,2.53,3.6-7.83,16.67,13.09-9.16,2.41,3.44-19.59,13.72-2.61-3.72,7.6-16.34-12.77,8.95-2.41-3.44"/><path id="path86" class="cls-9" d="M149.05,341.67l2.26,4a10.65,10.65,0,0,1-6.38,2.08,9.14,9.14,0,0,1-5.69-2.57,9.37,9.37,0,0,1-3.28-7.32q.06-4.35,3.82-8.54,4-4.43,8.36-5A9.63,9.63,0,0,1,156,327a9,9,0,0,1,3.22,6.39,9.59,9.59,0,0,1-1.24,4.81l-4.09-2.15a5.11,5.11,0,0,0,.73-3.29,4.52,4.52,0,0,0-1.55-2.85,5,5,0,0,0-4.29-1.28q-2.42.38-5.28,3.55c-2,2.25-3.09,4.19-3.19,5.83a4.83,4.83,0,0,0,1.66,4.08,4.36,4.36,0,0,0,3.13,1.17,7.37,7.37,0,0,0,4-1.61"/><path id="path88" class="cls-9" d="M179.1,371.71l-4.22-2.53,1.12-5.67-7.67-4.61L164,362.61l-4.11-2.47,19.79-16,4.1,2.46Zm-2.26-12.39,1.92-9.2-7.16,6.05,5.24,3.15"/><path id="path90" class="cls-9" d="M195.15,377.48l6.59-23,4.23,1.22,4.41,17.88,4.4-15.36,4,1.16-6.59,23-4.37-1.25-4.37-17.48-4.3,15-4-1.16"/><path id="path92" class="cls-9" d="M251.51,387.15l-4.9-.43-1.48-5.58-8.91-.78-2.31,5.25-4.78-.41,10.77-23.07,4.76.42ZM244,377l-2.3-9.11L238,376.47,244,377"/><path id="path94" class="cls-9" d="M278.07,360.25,286,358a14.94,14.94,0,0,1,4.22-.73,7.35,7.35,0,0,1,3.85,1.19,10.53,10.53,0,0,1,3.12,3.12,18.63,18.63,0,0,1,2.26,5.24,16.41,16.41,0,0,1,.74,5.08,10.44,10.44,0,0,1-1.14,4.72,7.63,7.63,0,0,1-2.52,2.71,12.71,12.71,0,0,1-3.71,1.59l-8.18,2.35Zm5.46,2.64,4.37,15.22,3.24-.92a11.15,11.15,0,0,0,2.57-1,4.12,4.12,0,0,0,1.48-1.45,5.19,5.19,0,0,0,.5-2.55,17,17,0,0,0-.76-4.34,15.73,15.73,0,0,0-1.62-4,5.58,5.58,0,0,0-1.87-1.88,4.27,4.27,0,0,0-2.32-.5,18.78,18.78,0,0,0-3.64.81l-2,.55"/><path id="path96" class="cls-9" d="M337.78,362.3l-4.39,2.24-4.2-4-8,4.06.82,5.68-4.27,2.18-3.09-25.27,4.26-2.17Zm-11.71-4.65-6.78-6.51,1.33,9.29,5.45-2.78"/><path id="path98" class="cls-9" d="M351.62,352.63l-15.69-18.05,12.53-10.88,2.65,3.05L342,334.67l3.47,4L354,331.3l2.64,3-8.48,7.37,4.27,4.91,9.44-8.2,2.64,3-12.85,11.17"/><path id="path100" class="cls-9" d="M377.32,328.25l-19.1-14.39,5.73-7.61a15.23,15.23,0,0,1,3.65-3.77,5.29,5.29,0,0,1,3.4-.71,7.32,7.32,0,0,1,3.59,1.49,6.75,6.75,0,0,1,2.67,3.86,7,7,0,0,1-.91,4.87,10.93,10.93,0,0,1,3.06-.73,27.18,27.18,0,0,1,4.65.29l5.37.62-3.25,4.32-6.12-.53a34.15,34.15,0,0,0-4.25-.21,3.51,3.51,0,0,0-1.61.49,6.87,6.87,0,0,0-1.59,1.66l-.54.72,8,6-2.72,3.62ZM369,316.33l2-2.67a16.41,16.41,0,0,0,2.21-3.42,2.43,2.43,0,0,0,0-1.62,3.32,3.32,0,0,0-1.16-1.45,3,3,0,0,0-1.92-.69,2.71,2.71,0,0,0-1.78.8q-.39.39-2,2.58l-2.13,2.82,4.85,3.65"/><path id="path102" class="cls-9" d="M406.58,279.15l-2,4.49-5.76-.42-3.64,8.18,4.22,3.89-1.95,4.38L379.15,282l1.94-4.37Zm-12,3.76-9.37-.79,6.88,6.37,2.49-5.58"/><path id="path104" class="cls-9" d="M412,263l-23.3-5.38,1-4.41,9.17,2.11,2-8.62-9.17-2.12,1-4.41,23.3,5.38L415,250l-10.19-2.36-2,8.63L413,258.63,412,263"/><path id="path106" class="cls-10" d="M107.62,238l1.55,8.81a23.36,23.36,0,0,1,.45,4,5.56,5.56,0,0,1-.56,2.47,6,6,0,0,1-1.67,2,5.78,5.78,0,0,1-2.63,1.16,5.85,5.85,0,0,1-3.19-.3,5.33,5.33,0,0,1-2.47-1.89,5.87,5.87,0,0,1-1.59,3.47,6,6,0,0,1-3.36,1.71,7.47,7.47,0,0,1-3.25-.15,6.36,6.36,0,0,1-2.76-1.48A6.23,6.23,0,0,1,86.5,255c-.21-.73-.59-2.51-1.11-5.34l-1.32-7.51Zm-3.14,5.15-5.44,1,.51,2.91c.31,1.74.53,2.81.66,3.22a2.86,2.86,0,0,0,1.15,1.65,2.67,2.67,0,0,0,2,.33,2.74,2.74,0,0,0,1.68-.88,2.54,2.54,0,0,0,.52-1.82c0-.45-.22-1.72-.59-3.82Zm-9.36,1.65-6.3,1.11.73,4.11a19,19,0,0,0,.68,3,2.8,2.8,0,0,0,1.22,1.46,3.13,3.13,0,0,0,2.12.27,3.41,3.41,0,0,0,1.71-.8,2.79,2.79,0,0,0,.83-1.58,14.23,14.23,0,0,0-.36-4l-.63-3.59Z"/><path id="path108" class="cls-10" d="M93,278.37l21.84-9.73,6.75,15.17-3.69,1.64-4.92-11-4.84,2.16,4.57,10.26L109,288.48l-4.58-10.27-5.94,2.65,5.08,11.42-3.68,1.64Z"/><path id="path110" class="cls-10" d="M109.09,309.93l19.58-13.72,2.53,3.6-7.83,16.67,13.09-9.16,2.41,3.44-19.59,13.72-2.61-3.72,7.6-16.34-12.77,8.95Z"/><path id="path112" class="cls-10" d="M149.05,341.67l2.26,4a10.65,10.65,0,0,1-6.38,2.08,9.14,9.14,0,0,1-5.69-2.57,9.37,9.37,0,0,1-3.28-7.32q.06-4.35,3.82-8.54,4-4.43,8.36-5A9.63,9.63,0,0,1,156,327a9,9,0,0,1,3.22,6.39,9.59,9.59,0,0,1-1.24,4.81l-4.09-2.15a5.11,5.11,0,0,0,.73-3.29,4.52,4.52,0,0,0-1.55-2.85,5,5,0,0,0-4.29-1.28c-1.61.25-3.37,1.44-5.28,3.55s-3.09,4.19-3.19,5.83a4.83,4.83,0,0,0,1.66,4.08,4.36,4.36,0,0,0,3.13,1.17A7.37,7.37,0,0,0,149.05,341.67Z"/><path id="path114" class="cls-10" d="M179.1,371.71l-4.22-2.53,1.12-5.67-7.67-4.61L164,362.61l-4.11-2.47,19.79-16,4.1,2.46Zm-2.26-12.39,1.92-9.2-7.16,6.05Z"/><path id="path116" class="cls-10" d="M195.15,377.48l6.59-23,4.23,1.21,4.41,17.88,4.4-15.36,4,1.16-6.59,23-4.37-1.25-4.37-17.48-4.3,15Z"/><path id="path118" class="cls-10" d="M251.51,387.15l-4.9-.43-1.48-5.58-8.91-.78-2.31,5.25-4.78-.41,10.77-23.07,4.76.42ZM244,377l-2.3-9.12L238,376.47Z"/><path id="path120" class="cls-10" d="M278.07,360.25,286,358a14.94,14.94,0,0,1,4.22-.73,7.35,7.35,0,0,1,3.85,1.19,10.53,10.53,0,0,1,3.12,3.12,18.63,18.63,0,0,1,2.26,5.24,16.41,16.41,0,0,1,.74,5.08,10.44,10.44,0,0,1-1.14,4.72,7.63,7.63,0,0,1-2.52,2.71,12.71,12.71,0,0,1-3.71,1.59l-8.18,2.35Zm5.46,2.64,4.37,15.22,3.24-.92a11.15,11.15,0,0,0,2.57-1,4.12,4.12,0,0,0,1.48-1.45,5.19,5.19,0,0,0,.5-2.55,16.62,16.62,0,0,0-.77-4.34,15.41,15.41,0,0,0-1.61-4,5.58,5.58,0,0,0-1.87-1.88,4.27,4.27,0,0,0-2.32-.5,18.78,18.78,0,0,0-3.64.81Z"/><path id="path122" class="cls-10" d="M337.78,362.3l-4.39,2.24-4.2-4-8,4.06.82,5.68-4.27,2.18-3.09-25.27,4.26-2.17Zm-11.71-4.65-6.78-6.51,1.33,9.29Z"/><path id="path124" class="cls-10" d="M351.62,352.63l-15.69-18.05,12.53-10.88,2.65,3.05L342,334.67l3.47,4L354,331.3l2.64,3-8.48,7.37,4.27,4.92,9.44-8.21,2.64,3-12.85,11.17Z"/><path id="path126" class="cls-10" d="M377.32,328.25l-19.1-14.39,5.73-7.61a15.23,15.23,0,0,1,3.65-3.77,5.29,5.29,0,0,1,3.4-.71,7.32,7.32,0,0,1,3.59,1.49,6.63,6.63,0,0,1,2.66,3.87,6.92,6.92,0,0,1-.9,4.86,10.93,10.93,0,0,1,3.06-.73,27.22,27.22,0,0,1,4.65.29l5.37.62-3.25,4.32-6.12-.53a34.08,34.08,0,0,0-4.24-.21,3.56,3.56,0,0,0-1.62.49,6.87,6.87,0,0,0-1.59,1.66l-.54.73,8,6-2.72,3.62ZM369,316.33l2-2.67a16.41,16.41,0,0,0,2.21-3.42,2.43,2.43,0,0,0,0-1.62,3.32,3.32,0,0,0-1.16-1.45,3,3,0,0,0-1.92-.69,2.71,2.71,0,0,0-1.78.8q-.39.39-2,2.58l-2.13,2.82,4.85,3.65Z"/><path id="path128" class="cls-10" d="M406.58,279.15l-2,4.49-5.76-.42-3.64,8.18,4.22,3.89-2,4.38L379.15,282l1.94-4.37Zm-12,3.76-9.37-.79,6.88,6.37Z"/><path id="path130" class="cls-10" d="M412,263l-23.3-5.38,1-4.41,9.17,2.11,2-8.62-9.17-2.12,1-4.41L416,245.59,415,250l-10.19-2.35-2,8.62L413,258.63Z"/></g></g><path id="path34-2" data-name="path34" class="cls-11" d="M131.65,430.27H158q6.6,0,10.11,3.26a10.55,10.55,0,0,1,3.53,8.08,10.19,10.19,0,0,1-2.51,6.93,11.24,11.24,0,0,1-4.91,3,12.76,12.76,0,0,1,7.22,4.05,11.18,11.18,0,0,1,2.31,7.22,12.52,12.52,0,0,1-1.64,6.38,12.17,12.17,0,0,1-4.51,4.47,14.85,14.85,0,0,1-5.34,1.49,63,63,0,0,1-6.31.62h-24.3V430.27Zm14.2,17.87H152q3.28,0,4.59-1.14a4.13,4.13,0,0,0,1.29-3.27,3.89,3.89,0,0,0-1.29-3.11c-.87-.75-2.36-1.13-4.5-1.13h-6.21Zm0,17.89H153c2.43,0,4.14-.42,5.12-1.28a4.35,4.35,0,0,0,1.5-3.47,4,4,0,0,0-1.48-3.25c-1-.81-2.7-1.23-5.17-1.23h-7.15V466"/><path id="path36-2" data-name="path36" class="cls-11" d="M202.5,430.27h23.4q7.64,0,11.45,3.64c2.53,2.41,3.8,5.87,3.8,10.34s-1.38,8.2-4.15,10.78-7,3.89-12.66,3.89h-7.7v16.9H202.5Zm14.14,19.42h3.45c2.71,0,4.61-.47,5.72-1.41a4.59,4.59,0,0,0,1.64-3.62A5.07,5.07,0,0,0,226,441q-1.43-1.49-5.37-1.49h-4v10.16"/><path id="path38-2" data-name="path38" class="cls-11" d="M270,430.27h26.36q6.59,0,10.11,3.26a10.58,10.58,0,0,1,3.53,8.08,10.24,10.24,0,0,1-2.51,6.93,11.3,11.3,0,0,1-4.91,3,12.79,12.79,0,0,1,7.22,4.05,11.18,11.18,0,0,1,2.31,7.22,12.52,12.52,0,0,1-1.64,6.38,12.24,12.24,0,0,1-4.51,4.47,14.92,14.92,0,0,1-5.35,1.49,62.75,62.75,0,0,1-6.31.62H270V430.27Zm14.21,17.87h6.12q3.29,0,4.59-1.14a4.13,4.13,0,0,0,1.28-3.27,3.88,3.88,0,0,0-1.28-3.11c-.87-.75-2.37-1.13-4.5-1.13h-6.21Zm0,17.89h7.18c2.43,0,4.13-.42,5.12-1.28a4.35,4.35,0,0,0,1.5-3.47,4,4,0,0,0-1.48-3.25c-1-.81-2.7-1.23-5.18-1.23h-7.14V466"/><path id="path40-2" data-name="path40" class="cls-11" d="M341.09,430.27H362a25.23,25.23,0,0,1,10,1.67,16.38,16.38,0,0,1,6.29,4.82,20.36,20.36,0,0,1,3.61,7.31,34.1,34.1,0,0,1,1.11,8.82q0,7.31-1.67,11.33a18.48,18.48,0,0,1-4.61,6.73,14.91,14.91,0,0,1-6.33,3.63,32.64,32.64,0,0,1-8.39,1.24H341.09V430.27Zm14.07,10.32v24.88h3.45c2.94,0,5-.32,6.28-1a6.63,6.63,0,0,0,2.92-3.41c.7-1.62,1.05-4.27,1.05-7.91q0-7.25-2.35-9.91c-1.58-1.78-4.2-2.67-7.84-2.67h-3.51"/></svg>