<?xml version="1.0" encoding="utf-8"?>
<!-- Generator: Adobe Illustrator 24.0.2, SVG Export Plug-In . SVG Version: 6.00 Build 0)  -->
<svg version="1.1" id="svg2" xmlns:svg="http://www.w3.org/2000/svg"
	 xmlns="http://www.w3.org/2000/svg" xmlns:xlink="http://www.w3.org/1999/xlink" x="0px" y="0px" viewBox="0 0 500 500"
	 style="enable-background:new 0 0 500 500;" xml:space="preserve">
<style type="text/css">
	.st0{fill:#FFFFFF;}
	.st1{fill:none;stroke:#231F20;stroke-width:4.6062;stroke-miterlimit:2.613;}
	.st2{fill:#231F20;}
	.st3{fill:#ED1C24;}
</style>
<rect class="st0" width="500" height="500"/>
<path id="path103000" class="st0" d="M240.8,14.4C329,14.4,401,86.3,401,174.6c0,88.2-71.9,160.1-160.2,160.1S80.6,262.7,80.6,174.6
	C80.6,86.3,152.7,14.4,240.8,14.4"/>
<path id="path103004" class="st1" d="M240.8,14.4C329,14.4,401,86.3,401,174.6c0,88.2-71.9,160.1-160.2,160.1S80.6,262.7,80.6,174.6
	C80.6,86.3,152.7,14.4,240.8,14.4z"/>
<path id="path103008" class="st2" d="M105.7,214.9c-6.1,3.4-8.6,10.8-5.6,17.6c4.3,9.4,14,11.9,22.6,8c8.5-3.7,13.5-12.2,9.4-21
	c-3.1-6.8-9.9-9.8-17.5-7.5l1.9,5.1c4.6-1.5,9.4,0,11.4,4.7c2.8,6.4-2.2,11.1-7.9,13.7c-5.7,2.6-12.4,1.8-15.3-4.7
	c-2-4.4-0.2-7.9,2.8-10.3L105.7,214.9L105.7,214.9z M90,194.4c1.1,9.7,10.1,15.3,19.2,13.7c9.3-1.5,16.1-7.9,14.8-17.6
	c-1.4-9.7-9.4-13.7-18.5-13.2C96.2,178,88.8,184.6,90,194.4 M94.6,193.7c-0.8-7.1,4.8-10.2,11-10.8c6.3-0.7,12.9,1.6,13.7,8.4
	c0.9,7.1-5.1,10.3-11.2,11.2C101.9,203.5,95.5,200.6,94.6,193.7 M122.3,173.9l0.2-5.2l-24.7-2.2l25.7-6.4l0.4-4.7l-23.7-14.1l25.6,5
	l1.4-5.1l-33-6.4l-1.6,7.7l24,14.2v0.1l-26.9,5.9l-0.4,8.7L122.3,173.9L122.3,173.9z M128.6,137.1l2-5.4l-31.3-11.6l-2,5.4
	C97.4,125.5,128.6,137.1,128.6,137.1z M105.9,116.9l4.9-9.3l23.8,14.8l2.7-5.1l-23.7-14.8l5.1-9.3l-4.2-2.6l-13.2,24.1L105.9,116.9z
	 M143.1,107.4l15.2-17.9l-3.4-3.5l-11.5,13.9l-7.5-6.7l10.3-12.6l-3.2-3.2L132.2,90l-6.5-5.9l11.5-13.2l-3.5-3.7l-15.3,18.2
	L143.1,107.4L143.1,107.4z M176,75.4l4.9-3l-17.6-28.3l-4.9,3L176,75.4L176,75.4z M185.4,69.8l4.8-2.3l-9.7-22.2l0.1-0.1l22.1,16.9
	l5.7-1.7l-10.1-31.7l-5.4,1.6l7.3,23.6H200l-22.5-17.4l-5.5,2.8L185.4,69.8L185.4,69.8z M203.4,32.8l9.8-1.7l4.3,27l5.7-0.8l-4.3-27
	l10.2-1.8l-0.5-5.2l-26.4,4.5L203.4,32.8L203.4,32.8z M234.4,56.3l23.8,0.8l0.1-4.9l-18.1-0.7l0.3-10l16.4,0.4l0.1-4.7l-16.4-0.4
	l0.1-8.9l17.7,0.8l0.1-5l-23.4-0.9L234.4,56.3L234.4,56.3z M274.6,31.4l9,2.5c2.9,0.7,4.9,2.8,3.7,6.8c-0.9,3.3-3,4.5-6.4,3.4
	l-9.4-2.6C271.5,41.6,274.6,31.4,274.6,31.4z M261.4,57.7l5.2,1.1l3.7-13.1l8.4,2.3c5.1,1.4,5.2,4.4,3.5,10.1
	c-0.4,1.6-0.9,3.4-0.5,5l5.8,2.5c-0.8-1.7-0.2-5.9,0.7-9.6c1.5-5-0.6-7.2-2.4-8v-0.1c1.1,0,5.4-0.4,7.2-6.4c1.6-5.3-0.7-10-7.6-12
	l-15.1-4.2L261.4,57.7L261.4,57.7z M289.9,66.5l5,2.4l11.2-21.1l0.1,0.1l1.8,29l4.7,3.5l17.9-28l-4.6-3.5l-13.3,20.7L311,40
	l-5.6-2.7L289.9,66.5L289.9,66.5z M344.6,71.7L344.6,71.7L344.6,71.7L338,86l-7-7.3L344.6,71.7L344.6,71.7z M314.1,81.4l4.6,3.8
	l8.3-4.4l9.1,9.4l-4.1,9l3.8,4.7l14.8-34.1l-4.5-4.3L314.1,81.4L314.1,81.4z M355.3,83l5.4,7.9l-23.2,15.6l3.1,4.8l23.3-15.6
	l5.9,8.6l4.3-2.4l-14.8-21.8L355.3,83L355.3,83z M346.4,121l2.4,5.2L379,112l-2.4-5.2L346.4,121L346.4,121z M387.7,134.4
	c-2.6-9.4-11.7-13.2-20.7-10.3c-8.8,3-14.9,10.7-12.3,20.2c2.5,9.3,11.4,12.4,20.4,10C384.3,151.9,390.3,143.8,387.7,134.4
	 M383.1,136c1.9,6.5-3.5,11.6-9.6,13.2c-6,1.6-12.6,0.5-14.4-6c-1.8-6.8,3.4-11.5,9.5-13.4C374.6,127.9,381.2,129.2,383.1,136
	 M358.6,161.7l0.3,5.4l24.2-1.4v0.1l-24.2,16l-0.3,6l33,2.8l0.5-6.1l-24.7-1.7v-0.3l24.9-16.1l-0.4-6.4L358.6,161.7L358.6,161.7z
	 M381.6,213.1L381.6,213.1v0.1l-15.6,0.3l2.8-9.6L381.6,213.1L381.6,213.1z M358.3,190.6l-0.8,5.8l7.7,5l-3.7,12.5l-9,0.5l-2.1,5.7
	l35.9-2.4l1.7-5.8L358.3,190.6L358.3,190.6z M349.1,222.8l-10.8,19.5l4.4,2.4l8-14.6l24.9,13.9l2.8-5L349.1,222.8"/>
<path id="path103012" class="st2" d="M315.2,307.2l19.3-13.3l-2.8-4.2l-14.7,10.2l-5.5-8.1l13.3-9.5l-2.6-4l-13.3,9.4l-4.9-7.6
	l14.4-10l-2.8-4.2l-19.2,13.1L315.2,307.2L315.2,307.2z"/>
<path id="path103016" class="st2" d="M290.3,318.4l5.9-2.2l-2-35.9l-5.2,2.3l1.9,28.2h-0.1l-17.4-22.6l-5.6,1.7L290.3,318.4
	L290.3,318.4z"/>
<path id="path103020" class="st2" d="M248,326.2l23.3-2.8l-1-4.8l-17.5,2l-1.2-10l15.3-1.9l-0.9-4.6l-15.2,1.8l-1-9l16.9-1.8
	l-0.9-4.9l-21.6,2.6L248,326.2L248,326.2z"/>
<path id="path103024" class="st2" d="M176.1,311.9l22.1,8.2l1.2-4.8l-16.3-6.1l3.3-9.5l14.8,5.6l1.1-4.5l-14.3-5.5l3-8.7l15.8,6.3
	l1.2-4.7l-20.5-8.1L176.1,311.9L176.1,311.9z"/>
<path id="path103028" class="st2" d="M176.7,292.5l-11.6-7.4l-2.4,3.5l7.6,4.8c-3.2,4.5-8.2,5.5-13.1,2.1c-5.7-4.1-4.7-11-1.1-16.1
	c3.5-5.1,9.3-8.2,15.1-4.2c3.4,2.4,5.3,6.3,3.3,10.2l4.9,2.8c3.4-6.5,0.3-12.7-5.6-16.7c-8.1-5.7-17.3-2.9-22.5,4.7
	c-5.2,7.7-4.8,17.6,3.3,23.3c3.3,2.3,6.3,2.7,10.9,1.7l-0.7,4.7l3,1.8L176.7,292.5"/>
<path id="path103032" class="st2" d="M207.5,322.6l5.5,1.1l4.4-24.3h0.1l13.1,26.5l6.1,0.3l1.6-33.4l-5.1-0.1l-1,24.4h-0.1
	L219,290.9l-5.8-1.1L207.5,322.6L207.5,322.6z"/>
<path id="path103036" class="st1" d="M240.8,64.6c60.5,0,110,49.4,110,109.9s-49.5,110-110,110c-60.6,0-109.9-49.4-109.9-109.9
	S180.2,64.6,240.8,64.6z"/>
<path id="path103040" class="st3" d="M217.5,151.2V95.2h46.6v56h56v46.7h-56v55.8h-46.6v-55.9h-56v-46.7L217.5,151.2L217.5,151.2z"
	/>
<g>
	<path id="path103042" class="st2" d="M69.9,370.6H85v113.6H69.9V370.6L69.9,370.6z"/>
	<path id="path103046" class="st2" d="M190.3,404.9c-3.2-16.1-16.1-24.2-31.8-24.2c-27,0-38.4,22.3-38.4,46
		c0,25.9,11.4,47.6,38.6,47.6c19.9,0,31.3-14,32.7-32.8h15.1c-2.8,28.3-20.5,45.5-49.1,45.5c-35.3,0-52.5-26.1-52.5-59.2
		c0-33,18.8-59.8,53.7-59.8c23.7,0,43.2,12.8,46.7,36.9H190.3"/>
	<path id="path103050" class="st2" d="M240.3,423v-39.6h37.5c14.2,0,20.2,8.3,20.2,19.4c0,16.5-12.1,20.2-26.2,20.2H240.3L240.3,423
		z M225.2,484.3h15.1v-48.5h36.9c14.6,0,17.3,9.4,18.9,20.5c2.2,11.1-0.2,23.4,4.2,28h16.8c-6.3-7.8-5.7-20.2-6.7-31.3
		c-1.1-11.1-3.8-20.8-17-23.4v-0.3c13.7-3.8,19.7-15.1,19.7-28.8c0-18.2-13.2-29.8-34.5-29.8h-53.4L225.2,484.3"/>
	<path id="path103054" class="st2" d="M413.9,404.9c-3.2-16.1-16.1-24.2-31.8-24.2c-27,0-38.4,22.2-38.4,46
		c0,25.9,11.4,47.6,38.6,47.6c19.9,0,31.3-14,32.7-32.8h15.1c-2.9,28.3-20.5,45.5-49.1,45.5c-35.3,0-52.5-26.1-52.5-59.2
		c0-33,18.8-59.8,53.7-59.8c23.7,0,43.2,12.8,46.7,36.9L413.9,404.9"/>
</g>
</svg>
