<svg id="Layer_1" data-name="Layer 1" xmlns="http://www.w3.org/2000/svg" viewBox="0 0 500 500"><defs><style>.cls-1,.cls-3{fill:#fff;}.cls-2{fill:#e30016;}.cls-2,.cls-3,.cls-4{fill-rule:evenodd;}.cls-5{fill:none;}</style></defs><title>pmi</title><rect class="cls-1" width="500" height="500"/><g id="Layer1002"><path id="path22" class="cls-2" d="M97.11,334.23l-1.08.84-1.11.8-1.14.77-1.16.72-1.19.69-1.21.66-1.23.61-1.26.57-1.27.53-1.3.5-1.32.44-1.33.41-1.36.36-1.37.31-1.39.27-1.4.22-1.42.17-1.43.13-1.44.07-1.47,0-2.14-.06L67,343.11l-2.1-.27-2.07-.38-2-.48-2-.58-2-.67L54.92,340l-1.86-.85-1.81-.95-1.76-1L47.79,336l-1.65-1.19-1.58-1.27L43,332.22l-1.46-1.41-1.39-1.49-1.32-1.55-1.25-1.61-1.17-1.67-1.09-1.73-1-1.79-.93-1.84-.85-1.89-.75-1.94-.66-2-.57-2-.47-2.06-.37-2.1L29.47,305l-.16-2.17-.06-2.16v-1l0-1,.06-1,.08-1,.1-1,.12-1,.15-1,.16-1,.19-1,.21-.94.23-.94.25-.94.27-.92.29-.91.31-.91.33-.9.35-.88.37-.88.38-.86.4-.86L34,281l.43-.83.46-.83.48-.81.49-.8.26-.4L35,276.91l-1.63-.71-1.6-.78-1.55-.85-1.52-.91-1.47-1-1.43-1-1.39-1.09-1.34-1.14-1.29-1.2L20.55,267l-1.19-1.3-1.13-1.36-1.08-1.4-1-1.44-1-1.5-.9-1.53-.85-1.58-.78-1.61-.71-1.65-.64-1.69-.58-1.72-.5-1.75-.44-1.79-.35-1.81L9.12,243l-.2-1.86-.12-1.88,0-1.91.05-2.18L9,233l.27-2.13.37-2.1.47-2.07.57-2,.67-2,.75-1.94.84-1.89.93-1.84,1-1.78,1.1-1.73,1.17-1.68,1.25-1.61,1.32-1.55,1.39-1.48,1.46-1.42,1.52-1.34,1.59-1.27L27.29,202,29,200.86l1.76-1,1.81-.94,1.86-.86,1.9-.77,2-.67,2-.58,2-.48,2.06-.37,2.1-.28,2.13-.16,2.12-.06H51.9l.57,0,.57,0,.57,0,.56.05.57.05.56,0,.56.07.56.07.55.08.55.09.56.1.54.1.55.11.54.12.54.12.54.13.54.14.53.14.44.13v-.19l.16-2.16.27-2.13.37-2.1.47-2.07.57-2,.66-2,.75-1.94.85-1.89.92-1.84,1-1.78,1.09-1.74,1.17-1.67,1.25-1.61,1.32-1.55,1.39-1.48L76,166.73l1.52-1.34,1.59-1.27,1.65-1.19,1.7-1.11,1.76-1,1.81-.94,1.86-.86,1.91-.77,2-.67,2-.58,2-.48,2.07-.37,2.09-.28,2.13-.16,2.16-.06,2.15.06,2.13.16,2.1.28,2.06.37,2,.48,2,.58,2,.67,1.9.77,1.86.86,1.81.94,1.76,1,1.71,1.11,1.64,1.19,1.59,1.27,1.52,1.34,1.46,1.42,1.39,1.48,1.32,1.55,1.25,1.61,1.17,1.67,1.09,1.74,1,1.78.93,1.84.84,1.89.75,1.94.67,2,.56,2,.48,2.06.37,2.11L146,194l.17,2.16v.22l.41-.12.53-.14.53-.14.54-.13.54-.12.54-.12.54-.11.54-.1.55-.09.55-.09.55-.08.55-.07.56-.06.56-.06.56,0,.56,0,.56,0,.57,0,.56,0,.57,0h.61l2.12.06,2.12.16,2.1.27,2.07.38,2,.48,2,.58,2,.67,1.91.77,1.86.85,1.81.95,1.76,1,1.7,1.11,1.65,1.19,1.58,1.27,1.53,1.34,1.46,1.41,1.39,1.49,1.32,1.55,1.25,1.61,1.17,1.67,1.09,1.73,1,1.79.93,1.84.85,1.89.75,1.94.66,2,.57,2,.47,2.06.37,2.1.27,2.14.16,2.16.06,2.18,0,1.9-.13,1.88-.2,1.86-.28,1.83-.35,1.8-.43,1.78-.5,1.75-.58,1.72-.64,1.68-.71,1.65-.77,1.61-.84,1.57-.9,1.53-1,1.49-1,1.45-1.07,1.4-1.13,1.35L187.9,267l-1.24,1.26-1.28,1.2-1.33,1.14-1.38,1.09-1.43,1-1.46,1-1.51.91-1.55.85-1.58.78-1.63.72-1,.42.29.44.5.8.48.82.47.83.44.84.43.85.41.86.39.88.38.88.35.89.34.91.31.91.3.92.27.93.26.94.23,1,.21,1,.2,1,.17,1,.14,1,.13,1,.1,1,.08,1,.06,1,0,1v1.05l0,2.16-.17,2.16-.26,2.13-.38,2.1-.47,2.07-.56,2-.67,2-.75,1.93-.84,1.89-.93,1.84-1,1.79-1.09,1.73-1.17,1.68L169.84,328l-1.32,1.55L167.13,331l-1.46,1.41-1.52,1.35L162.56,335l-1.65,1.2-1.7,1.11-1.76,1-1.81.94-1.86.86-1.9.76-2,.68-2,.58-2,.47-2.06.38-2.1.27-2.13.17-2.14.05-1.48,0-1.45-.08-1.44-.12-1.42-.18-1.41-.22-1.4-.28-1.38-.31-1.36-.37-1.34-.41-1.33-.45-1.3-.5-1.28-.53-1.27-.58-1.23-.62-1.22-.66-1.19-.7-1.17-.74-1.14-.77-1.11-.81-1.09-.85-1.06-.88-1-.91-1-.95-1-1-.93-1-.91-1-.87-1.06-.42-.55-.39.51-.88,1.06-.9,1-.94,1-1,1-1,.94-1,.9Z"/><path id="path24" class="cls-3" d="M165.84,275.16a38.88,38.88,0,0,1,9.66,25.7c0,21.3-17.09,38.67-38.05,38.67a38,38,0,0,1-33.16-19.76,38,38,0,0,1-33,19.54c-21,0-38-17.37-38-38.67a38.88,38.88,0,0,1,9.49-25.5,38.63,38.63,0,0,1-30-37.79c0-21.3,17.09-38.67,38-38.67a37.29,37.29,0,0,1,15.64,3.43c-.12-1.25-.19-2.52-.19-3.8,0-21.3,17.09-38.67,38.05-38.67s38,17.37,38,38.67a37.1,37.1,0,0,1-.19,3.81,37.29,37.29,0,0,1,15.53-3.38c21,0,38.05,17.37,38.05,38.67a38.63,38.63,0,0,1-29.84,37.75Z"/><path id="path26" class="cls-2" d="M85.54,196.1h37.2v37.75h37.13v37.81H122.74V309.4H85.54V271.66H48.41V233.85H85.54Z"/><path id="path28" class="cls-4" d="M292.7,344.2a7.92,7.92,0,0,1-3.16-1,8.1,8.1,0,0,1-3.91-4.55l-.09-.09c-.33-1.09-.65-2.18-1-3.24-.12-.58-.21-1.12-.3-1.67-.12-1.24-.24-2.46-.36-3.67,0-2.76,0-5.49.06-8.22a31,31,0,0,1,1.1-6.13,10.53,10.53,0,0,1,3.38-5.58c.44-.3.89-.6,1.34-.88a8.36,8.36,0,0,1,.86-.39,10.12,10.12,0,0,1,1-.3,26.09,26.09,0,0,1,3-.31c.66.09,1.32.19,2,.31a9.68,9.68,0,0,1,1.85.85,8.9,8.9,0,0,1,2.84,2.69h.12a.63.63,0,0,1,.12-.18q0-6.87,0-13.74c.15-.15.33-.15.54-.24H310c.18,0,.3.15.42.27q0,22.62,0,45.26a1,1,0,0,1-.66.24h-7.4l-.27-.27c0-1-.06-1.95-.06-2.89a.88.88,0,0,0-.27-.06,9.59,9.59,0,0,1-4.59,3.61,12,12,0,0,1-4.48.22Z"/><path id="path30" class="cls-4" d="M328.21,344.38a.43.43,0,0,1-.06-.18,18.46,18.46,0,0,1-4-.91c-.41-.22-.8-.43-1.19-.61l-1.49-1.18a6.48,6.48,0,0,1-1-1.22c-.47,0-1.55-3-1.73-3.27-.24-.85-.45-1.7-.65-2.52-.21-1.67-.42-3.34-.6-5v-.13c0-1.88,0-3.76,0-5.64a5.5,5.5,0,0,1,.18-1.85,18.62,18.62,0,0,1,.89-5.09,13.84,13.84,0,0,1,1.47-3.37c.17-.3.35-.58.53-.85a.63.63,0,0,1,.18-.12,4.16,4.16,0,0,1,1.58-1.64c0-.3,1.14-.79,1.38-1a3.26,3.26,0,0,1,.59-.3l1.91-.73a29,29,0,0,1,5.79-.61c.9.09,1.79.19,2.69.31a23.46,23.46,0,0,1,2.92.91l1.31.72a4,4,0,0,0,.9.64.23.23,0,0,0,0,.12,10.73,10.73,0,0,1,3.13,5.22s.06.09.12.15a35.08,35.08,0,0,1,.78,4.31,20.68,20.68,0,0,1,.29,3.7c0,2.15-.05,4.3-.08,6.49-.33.85-.06,2.36-.51,3.06-.15.64-.27,1.31-.39,2-.12.37-.24.76-.36,1.16a5.58,5.58,0,0,0-.3.75,18,18,0,0,1-1.94,3.16,4.86,4.86,0,0,0-1,1,7.26,7.26,0,0,1-2.42,1.39,14,14,0,0,1-4.44,1.07v.15h-4.18v-.15h-.18v.15Z"/><path id="path32" class="cls-4" d="M395.14,344.38v-.15a13.52,13.52,0,0,1-4.48-1.1,4.79,4.79,0,0,1-1.43-.75v-.13c-.57,0-1.79-1.48-2.09-1.76a12.25,12.25,0,0,1-2-4.09,14.19,14.19,0,0,1-.8-3.7l-.09-2.73c-.39-.82.15-2.15-.21-3.06,0-1.19.06-2.37.12-3.55.06-.82.12-1.64.18-2.43s.18-1.48.3-2.21c.24-.88.47-1.76.71-2.64.21-.55.42-1.09.66-1.61a4.89,4.89,0,0,0,.57-1.12c.44-.61.89-1.18,1.37-1.76.42-.36.86-.73,1.31-1.06,0-.33,1.34-.79,1.64-1.09a3.63,3.63,0,0,1,.54-.15.27.27,0,0,1,.15-.13,20.53,20.53,0,0,1,6.62-1c1,.15,2.57,0,3.38.52a10.62,10.62,0,0,1,3.78,1.73,10.4,10.4,0,0,1,3,3.88,9.65,9.65,0,0,1,.92,2.76,1.77,1.77,0,0,0,.12.24c.12.79.24,1.61.39,2.43.09,1.36.18,2.73.3,4.09a23.11,23.11,0,0,1-.06,3.86c-5.64,0-11.25,0-16.86.06-.21.09-.21.18-.3.39a19.2,19.2,0,0,0,.12,3.22c0,2.36.45,5,2.36,6.55l1,.45h1.79a7.41,7.41,0,0,1,.87-.3,5.32,5.32,0,0,0,2.06-2.7,20.37,20.37,0,0,0,.62-3.09,2.63,2.63,0,0,1,.18-.34h7.52a2.13,2.13,0,0,1,.18.31c-.06.75-.12,1.51-.15,2.3a10,10,0,0,1-.41,1.73c-.42,2-1.94,5-3.85,6,0,.25-1.65.94-2,1.16a13.17,13.17,0,0,0-2.15.6c-.6.06-1.17.12-1.73.22v.15Z"/><path id="path34" class="cls-4" d="M427,344.38v-.15c-1.17-.13-2.36-.34-3.49-.58-.54-.18-1.05-.36-1.55-.55-1.26-.63-3.05-1.79-3.56-3.21-1-1.34-1.07-3.34-1.25-4.92,0-.81,0-1.63,0-2.45a.81.81,0,0,1,.21-.24c2.51,0,5,0,7.58,0,0,.84.09,1.69.15,2.57.24.67.51,2,1.13,2.28,0,.51,1.88,1.18,2.3,1.24h2a5.38,5.38,0,0,0,1.82-.7A6.29,6.29,0,0,0,433.6,336a13,13,0,0,0,.21-1.89c-.09-.39-.15-.78-.21-1.15a3.28,3.28,0,0,1-.24-.45c-.18-.18-.32-.37-.47-.55l-1.41-1.06c-1-.27-1.88-.85-2.86-1.09a2.31,2.31,0,0,0-.9-.34c0-.12-.68-.27-.8-.27a12.66,12.66,0,0,1-2-.82,14.51,14.51,0,0,1-1.91-.69c-.87-.61-2.12-1-2.78-1.89a6.25,6.25,0,0,1-2.11-2.94,1.22,1.22,0,0,1-.15-.27c-.15-.46-.27-.91-.39-1.37l-.27-1.81V318c.3-.79.12-1.82.51-2.64a7.8,7.8,0,0,1,2.21-3.88c.59-.49,1.19-.94,1.82-1.4a20.14,20.14,0,0,1,2.5-1.06,13.39,13.39,0,0,1,4.24-.73,20.75,20.75,0,0,1,4.92.22,16,16,0,0,1,3.79,1.27c.54.39,1.08.79,1.61,1.21a3.25,3.25,0,0,0,.63.7,8.28,8.28,0,0,1,1.34,2.61,13.31,13.31,0,0,1,.57,5.1l-7.64.09c-.33-.34-.24-.79-.27-1.25s-.15-.88-.21-1.3c-.24-.49-.44-1-.65-1.46-.27-.24-.54-.45-.81-.66s-.45-.22-.65-.31a12.84,12.84,0,0,0-2.84,0,10.56,10.56,0,0,0-1.82,1.06c-.21.31-.42.61-.6.94s-.18.73-.24,1.13.06.72.09,1.12a5.35,5.35,0,0,0,.15.64c.12.21.24.42.36.66a6.68,6.68,0,0,0,2,1.52A36.11,36.11,0,0,0,432.5,323c1.22.43,2.44.88,3.7,1.34a7.59,7.59,0,0,1,1.91,1.06l.77.46c.15.12.3.24.48.36v.12h.09c.36.46.75.91,1.13,1.37.6,0,1.26,2.88,1.44,3.27a25.28,25.28,0,0,1,.15,3.7,10.66,10.66,0,0,1-1.05,4.19,10.26,10.26,0,0,1-2.39,2.85c0,.36-2.14,1.39-2.65,1.58,0,0-.06.06-.06.09-.84.21-1.64.42-2.45.66-.71.06-1.4.12-2.09.22v.15h-4v-.15h-.3v.15Z"/><path id="path36" class="cls-4" d="M471.74,344.38a.43.43,0,0,1-.06-.18c-1.64-.25-3.7-1-4.6-2.58H467a6.47,6.47,0,0,1-1.07-2.07c-.54-.66-.72-2.42-.87-3.15v-4a7.46,7.46,0,0,1,.57-2.31,6.45,6.45,0,0,1,2.48-3.76.63.63,0,0,1,.12-.18,13.65,13.65,0,0,1,3.43-1.73,8.92,8.92,0,0,1,1.94-.61,3.44,3.44,0,0,1,.53-.21c1.44-.27,2.84-.82,4.27-1.09a9.56,9.56,0,0,1,.95-.3,4.54,4.54,0,0,1,.75-.31c.33-.24.69-.48,1.05-.73a2.85,2.85,0,0,1,.29-.45,5.7,5.7,0,0,0,.39-1.21c0-.61.24-2.46-.24-2.95a4.63,4.63,0,0,1-.15-.51c-.06,0-.09-.06-.12-.06,0-.21-.41-.64-.53-.85l-.54-.36c-.27-.13-.54-.22-.78-.31-1.25-.21-3.43-.39-4.29.85-.63.4-.87,1.4-1.11,2,0,.76-.06,1.52-.09,2.31-2.59,0-5.19,0-7.78.06-.06,0-.09-.06-.12-.06,0-.76,0-1.52,0-2.25a11.21,11.21,0,0,1,2.41-6c.36-.33.72-.67,1.11-1a7.3,7.3,0,0,1,2.12-1.15,8.5,8.5,0,0,1,1.55-.58c.42-.12.83-.21,1.28-.3l2.39-.19c1-.33,2.44,0,3.55,0l1.76.19c.48.09,1,.18,1.43.3a4.59,4.59,0,0,1,1.37.52,6.38,6.38,0,0,1,3.73,2.88c.81.82.9,2.42,1.29,3.45,0,.46.09.91.15,1.37.15,7.52.15,15.13.17,22.66a7.66,7.66,0,0,0,.66,3c0,.24.33.76.06.94-2.65,0-5.31,0-7.94.06a1.43,1.43,0,0,0-.26-.15c-.15-.28-.3-.55-.42-.82s-.21-.73-.3-1.06-.18-.85-.24-1.28a1.07,1.07,0,0,0-.33.12,7.24,7.24,0,0,1-3.25,3.07,12.09,12.09,0,0,1-3.37.79v.12Z"/><path id="path38" class="cls-4" d="M235.56,343.62c-.21-.06-.42-.12-.59-.15V297.94l.29-.09h8.3l.45.09q0,22.67.06,45.38a.81.81,0,0,0-.21.24c-2.78,0-5.55,0-8.3.06Z"/><path id="path40" class="cls-4" d="M251.68,343.62a1,1,0,0,1-.6-.24q0-17,0-33.88c0-.12.06-.24.09-.34,2.71,0,5.43,0,8.14,0a1.72,1.72,0,0,0,.12.22c0,1.12,0,2.24,0,3.39l.12.22c.06-.25.18-.28.33-.43.39-.51.78-1,1.16-1.55.15-.12.3-.24.48-.36,0-.58,2.48-1.61,2.87-1.79a15.57,15.57,0,0,1,4.23-.67c.75.09,1.53.19,2.3.31.33.09.69.18,1.05.3s.56.24.86.36a18.45,18.45,0,0,1,1.91,1.52l.48.58c.27.48.53,1,.83,1.51l.36,1a27.18,27.18,0,0,1,.39,2.73v26.91a1.3,1.3,0,0,0-.18.21c-2.8,0-5.61,0-8.38,0a.8.8,0,0,1-.15-.18q0-12.47,0-24.87c-.12-.55-.24-1.07-.36-1.58l-.36-.64h-.12c-.63-.88-1.16-.94-2.18-1.21a9.41,9.41,0,0,0-2.59.3l-.63.37a10,10,0,0,0-.84.75c-.23.37-.44.76-.65,1.16a4.66,4.66,0,0,0-.24.69c-.09.55-.15,1.1-.21,1.67,0,7.71,0,15.41,0,23.14,0,.37-.45.4-.72.43-2.5,0-5,0-7.45,0Z"/><path id="path42" class="cls-4" d="M351.72,343.62a.58.58,0,0,1-.44-.33V309.5a.56.56,0,0,1,.18-.4h7.93a.43.43,0,0,1,.18.06c.36,1.1-.42,2.61.24,3.64a4.14,4.14,0,0,0,.63-.91c.09,0,.5-.54.56-.66a4.5,4.5,0,0,0,.84-.85,9.43,9.43,0,0,1,2.48-1.43,10.39,10.39,0,0,1,4.62-.82c.72.09,1.43.18,2.18.31a5.36,5.36,0,0,1,1.37.51c.36.09,1.43.55,1.55.94,1.17.58,2,2.31,2.39,3.49a19.17,19.17,0,0,1,.6,3.18q0,13.43,0,26.91a.9.9,0,0,0-.3.12h-8.15c-.09-.06-.15-.12-.21-.15-.06-8.22-.08-16.44-.11-24.63l-.18-1.37c-.12-.27-.21-.54-.3-.81a4.2,4.2,0,0,0-1.34-1.25l-.78-.27h-2.06a9.76,9.76,0,0,0-1,.33,2.53,2.53,0,0,0-.45.25,4.63,4.63,0,0,0-1.37,1.57,1.24,1.24,0,0,1-.27.61c-.15.76-.3,1.52-.42,2.3q0,11.65,0,23.3a.23.23,0,0,0-.12.12c-2.71,0-5.43,0-8.15,0Z"/><path id="path44" class="cls-4" d="M449.36,343.62c-.06-.06-.09-.12-.12-.15q0-17,0-34a1.14,1.14,0,0,1,.12-.34c2.8,0,5.64,0,8.47,0a.57.57,0,0,1,.09.16v34.12a.41.41,0,0,0-.09.12Z"/><path id="path46" class="cls-3" d="M330,338.37c-.36-.15-.71-.27-1-.39v-.12a3.12,3.12,0,0,1-1.38-1.4h-.08c-.21-.51-.42-1-.6-1.49a17.33,17.33,0,0,1-.48-3.73c-.48-2.91-.12-6-.12-9,.24-1.82.18-3.73.93-5.43a10.75,10.75,0,0,1,.59-1.06,3.74,3.74,0,0,1,2.3-1.43c.57,0,1.79-.18,2.24.27l.92.49c0,.18.18.24.3.3.3.58.6,1.15.93,1.76,1.1,3.76.95,7.83.95,11.71-.06,1.45-.27,3-.39,4.43-.12.45-.2.94-.29,1.42a6.25,6.25,0,0,1-.78,1.85,6.59,6.59,0,0,1-.81,1.06c-.41.22-.83.43-1.25.64l-1.94.09Z"/><path id="path48" class="cls-3" d="M475.79,338.37c-.38-.24-1-.36-1.22-.82-1.16-1.18-1.16-3.06-1.16-4.61a4.77,4.77,0,0,1,2.47-4c.3-.12.6-.24.9-.33,1.58-.64,3.37-.82,4.8-1.89a1.08,1.08,0,0,0,.24.1v7.43a5.4,5.4,0,0,1-1.07,2.36l-1.26,1.09c-.56.19-1.1.4-1.64.61Z"/><path id="path50" class="cls-3" d="M296.46,337.61l-.68-.18a3.8,3.8,0,0,1-2.06-1.94c-.24-.24-.15-.73-.39-1-.15-.73-.27-1.43-.39-2.12-.09-.91-.18-1.82-.24-2.73,0-1.61-.06-3.22-.06-4.83s.18-3,.3-4.48a8,8,0,0,1,1.26-3.92c0-.57,1.64-1.21,2-1.33h1.88c.3.09.6.18.9.3l.63.46a4.19,4.19,0,0,1,1.19,2.15c.3.3.18,1,.42,1.43.09.81.21,1.63.33,2.48a63.64,63.64,0,0,1-.3,11.13c-.12.52-.24,1-.36,1.58-.15.34-.3.67-.42,1a3.16,3.16,0,0,1-1,1.37c-.24.12-.45.24-.66.36a14.58,14.58,0,0,1-2.3.24Z"/><path id="path52" class="cls-3" d="M393.05,322.36c-.09-.06-.15-.12-.21-.15,0-.43,0-.85,0-1.25.21-1.54.12-3.21,1.05-4.55a1.84,1.84,0,0,1,.15-.36.22.22,0,0,1,.15,0c0-.43.83-1,1.1-1.24a3.92,3.92,0,0,1,.69-.31,6.87,6.87,0,0,1,2.71,0,6.72,6.72,0,0,1,1.4.91c1.41,2,1.44,4.43,1.55,6.86a.06.06,0,0,0-.05.06c-2.84,0-5.67,0-8.51.06Z"/><path id="path54" class="cls-4" d="M449.3,305.52l-.09-.36v-7c.09-.21.09-.21.3-.3h8.05l.27.09c0,2.46,0,4.92.06,7.4a.23.23,0,0,0-.06.15C455,305.46,452.13,305.49,449.3,305.52Z"/><path id="path56" class="cls-4" d="M293.24,275.83c-1.19,0-2.39-.21-3.58-.27a6.51,6.51,0,0,1-1.73-.52l-.45-.09a9.36,9.36,0,0,1-3.94-2.79c-.5-.24-.74-1-1.13-1.42A19.84,19.84,0,0,1,281,267a10.42,10.42,0,0,1-.51-2.37c-.09-1.15-.18-2.3-.24-3.43,0-1.54-.06-3.09-.06-4.61.12-1.85.24-3.7.39-5.55a7.58,7.58,0,0,1,.42-1.88,5.21,5.21,0,0,1,.59-2c.15-.45.3-.88.48-1.3a8.72,8.72,0,0,1,1.46-2.19,2.07,2.07,0,0,1,.09-.24,2.12,2.12,0,0,0,.66-.64l1.61-1.27c.39-.24.78-.46,1.19-.67l1.2-.45c.62-.19,1.25-.34,1.88-.49l1.94-.27h3.13c.69.09,1.37.18,2.06.3a8.79,8.79,0,0,1,2.42.88c.38,0,1.37.76,1.64.94l1.16,1c.27.34.54.67.84,1,.41.76.83,1.52,1.25,2.31.12.27.24.57.36.88s.18.67.3,1,.17.85.29,1.27c.09.64.18,1.28.3,1.91.09,1.34.18,2.67.3,4s0,2.61,0,3.91c-5.73,0-11.46.09-17.19.15v3.28c.09,1,.18,1.94.3,2.94.09.36.18.73.3,1.09a5.78,5.78,0,0,0,2.09,3c.24.09.51.19.77.31h1.77a14.2,14.2,0,0,1,1.37-.61c.18-.21.36-.39.53-.58.42,0,1.17-2.39,1.23-2.73a16.23,16.23,0,0,0,.42-2.12,1.61,1.61,0,0,1,.23-.33c2.51,0,5,0,7.58,0l.09.18a18.71,18.71,0,0,1-.71,4.67c-.27.64-.54,1.3-.78,2a10.66,10.66,0,0,1-1.43,2.12c-.33.1-1.13,1.07-1.43,1.34s-.84.48-1.26.76a1.57,1.57,0,0,0-.68.3,11.25,11.25,0,0,0-1.2.4c-.44.09-.89.18-1.34.3s-1.19.12-1.79.21-1.19,0-1.79.06Z"/><path id="path58" class="cls-4" d="M341.88,275.8c-.51-.09-1-.18-1.49-.24-.87-.24-2.66-1-3.08-1.82a8.4,8.4,0,0,1-1.79-2.64c-.09-.24-.18-.45-.24-.67-.12-.45-.24-.88-.35-1.3-.12-.73-.21-1.46-.3-2.19a13.71,13.71,0,0,1,.5-4.79c.24-1.51,1.32-3.58,2.63-4.24v-.15c.87-.43,1.73-1.28,2.72-1.46a16.58,16.58,0,0,1,4-1.3,11.8,11.8,0,0,0,1.35-.43c1-.27,2-.55,3-.79a5.58,5.58,0,0,1,.75-.3,10.92,10.92,0,0,0,1.37-1.09,4.21,4.21,0,0,1,.3-.55c.09-.42.18-.82.3-1.21v-1.37c-.12-.42-.21-.85-.3-1.27a3.57,3.57,0,0,0-2.12-2c-1.17-.09-3.05-.46-4,.51-1,.34-1.34,2.16-1.55,3,0,.54-.06,1.09-.09,1.66h-7.73c0-.66,0-1.33,0-2a10.87,10.87,0,0,1,1.1-4.34,3.82,3.82,0,0,1,.39-.57c1-2.19,3.37-3.25,5.43-4A13.39,13.39,0,0,1,344,240c.74-.12,1.49-.21,2.23-.3a26.93,26.93,0,0,1,7.49.67c.54.18,1.08.39,1.64.6a11.43,11.43,0,0,1,2.36,1.61l1,1.4a5.91,5.91,0,0,0,.59,1.42c.09.39.18.79.3,1.21.09.61.18,1.25.3,1.88,0,7.44.06,14.87.09,22.33a11.51,11.51,0,0,0,.89,3.85,1.54,1.54,0,0,0-.05.39c-2.66,0-5.32,0-8,0-.48-.15-.66-1-.87-1.42a9.49,9.49,0,0,0-.5-2,.11.11,0,0,0-.09,0,7.59,7.59,0,0,1-2,2.45c0,.28-1.5.82-1.7,1-.51.13-1,.25-1.5.4a3.77,3.77,0,0,0-1.55.21c-.95,0-1.91,0-2.83,0Z"/><path id="path60" class="cls-4" d="M235.2,275.13,235,275q0-22.78-.06-45.55a1.6,1.6,0,0,1,.26-.21c4.39,0,8.81,0,13.22,0,.09.3.18.63.3,1,.15.91.3,1.82.48,2.73a2.07,2.07,0,0,0,.12.3,45.36,45.36,0,0,0,1,4.91,7,7,0,0,0,.36,1.76,4.87,4.87,0,0,0,.3,1.46c.09.91.36,1.82.48,2.73a9,9,0,0,0,.41,1.79c.15.94.3,1.88.48,2.82a21.18,21.18,0,0,1,.51,2.21,25.28,25.28,0,0,0,.6,3c.29,2.4,1,4.8,1.4,7.16,0,0,0,.06.06.09a8.87,8.87,0,0,0,.56-2.24c.12-.58.27-1.15.42-1.73.15-.91.3-1.82.48-2.73.21-.7.24-1.52.51-2.21.27-2.22,1-4.43,1.28-6.65.15-.75.33-1.51.51-2.27.45-2.46,1.07-5,1.43-7.43a1.05,1.05,0,0,1,.12-.31,25.67,25.67,0,0,1,.69-3.36,6.34,6.34,0,0,1,.77-3c4.39,0,8.77,0,13.16,0a1.84,1.84,0,0,0,.15.36q0,22.61,0,45.22a.63.63,0,0,0-.12.18c-2.75,0-5.49,0-8.21,0q-.09-17.75-.14-35.45c0-.09-.06-.18-.09-.25-.63,1.92-.78,4.07-1.38,6-.35,2.18-1,4.37-1.37,6.61a10.75,10.75,0,0,0-.6,2.79,9,9,0,0,0-.59,2.64c-.45,1.55-.69,3.22-1.11,4.76-.59,2.73-1.19,5.46-1.76,8.19-.18.67-.33,1.34-.47,2a7.45,7.45,0,0,1-.72,2.73h-6.77a.76.76,0,0,0-.21-.06,9.06,9.06,0,0,1-.45-2,50.21,50.21,0,0,1-1.34-6.1c-.21-.45-.21-1.09-.42-1.57-.27-1.31-.54-2.58-.78-3.85-.24-.49-.15-1.19-.41-1.61a4.5,4.5,0,0,0-.3-1.43c-.6-3.3-1.53-6.58-2.12-9.89-.42-.87-.3-2.09-.72-2.94-.27-1.76-.8-3.52-1.07-5.27a3.68,3.68,0,0,1-.21-.46c-.09-.3-.15-.58-.21-.85,0,.12-.06.24-.09.4q0,17.77-.09,35.6l-8,.09Z"/><path id="path62" class="cls-4" d="M311.68,275.13c-.06-.09-.12-.15-.15-.21V240.71l.09-.09h8.12s.06,0,.12.06c0,1.24,0,2.49,0,3.76a2.24,2.24,0,0,0,.21.36,14.57,14.57,0,0,1,2.53-3.21c.39-.3.78-.58,1.2-.85.17-.12.38-.24.59-.36a5,5,0,0,1,.78-.34c1.19-.21,2.92-.7,4.06-.12,0,2.7,0,5.43,0,8.16a.54.54,0,0,0-.15.21c-1.11,0-2.21-.06-3.32-.06-.53.09-1.07.21-1.58.33A6.65,6.65,0,0,0,322,250a9,9,0,0,0-.68.7c-.24.39-.45.79-.66,1.18a10.93,10.93,0,0,0-.3,1.06l-.09,21.93a1.12,1.12,0,0,0-.08.24c-2.84,0-5.67,0-8.48.06Z"/><path id="path64" class="cls-4" d="M366.64,275.13a3.11,3.11,0,0,0-.35-.3V229.67c.06-.24.06-.3.26-.39h8.3a4.39,4.39,0,0,1,.27.39c0,4.61,0,9.22,0,13.86.12.12.12.15.36.15a7.28,7.28,0,0,1,4.68-3.52c.33-.33,1.37-.33,1.85-.42.87,0,1.73,0,2.63,0,.59.09,1.19.18,1.82.3a9.27,9.27,0,0,1,3.1,1.61v.09l.3.21V242a5.09,5.09,0,0,1,1.4,2.13c.21.21.24.69.39,1s.18.94.3,1.42.09,1,.15,1.55q0,13.42,0,26.84a.41.41,0,0,0-.09.12c-2.87,0-5.7,0-8.54,0q-.09-12.69-.15-25.38a8.47,8.47,0,0,0-.59-1.76c-1.05-1.37-2.57-1.46-4.18-1.28-.72.34-1.61.52-2.09,1.22-.27,0-.74,1.12-.86,1.42a24.39,24.39,0,0,0-.45,2.58q0,11.32,0,22.66l-.18.54-8.3.09Z"/><path id="path66" class="cls-3" d="M346,269.92a3.07,3.07,0,0,1-1.88-1c-.18-.25-.33-.49-.48-.73s-.21-.55-.3-.82c-.12-.58-.21-1.15-.3-1.73a7.52,7.52,0,0,1,.72-3.52,1.7,1.7,0,0,1,.24-.39l.89-.91a11.06,11.06,0,0,1,3.85-1.43c.3-.12.6-.21.9-.3a7.39,7.39,0,0,0,1.55-.88,1.46,1.46,0,0,1,.36,0c0,2.37,0,4.76.06,7.16-.12.42-.21.85-.3,1.3a8.63,8.63,0,0,1-1.32,1.88l-1.52,1a10.89,10.89,0,0,1-2.47.4Z"/><path id="path68" class="cls-3" d="M289.27,253.9a2.78,2.78,0,0,0-.3-.15c0-2.76.09-5.73,2.51-7.49a5.45,5.45,0,0,1,2.42-.46,4.48,4.48,0,0,1,2.09.88c.17.22.38.43.59.67a5,5,0,0,0,.3.55c.09.24.18.51.3.79s.18.82.3,1.24c.09,1.24.21,2.49.33,3.76a.16.16,0,0,0-.06.12l-8.48.09Z"/><path id="path70" class="cls-4" d="M393.05,213.11c-.48-.24-1.16,0-1.64-.18a14.17,14.17,0,0,1-5.31-1.49l-.57-.3v-.09a7.56,7.56,0,0,1-3-3.64c-.15-.55-.3-1.09-.42-1.64s-.12-1.33-.15-2c2.72,0,5.46,0,8.21,0,.24.15.33,1,.41,1.3s.21.4.33.61a4.61,4.61,0,0,1,.36.39l1,.7.56.3a7.73,7.73,0,0,0,3.58-.06,3.18,3.18,0,0,0,1.91-1.73,5.65,5.65,0,0,0,.6-1.36,29.63,29.63,0,0,0,.3-6.73l-.24-.09a11.29,11.29,0,0,1-1.19,1.45c-.36.27-.72.55-1.08.85a3.27,3.27,0,0,0-.51.39l-1.34.7a5.09,5.09,0,0,0-.83.31c-.57.09-1.11.18-1.65.3H391.2c-.66-.12-1.31-.21-2-.3-.42-.16-.83-.28-1.25-.4-1.05-.85-2.48-1.15-3.22-2.4h-.12a7.13,7.13,0,0,0-.9-1.36c-.33-.73-.66-1.46-.95-2.18a25.17,25.17,0,0,1-1.05-5.55c-.09-.52-.15-1-.21-1.49,0-2-.06-4.06-.06-6.1.06-1.51.3-3,.36-4.52a12.3,12.3,0,0,1,.81-3.33,1.92,1.92,0,0,1,.3-.85c.23-.61.5-1.21.77-1.82.42-.64.87-1.24,1.31-1.85.27,0,.72-1,1.11-1,.36-.73,1.85-1.15,2.51-1.46l1.52-.36c1.19,0,2.44-.06,3.64.06a8.16,8.16,0,0,1,1.94.76,5.31,5.31,0,0,1,2.26,1.91c.48.24.66,1.18,1.05,1.58a.66.66,0,0,1,.15-.19c0-1,0-1.94,0-2.88.09-.36.15-.33.39-.48H407a2.88,2.88,0,0,1,.47.06.63.63,0,0,0,.12.18q0,17.34,0,34.67c-.12.72-.21,1.45-.3,2.18-.26.79-.5,1.61-.74,2.43-.33.6-.66,1.21-1,1.82-.29.33-.56.66-.83,1a7.38,7.38,0,0,0-1.29,1.27,11.4,11.4,0,0,1-3.72,1.7,5.18,5.18,0,0,1-1.35.3c-.77.4-1.91.16-2.71.43-.87,0-1.73.06-2.6.12Z"/><path id="path72" class="cls-4" d="M276.77,202.13a7.16,7.16,0,0,1-6.62-5.19,12.24,12.24,0,0,1-.72-3.3c0-.82,0-1.64,0-2.43a10.5,10.5,0,0,1,.78-3.73,7.76,7.76,0,0,1,4.65-4.67,5.39,5.39,0,0,1,1.55-.61,46.35,46.35,0,0,1,5.73-1.63.92.92,0,0,1,.33-.16,10.15,10.15,0,0,0,2.36-.82,3.38,3.38,0,0,0,1.25-1.42c.09-.36.18-.73.3-1.09v-1.37c-.12-.45-.21-.91-.3-1.36l-.54-.91a4.17,4.17,0,0,0-2-1.22c-.65,0-1.31,0-1.94,0-1,.28-2.06.52-2.44,1.55h-.09a6.45,6.45,0,0,0-.39.79c-.12.39-.21.79-.3,1.18-.06.61-.09,1.22-.12,1.82h-7.55c-.45-.21-.12-2.73-.09-3.33.09-.43.18-.85.3-1.28.24-.6.48-1.18.72-1.76s.8-1.21,1.22-1.79a5.66,5.66,0,0,1,.6-.6,7.27,7.27,0,0,1,1.73-1.13,8,8,0,0,1,2.89-1.12c.51-.12,1-.21,1.52-.3,3.11-.18,6.42-.33,9.4.67a4.86,4.86,0,0,1,1.61.75c.51.16.9.61,1.35.79v.09a4.37,4.37,0,0,1,1,1.1,7.06,7.06,0,0,1,1.2,2.33,3,3,0,0,0,.23,1c.09.67.18,1.34.3,2l.09,22.3a11.86,11.86,0,0,0,1,3.94.48.48,0,0,0-.12.21c-2.72,0-5.43,0-8.15,0-.42-.42-.48-1.12-.74-1.6,0-.28-.24-1.73-.51-1.86-.27.28-.33.79-.66.95a6.27,6.27,0,0,1-3.43,2.66l-2.18.46c-1.07,0-2.15,0-3.19.06Z"/><path id="path74" class="cls-4" d="M324.33,202.13a8.37,8.37,0,0,1-3.13-.76c-.27-.18-.54-.36-.81-.51a3.78,3.78,0,0,1-1.1-1,11.62,11.62,0,0,1-1.76-3.15c-.12-.36-.21-.73-.3-1.09-.12-.67-.21-1.34-.3-2,0-2.61,0-5.49,1.55-7.74a.22.22,0,0,1,.18-.21,5.37,5.37,0,0,1,2.57-2.27v-.09a18.71,18.71,0,0,1,1.91-.79.69.69,0,0,1,.21-.16c2.47-.72,5-1.63,7.49-2.12.47-.21,1-.42,1.43-.6.27-.25.54-.46.81-.67a7.66,7.66,0,0,1,.56-1,7.58,7.58,0,0,1,.21-.82c0-.46,0-.88,0-1.31s-.24-1.06-.33-1.57c-.12-.25-.24-.46-.33-.67h-.09a3.32,3.32,0,0,0-2.05-1.4h-2.27a3.94,3.94,0,0,0-2,1.19,8.69,8.69,0,0,0-.57.94c-.12.33-.21.67-.3,1a7.12,7.12,0,0,1-.27,2.18c-2.53,0-5,0-7.54,0l-.09-.09a20.77,20.77,0,0,1,.12-3.34,23.87,23.87,0,0,1,.92-2.82,3.84,3.84,0,0,1,.33-.6h.12a.6.6,0,0,1,.3-.52l.8-1.09a9.6,9.6,0,0,1,3.37-2c.48-.24,1.05-.27,1.53-.52l2.05-.36c2,0,4,0,6,.06a13.84,13.84,0,0,1,6.21,2.52c0,.15.27.27.33.42a7.66,7.66,0,0,1,1.52,2.64c.09.33.18.7.27,1.06.09.67.18,1.34.3,2q0,10.61.09,21.23c0,.7.05,1.4.08,2.13.09.42.18.85.3,1.3s.36,1,.57,1.52v.3l-8.24.09a4.59,4.59,0,0,1-.86-2.39c-.12-.34-.21-.67-.3-1,0,0-.06-.06-.09-.06a10.22,10.22,0,0,1-1.13,1.6,2.2,2.2,0,0,0-.81.85c-.51.31-1,.61-1.49.94a21.16,21.16,0,0,1-2.83.67c-1.08,0-2.12,0-3.17.06Z"/><path id="path76" class="cls-4" d="M235.14,201.49l-.2-.12q0-22.83,0-45.64h18.56v.15c.47.12,1.25.06,1.58.39a14.29,14.29,0,0,1,3.13,1.43,21.64,21.64,0,0,0,1.79,1.51c.06.19.09.25.24.31.42.63.83,1.27,1.28,1.94a13.66,13.66,0,0,1,.78,1.85,2.78,2.78,0,0,0,.15.3c.21,1,.53,2.06.65,3.09a16.47,16.47,0,0,1,.09,3.64c-.06.82-.12,1.64-.18,2.49-.23.79-.44,1.58-.65,2.37a5.6,5.6,0,0,1-.69,1.48,13.44,13.44,0,0,1-1.7,2.61c-.48.37-.95.76-1.4,1.15v.13l-1.17.72a13.94,13.94,0,0,1-3.73,1.4.93.93,0,0,0-.29.12c-.63.09-1.23.18-1.82.3l-7.34.19a.57.57,0,0,0-.06.24c-.06,5.94-.09,11.89-.12,17.83a.66.66,0,0,0-.15.09c-2.93,0-5.82,0-8.72,0Z"/><path id="path78" class="cls-4" d="M302.28,201.49a1.22,1.22,0,0,0-.27-.15q0-22.83,0-45.61h8.81q0,22.78,0,45.61l-.21.09C307.77,201.43,305,201.46,302.28,201.49Z"/><path id="path80" class="cls-4" d="M349.58,201.49a.41.41,0,0,0-.09-.12V167.16a1.46,1.46,0,0,1,.09-.21c2.65,0,5.31,0,8,0a.76.76,0,0,1,.21.06,1.46,1.46,0,0,1,.09.21c0,.45-.12,3.46.18,3.61.24-.43.51-.82.78-1.21a7.58,7.58,0,0,1,3.28-2.58,11.34,11.34,0,0,1,2.36-.82,15.5,15.5,0,0,1,5.64.3,5.08,5.08,0,0,1,1.55.76c.65.21,1.19,1,1.73,1.46.3.45.59.91.89,1.39a7.49,7.49,0,0,0,.3.73c.09.3.18.64.3,1,.12.64.24,1.3.36,2v27.6a.06.06,0,0,0-.06.06h-8.48c-.06,0-.09-.06-.12-.06q0-12.24-.06-24.41c-.08-.55-.17-1.1-.23-1.61a5.18,5.18,0,0,0-.78-1.58c-1.37-1-2.83-.94-4.45-.61-.26.16-.53.31-.8.46a4.17,4.17,0,0,0-1.67,2.4c-.12.69-.24,1.39-.33,2.12q0,11.6,0,23.2a.41.41,0,0,0-.12.09c-2.83,0-5.67,0-8.5.06Z"/><path id="path82" class="cls-3" d="M280.8,196.28a4.11,4.11,0,0,1-1.73-.73,7,7,0,0,1-1-6.16c.21-.45.42-.88.63-1.3l.72-.73a5.63,5.63,0,0,1,1.4-.79,8,8,0,0,1,2.24-.7.45.45,0,0,1,.2-.12,4.79,4.79,0,0,0,2.18-.91,3.42,3.42,0,0,1,.57-.3.83.83,0,0,1,.27,0c0,2.33,0,4.7,0,7.07a7.16,7.16,0,0,1-.6,2.06c-.33.39-.63.79-.92,1.18l-1.26.91c-.27.09-.53.18-.8.3-.66.06-1.32.16-1.94.25Z"/><path id="path84" class="cls-3" d="M328.3,196.28l-.8-.19a2.91,2.91,0,0,1-1.74-2,7.85,7.85,0,0,1-.44-3.42c.06-.43.15-.85.24-1.28a5.42,5.42,0,0,1,.29-.7,5.17,5.17,0,0,1,1.53-1.69c.68-.31,1.4-.61,2.11-.91s1.44-.4,2.15-.58a6,6,0,0,1,2.18-1c0,2.3,0,4.64.06,7-.12.46-.21.91-.3,1.4a12.31,12.31,0,0,0-.59,1.21c-.18.12-.3.18-.3.43h-.12A5.14,5.14,0,0,1,330.3,196c-.69.06-1.34.16-2,.25Z"/><path id="path86" class="cls-3" d="M393.86,194.21a3.34,3.34,0,0,1-1.67-.88c-.57-.27-1.08-1.51-1.32-2s-.24-.94-.36-1.39c-.11-.82-.2-1.64-.29-2.43v-6.13a9.84,9.84,0,0,1,.21-2.12,10,10,0,0,1,1.34-5.09c.21-.22.42-.43.62-.61a8.14,8.14,0,0,1,.78-.4,6.13,6.13,0,0,1,2.95,0c.33.22.69.43,1.05.67l.72.91a7.16,7.16,0,0,0,.29.67c.09.3.18.61.3.91s.18.85.3,1.27c.12,1.28.33,2.55.39,3.82v5.13c-.15,1.09-.27,2.18-.39,3.31a2.32,2.32,0,0,0-.21.48,10.27,10.27,0,0,1-.39,1.37l-1.07,1.54-.84.64c-.35.09-.71.18-1,.3-.48,0-.93,0-1.37.06Z"/><path id="path88" class="cls-3" d="M244.3,176.41c-.08-.09-.14-.18-.2-.24V162.79l.18-.18c1.82,0,3.75-.09,5.55.09.32.09.68.18,1,.3.18.1.39.19.6.31s.62.48.95.76.45.6.69.94.24.66.39,1a10.5,10.5,0,0,1,.56,4.4c-.12.57-.21,1.18-.3,1.78-.12.34-.23.67-.35,1-.3.42-.6.88-.9,1.33a9.58,9.58,0,0,1-1.73,1.24l-1.31.37c-1.73.06-3.46.12-5.17.21Z"/><path id="path90" class="cls-5" d="M68,182.19h42.3V225.1h42.21v43H110.32V311H68V268.09H25.81v-43H68Z"/><path id="path92" class="cls-5" d="M68,182.19h42.3V225.1h42.21v43H110.32V311H68V268.09H25.81v-43H68Z"/></g></svg>